<svg width="76" height="76" viewBox="0 0 76 76" fill="none" xmlns="http://www.w3.org/2000/svg">
<rect width="76" height="76" fill="black"/>
<path d="M36.388 37.132C36.9307 37.132 37.4183 37.0147 37.851 36.78C38.2837 36.5453 38.6247 36.208 38.874 35.768C39.1307 35.3207 39.259 34.7853 39.259 34.162V28.97H38.247V32.391H38.225C38.0417 32.0537 37.7703 31.7823 37.411 31.577C37.0517 31.3643 36.6557 31.258 36.223 31.258C35.7097 31.258 35.244 31.3753 34.826 31.61C34.4153 31.8447 34.089 32.1783 33.847 32.611C33.6123 33.0363 33.495 33.5423 33.495 34.129C33.495 34.745 33.616 35.2803 33.858 35.735C34.1073 36.1823 34.4483 36.527 34.881 36.769C35.321 37.011 35.8233 37.132 36.388 37.132ZM36.388 36.263C36.0433 36.263 35.728 36.1787 35.442 36.01C35.1633 35.8413 34.9397 35.603 34.771 35.295C34.6023 34.987 34.518 34.6203 34.518 34.195C34.518 33.7843 34.5987 33.425 34.76 33.117C34.9287 32.809 35.1523 32.567 35.431 32.391C35.717 32.215 36.0323 32.127 36.377 32.127C36.7217 32.127 37.0333 32.2113 37.312 32.38C37.598 32.5487 37.8217 32.7907 37.983 33.106C38.1517 33.414 38.236 33.7807 38.236 34.206C38.236 34.624 38.1517 34.987 37.983 35.295C37.8217 35.603 37.6017 35.8413 37.323 36.01C37.0443 36.1787 36.7327 36.263 36.388 36.263Z" fill="white"/>
<path d="M37.851 36.78L37.6603 36.4284L37.6603 36.4284L37.851 36.78ZM38.874 35.768L38.527 35.5689L38.526 35.5708L38.874 35.768ZM39.259 28.97H39.659V28.57H39.259V28.97ZM38.247 28.97V28.57H37.847V28.97H38.247ZM38.247 32.391V32.791H38.647V32.391H38.247ZM38.225 32.391L37.8736 32.582L37.9871 32.791H38.225V32.391ZM37.411 31.577L37.2072 31.9213L37.2125 31.9243L37.411 31.577ZM34.826 31.61L34.6302 31.2612L34.6275 31.2627L34.826 31.61ZM33.847 32.611L33.4979 32.4157L33.4968 32.4178L33.847 32.611ZM33.858 35.735L33.5048 35.923L33.5086 35.9297L33.858 35.735ZM34.881 36.769L34.6857 37.1181L34.6882 37.1195L34.881 36.769ZM35.442 36.01L35.2349 36.3522L35.2388 36.3545L35.442 36.01ZM34.771 35.295L34.4202 35.4871L34.4202 35.4871L34.771 35.295ZM34.76 33.117L34.4091 32.9248L34.4057 32.9314L34.76 33.117ZM35.431 32.391L35.2213 32.0503L35.2174 32.0528L35.431 32.391ZM37.312 32.38L37.1049 32.7222L37.1088 32.7245L37.312 32.38ZM37.983 33.106L37.6268 33.2883L37.6322 33.2981L37.983 33.106ZM37.983 35.295L37.6321 35.1028L37.6287 35.1094L37.983 35.295ZM37.323 36.01L37.1159 35.6678L37.1159 35.6678L37.323 36.01ZM36.388 37.532C36.9903 37.532 37.5447 37.4012 38.0417 37.1316L37.6603 36.4284C37.292 36.6281 36.871 36.732 36.388 36.732V37.532ZM38.0417 37.1316C38.5421 36.8602 38.9368 36.4685 39.222 35.9652L38.526 35.5708C38.3125 35.9475 38.0252 36.2305 37.6603 36.4284L38.0417 37.1316ZM39.2209 35.9671C39.519 35.4477 39.659 34.8406 39.659 34.162H38.859C38.859 34.73 38.7424 35.1937 38.5271 35.5689L39.2209 35.9671ZM39.659 34.162V28.97H38.859V34.162H39.659ZM39.259 28.57H38.247V29.37H39.259V28.57ZM37.847 28.97V32.391H38.647V28.97H37.847ZM38.247 31.991H38.225V32.791H38.247V31.991ZM38.5765 32.2C38.3549 31.7923 38.0281 31.4689 37.6095 31.2297L37.2125 31.9243C37.5126 32.0957 37.7285 32.3151 37.8736 32.582L38.5765 32.2ZM37.6147 31.2328C37.1914 30.9822 36.7246 30.858 36.223 30.858V31.658C36.5867 31.658 36.9119 31.7464 37.2073 31.9212L37.6147 31.2328ZM36.223 30.858C35.6461 30.858 35.1122 30.9906 34.6302 31.2612L35.0218 31.9588C35.3758 31.7601 35.7732 31.658 36.223 31.658V30.858ZM34.6275 31.2627C34.1507 31.5352 33.7736 31.9228 33.4979 32.4157L34.1961 32.8063C34.4044 32.4338 34.68 32.1541 35.0245 31.9573L34.6275 31.2627ZM33.4968 32.4178C33.2233 32.9134 33.095 33.4887 33.095 34.129H33.895C33.895 33.5959 34.0014 33.1593 34.1972 32.8042L33.4968 32.4178ZM33.095 34.129C33.095 34.7978 33.2266 35.4001 33.5049 35.9229L34.2111 35.5471C34.0054 35.1606 33.895 34.6922 33.895 34.129H33.095ZM33.5086 35.9297C33.7928 36.4396 34.1862 36.8387 34.6857 37.1181L35.0763 36.4199C34.7105 36.2153 34.4219 35.9251 34.2074 35.5403L33.5086 35.9297ZM34.6882 37.1195C35.1943 37.3978 35.7645 37.532 36.388 37.532V36.732C35.8822 36.732 35.4477 36.6242 35.0738 36.4185L34.6882 37.1195ZM36.388 35.863C36.112 35.863 35.8672 35.7964 35.6452 35.6655L35.2388 36.3545C35.5888 36.5609 35.9747 36.663 36.388 36.663V35.863ZM35.6491 35.6678C35.4354 35.5385 35.2594 35.354 35.1218 35.1029L34.4202 35.4871C34.6199 35.852 34.8912 36.1442 35.2349 36.3522L35.6491 35.6678ZM35.1218 35.1029C34.9916 34.865 34.918 34.5673 34.918 34.195H34.118C34.118 34.6734 34.2131 35.109 34.4202 35.4871L35.1218 35.1029ZM34.918 34.195C34.918 33.8373 34.988 33.5438 35.1143 33.3026L34.4057 32.9314C34.2093 33.3062 34.118 33.7314 34.118 34.195H34.918ZM35.1108 33.3091C35.2491 33.0566 35.4271 32.8666 35.6446 32.7292L35.2174 32.0528C34.8776 32.2674 34.6082 32.5614 34.4092 32.9249L35.1108 33.3091ZM35.6406 32.7317C35.8619 32.5955 36.1043 32.527 36.377 32.527V31.727C35.9604 31.727 35.5721 31.8345 35.2214 32.0503L35.6406 32.7317ZM36.377 32.527C36.6531 32.527 36.8924 32.5936 37.1049 32.7222L37.5191 32.0378C37.1743 31.8291 36.7903 31.727 36.377 31.727V32.527ZM37.1088 32.7245C37.3251 32.8521 37.4977 33.0357 37.6269 33.2882L38.3391 32.9238C38.1456 32.5457 37.8709 32.2453 37.5152 32.0355L37.1088 32.7245ZM37.6322 33.2981C37.7624 33.536 37.836 33.8337 37.836 34.206H38.636C38.636 33.7276 38.5409 33.292 38.3338 32.9139L37.6322 33.2981ZM37.836 34.206C37.836 34.5696 37.763 34.864 37.6322 35.1029L38.3338 35.4871C38.5404 35.11 38.636 34.6784 38.636 34.206H37.836ZM37.6287 35.1094C37.4988 35.3573 37.3279 35.5395 37.1159 35.6678L37.5301 36.3522C37.8755 36.1432 38.1445 35.8487 38.3373 35.4806L37.6287 35.1094ZM37.1159 35.6678C36.9034 35.7964 36.6641 35.863 36.388 35.863V36.663C36.8013 36.663 37.1853 36.5609 37.5301 36.3522L37.1159 35.6678Z" fill="white"/>
<path d="M39.4813 25.2725L39.443 31.731C39.3153 31.7013 39.1482 31.6617 38.9687 31.6171C38.6413 31.5357 38.2854 31.4407 38.05 31.3605V22.2H38.0501H38.0531H38.0562H38.0592H38.0623H38.0654H38.0685H38.0716H38.0747H38.0778H38.0809H38.084H38.0872H38.0903H38.0935H38.0966H38.0998H38.103H38.1062H38.1094H38.1126H38.1158H38.119H38.1222H38.1254H38.1287H38.1319H38.1352H38.1384H38.1417H38.145H38.1482H38.1515H38.1548H38.1581H38.1614H38.1648H38.1681H38.1714H38.1747H38.1781H38.1814H38.1848H38.1882H38.1915H38.1949H38.1983H38.2017H38.2051H38.2085H38.2119H38.2153H38.2188H38.2222H38.2256H38.2291H38.2325H38.236H38.2394H38.2429H38.2464H38.2499H38.2534H38.2569H38.2604H38.2639H38.2674H38.2709H38.2744H38.2779H38.2815H38.285H38.2886H38.2921H38.2957H38.2993H38.3028H38.3064H38.31H38.3136H38.3172H38.3208H38.3244H38.328H38.3316H38.3352H38.3388H38.3425H38.3461H38.3497H38.3534H38.357H38.3607H38.3644H38.368H38.3717H38.3754H38.379H38.3827H38.3864H38.3901H38.3938H38.3975H38.4012H38.4049H38.4087H38.4124H38.4161H38.4199H38.4236H38.4273H38.4311H38.4348H38.4386H38.4423H38.4461H38.4499H38.4536H38.4574H38.4612H38.465H38.4688H38.4726H38.4764H38.4802H38.484H38.4878H38.4916H38.4954H38.4992H38.503H38.5069H38.5107H38.5145H38.5184H38.5222H38.526H38.5299H38.5337H38.5376H38.5415H38.5453H38.5492H38.553H38.5569H38.5608H38.5647H38.5685H38.5724H38.5763H38.5802H38.5841H38.588H38.5919H38.5958H38.5997H38.6036H38.6075H38.6114H38.6153H38.6193H38.6232H38.6271H38.631H38.635H38.6389H38.6428H38.6467H38.6507H38.6546H38.6586H38.6625H38.6665H38.6704H38.6744H38.6783H38.6823H38.6862H38.6902H38.6941H38.6981H38.7021H38.706H38.71H38.714H38.7179H38.7219H38.7259H38.7299H38.7338H38.7378H38.7418H38.7458H38.7498H38.7538H38.7577H38.7617H38.7657H38.7697H38.7737H38.7777H38.7817H38.7857H38.7897H38.7937H38.7977H38.8017H38.8057H38.8097H38.8137H38.8177H38.8217H38.8257H38.8297H38.8337H38.8377H38.8417H38.8457H38.8498H38.8538H38.8578H38.8618H38.8658H38.8698H38.8738H38.8778H38.8818H38.8859H38.8899H38.8939H38.8979H38.9019H38.9059H38.9099H38.914H38.918H38.922H38.926H38.93H38.934H38.938H38.942H38.9461H38.9501H38.9541H38.9581H38.9621H38.9661H38.9701H38.9741H38.9781H38.9822H38.9862H38.9902H38.9942H38.9982H39.0022H39.0062H39.0102H39.0142H39.0182H39.0222H39.0262H39.0302H39.0342H39.0382H39.0422H39.0462H39.0502H39.0542H39.0581H39.0621H39.0661H39.0701H39.0741H39.0781H39.0821H39.086H39.09H39.094H39.098H39.1019H39.1059H39.1099H39.1138H39.1178H39.1218H39.1257H39.1297H39.1337H39.1376H39.1416H39.1455H39.1495H39.1534H39.1574H39.1613H39.1652H39.1692H39.1731H39.1771H39.181H39.1849H39.1888H39.1928H39.1967H39.2006H39.2045H39.2084H39.2123H39.2163H39.2202H39.2241H39.228H39.2319H39.2358H39.2397H39.2435H39.2474H39.2513H39.2552H39.2591H39.2629H39.2668H39.2707H39.2745H39.2784H39.2823H39.2861H39.29H39.2938H39.2976H39.3015H39.3053H39.3092H39.313H39.3168H39.3206H39.3244H39.3283H39.3321H39.3359H39.3397H39.3435H39.3473H39.3511H39.3549H39.3586H39.3624H39.3662H39.37H39.3737H39.3775H39.3812H39.385H39.3887H39.3925H39.3962H39.4H39.4037H39.4074H39.4112H39.4149H39.4186H39.4223H39.426H39.4297H39.4334H39.4371H39.4408H39.4444H39.4481H39.4518H39.4555H39.4591H39.4628H39.4664H39.4701H39.4737H39.4773H39.481H39.4813V22.2002V22.2009V22.2016V22.2022V22.2029V22.2035V22.2042V22.2048V22.2055V22.2062V22.2068V22.2075V22.2081V22.2088V22.2094V22.2101V22.2107V22.2114V22.2121V22.2127V22.2134V22.214V22.2147V22.2153V22.216V22.2166V22.2173V22.2179V22.2186V22.2192V22.2199V22.2205V22.2212V22.2218V22.2225V22.2231V22.2238V22.2244V22.2251V22.2257V22.2264V22.227V22.2277V22.2283V22.229V22.2296V22.2303V22.2309V22.2315V22.2322V22.2328V22.2335V22.2341V22.2348V22.2354V22.2361V22.2367V22.2374V22.238V22.2386V22.2393V22.2399V22.2406V22.2412V22.2419V22.2425V22.2431V22.2438V22.2444V22.2451V22.2457V22.2464V22.247V22.2476V22.2483V22.2489V22.2496V22.2502V22.2508V22.2515V22.2521V22.2528V22.2534V22.254V22.2547V22.2553V22.256V22.2566V22.2572V22.2579V22.2585V22.2592V22.2598V22.2604V22.2611V22.2617V22.2623V22.263V22.2636V22.2643V22.2649V22.2655V22.2662V22.2668V22.2674V22.2681V22.2687V22.2693V22.27V22.2706V22.2712V22.2719V22.2725V22.2732V22.2738V22.2744V22.2751V22.2757V22.2763V22.277V22.2776V22.2782V22.2789V22.2795V22.2801V22.2808V22.2814V22.282V22.2827V22.2833V22.2839V22.2846V22.2852V22.2858V22.2865V22.2871V22.2877V22.2883V22.289V22.2896V22.2902V22.2909V22.2915V22.2921V22.2928V22.2934V22.294V22.2947V22.2953V22.2959V22.2965V22.2972V22.2978V22.2984V22.2991V22.2997V22.3003V22.301V22.3016V22.3022V22.3028V22.3035V22.3041V22.3047V22.3054V22.306V22.3066V22.3072V22.3079V22.3085V22.3091V22.3098V22.3104V22.311V22.3116V22.3123V22.3129V22.3135V22.3142V22.3148V22.3154V22.316V22.3167V22.3173V22.3179V22.3186V22.3192V22.3198V22.3204V22.3211V22.3217V22.3223V22.3229V22.3236V22.3242V22.3248V22.3255V22.3261V22.3267V22.3273V22.328V22.3286V22.3292V22.3298V22.3305V22.3311V22.3317V22.3324V22.333V22.3336V22.3342V22.3349V22.3355V22.3361V22.3367V22.3374V22.338V22.3386V22.3392V22.3399V22.3405V22.3411V22.3418V22.3424V22.343V22.3436V22.3443V22.3449V22.3455V22.3461V22.3468V22.3474C39.4813 22.3526 39.4813 22.3577 39.4813 22.3629C39.4811 22.4705 39.481 22.5796 39.5409 22.7016C39.7569 23.1583 40.0232 23.4819 40.5933 23.819C41.1481 24.1471 42.0004 24.4936 43.3884 25.0068C45.1566 25.6679 46.2779 26.1882 46.9556 26.6664C47.6225 27.137 47.8287 27.5432 47.83 27.9819C47.8258 28.0659 47.7937 28.177 47.7256 28.3142C47.6575 28.4515 47.5589 28.6037 47.4356 28.765C47.2854 28.9617 47.1024 29.1666 46.9022 29.368C47.0396 29.2 47.1508 29.0319 47.22 28.8665C47.4438 28.3542 47.2267 27.7809 46.8046 27.294C46.3761 26.7997 45.7004 26.3456 44.8822 26.0359C44.2246 25.7738 43.1338 25.5342 42.1152 25.3605C41.0954 25.1866 40.117 25.0737 39.6813 25.0737H39.4825L39.4813 25.2725Z" fill="white" stroke="white" stroke-width="0.4"/>
</svg>
