<svg width="76" height="76" viewBox="0 0 76 76" fill="none" xmlns="http://www.w3.org/2000/svg">
<rect width="76" height="76" fill="black"/>
<path d="M36.388 43.132C36.9307 43.132 37.4183 43.0147 37.851 42.78C38.2837 42.5453 38.6247 42.208 38.874 41.768C39.1307 41.3207 39.259 40.7853 39.259 40.162V34.97H38.247V38.391H38.225C38.0417 38.0537 37.7703 37.7823 37.411 37.577C37.0517 37.3643 36.6557 37.258 36.223 37.258C35.7097 37.258 35.244 37.3753 34.826 37.61C34.4153 37.8447 34.089 38.1783 33.847 38.611C33.6123 39.0363 33.495 39.5423 33.495 40.129C33.495 40.745 33.616 41.2803 33.858 41.735C34.1073 42.1823 34.4483 42.527 34.881 42.769C35.321 43.011 35.8233 43.132 36.388 43.132ZM36.388 42.263C36.0433 42.263 35.728 42.1787 35.442 42.01C35.1633 41.8413 34.9397 41.603 34.771 41.295C34.6023 40.987 34.518 40.6203 34.518 40.195C34.518 39.7843 34.5987 39.425 34.76 39.117C34.9287 38.809 35.1523 38.567 35.431 38.391C35.717 38.215 36.0323 38.127 36.377 38.127C36.7217 38.127 37.0333 38.2113 37.312 38.38C37.598 38.5487 37.8217 38.7907 37.983 39.106C38.1517 39.414 38.236 39.7807 38.236 40.206C38.236 40.624 38.1517 40.987 37.983 41.295C37.8217 41.603 37.6017 41.8413 37.323 42.01C37.0443 42.1787 36.7327 42.263 36.388 42.263Z" fill="white"/>
<path d="M37.851 42.78L37.6603 42.4284L37.6603 42.4284L37.851 42.78ZM38.874 41.768L38.527 41.5689L38.526 41.5708L38.874 41.768ZM39.259 34.97H39.659V34.57H39.259V34.97ZM38.247 34.97V34.57H37.847V34.97H38.247ZM38.247 38.391V38.791H38.647V38.391H38.247ZM38.225 38.391L37.8736 38.582L37.9871 38.791H38.225V38.391ZM37.411 37.577L37.2072 37.9213L37.2125 37.9243L37.411 37.577ZM34.826 37.61L34.6302 37.2612L34.6275 37.2627L34.826 37.61ZM33.847 38.611L33.4979 38.4157L33.4968 38.4178L33.847 38.611ZM33.858 41.735L33.5048 41.923L33.5086 41.9297L33.858 41.735ZM34.881 42.769L34.6857 43.1181L34.6882 43.1195L34.881 42.769ZM35.442 42.01L35.2349 42.3522L35.2388 42.3545L35.442 42.01ZM34.771 41.295L34.4202 41.4871L34.4202 41.4871L34.771 41.295ZM34.76 39.117L34.4091 38.9248L34.4057 38.9314L34.76 39.117ZM35.431 38.391L35.2213 38.0503L35.2174 38.0528L35.431 38.391ZM37.312 38.38L37.1049 38.7222L37.1088 38.7245L37.312 38.38ZM37.983 39.106L37.6268 39.2883L37.6322 39.2981L37.983 39.106ZM37.983 41.295L37.6321 41.1028L37.6287 41.1094L37.983 41.295ZM37.323 42.01L37.1159 41.6678L37.1159 41.6678L37.323 42.01ZM36.388 43.532C36.9903 43.532 37.5447 43.4012 38.0417 43.1316L37.6603 42.4284C37.292 42.6281 36.871 42.732 36.388 42.732V43.532ZM38.0417 43.1316C38.5421 42.8602 38.9368 42.4685 39.222 41.9652L38.526 41.5708C38.3125 41.9475 38.0252 42.2305 37.6603 42.4284L38.0417 43.1316ZM39.2209 41.9671C39.519 41.4477 39.659 40.8406 39.659 40.162H38.859C38.859 40.73 38.7424 41.1937 38.5271 41.5689L39.2209 41.9671ZM39.659 40.162V34.97H38.859V40.162H39.659ZM39.259 34.57H38.247V35.37H39.259V34.57ZM37.847 34.97V38.391H38.647V34.97H37.847ZM38.247 37.991H38.225V38.791H38.247V37.991ZM38.5765 38.2C38.3549 37.7923 38.0281 37.4689 37.6095 37.2297L37.2125 37.9243C37.5126 38.0957 37.7285 38.3151 37.8736 38.582L38.5765 38.2ZM37.6147 37.2328C37.1914 36.9822 36.7246 36.858 36.223 36.858V37.658C36.5867 37.658 36.9119 37.7464 37.2073 37.9212L37.6147 37.2328ZM36.223 36.858C35.6461 36.858 35.1122 36.9906 34.6302 37.2612L35.0218 37.9588C35.3758 37.7601 35.7732 37.658 36.223 37.658V36.858ZM34.6275 37.2627C34.1507 37.5352 33.7736 37.9228 33.4979 38.4157L34.1961 38.8063C34.4044 38.4338 34.68 38.1541 35.0245 37.9573L34.6275 37.2627ZM33.4968 38.4178C33.2233 38.9134 33.095 39.4887 33.095 40.129H33.895C33.895 39.5959 34.0014 39.1593 34.1972 38.8042L33.4968 38.4178ZM33.095 40.129C33.095 40.7978 33.2266 41.4001 33.5049 41.9229L34.2111 41.5471C34.0054 41.1606 33.895 40.6922 33.895 40.129H33.095ZM33.5086 41.9297C33.7928 42.4396 34.1862 42.8387 34.6857 43.1181L35.0763 42.4199C34.7105 42.2153 34.4219 41.9251 34.2074 41.5403L33.5086 41.9297ZM34.6882 43.1195C35.1943 43.3978 35.7645 43.532 36.388 43.532V42.732C35.8822 42.732 35.4477 42.6242 35.0738 42.4185L34.6882 43.1195ZM36.388 41.863C36.112 41.863 35.8672 41.7964 35.6452 41.6655L35.2388 42.3545C35.5888 42.5609 35.9747 42.663 36.388 42.663V41.863ZM35.6491 41.6678C35.4354 41.5385 35.2594 41.354 35.1218 41.1029L34.4202 41.4871C34.6199 41.852 34.8912 42.1442 35.2349 42.3522L35.6491 41.6678ZM35.1218 41.1029C34.9916 40.865 34.918 40.5673 34.918 40.195H34.118C34.118 40.6734 34.2131 41.109 34.4202 41.4871L35.1218 41.1029ZM34.918 40.195C34.918 39.8373 34.988 39.5438 35.1143 39.3026L34.4057 38.9314C34.2093 39.3062 34.118 39.7314 34.118 40.195H34.918ZM35.1108 39.3091C35.2491 39.0566 35.4271 38.8666 35.6446 38.7292L35.2174 38.0528C34.8776 38.2674 34.6082 38.5614 34.4092 38.9249L35.1108 39.3091ZM35.6406 38.7317C35.8619 38.5955 36.1043 38.527 36.377 38.527V37.727C35.9604 37.727 35.5721 37.8345 35.2214 38.0503L35.6406 38.7317ZM36.377 38.527C36.6531 38.527 36.8924 38.5936 37.1049 38.7222L37.5191 38.0378C37.1743 37.8291 36.7903 37.727 36.377 37.727V38.527ZM37.1088 38.7245C37.3251 38.8521 37.4977 39.0357 37.6269 39.2882L38.3391 38.9238C38.1456 38.5457 37.8709 38.2453 37.5152 38.0355L37.1088 38.7245ZM37.6322 39.2981C37.7624 39.536 37.836 39.8337 37.836 40.206H38.636C38.636 39.7276 38.5409 39.292 38.3338 38.9139L37.6322 39.2981ZM37.836 40.206C37.836 40.5696 37.763 40.864 37.6322 41.1029L38.3338 41.4871C38.5404 41.11 38.636 40.6784 38.636 40.206H37.836ZM37.6287 41.1094C37.4988 41.3573 37.3279 41.5395 37.1159 41.6678L37.5301 42.3522C37.8755 42.1432 38.1445 41.8487 38.3373 41.4806L37.6287 41.1094ZM37.1159 41.6678C36.9034 41.7964 36.6641 41.863 36.388 41.863V42.663C36.8013 42.663 37.1853 42.5609 37.5301 42.3522L37.1159 41.6678Z" fill="white"/>
<path d="M39.4813 31.2725L39.443 37.731C39.3153 37.7013 39.1482 37.6617 38.9687 37.6171C38.6413 37.5357 38.2854 37.4407 38.05 37.3605V28.2H38.0501H38.0531H38.0562H38.0592H38.0623H38.0654H38.0685H38.0716H38.0747H38.0778H38.0809H38.084H38.0872H38.0903H38.0935H38.0966H38.0998H38.103H38.1062H38.1094H38.1126H38.1158H38.119H38.1222H38.1254H38.1287H38.1319H38.1352H38.1384H38.1417H38.145H38.1482H38.1515H38.1548H38.1581H38.1614H38.1648H38.1681H38.1714H38.1747H38.1781H38.1814H38.1848H38.1882H38.1915H38.1949H38.1983H38.2017H38.2051H38.2085H38.2119H38.2153H38.2188H38.2222H38.2256H38.2291H38.2325H38.236H38.2394H38.2429H38.2464H38.2499H38.2534H38.2569H38.2604H38.2639H38.2674H38.2709H38.2744H38.2779H38.2815H38.285H38.2886H38.2921H38.2957H38.2993H38.3028H38.3064H38.31H38.3136H38.3172H38.3208H38.3244H38.328H38.3316H38.3352H38.3388H38.3425H38.3461H38.3497H38.3534H38.357H38.3607H38.3644H38.368H38.3717H38.3754H38.379H38.3827H38.3864H38.3901H38.3938H38.3975H38.4012H38.4049H38.4087H38.4124H38.4161H38.4199H38.4236H38.4273H38.4311H38.4348H38.4386H38.4423H38.4461H38.4499H38.4536H38.4574H38.4612H38.465H38.4688H38.4726H38.4764H38.4802H38.484H38.4878H38.4916H38.4954H38.4992H38.503H38.5069H38.5107H38.5145H38.5184H38.5222H38.526H38.5299H38.5337H38.5376H38.5415H38.5453H38.5492H38.553H38.5569H38.5608H38.5647H38.5685H38.5724H38.5763H38.5802H38.5841H38.588H38.5919H38.5958H38.5997H38.6036H38.6075H38.6114H38.6153H38.6193H38.6232H38.6271H38.631H38.635H38.6389H38.6428H38.6467H38.6507H38.6546H38.6586H38.6625H38.6665H38.6704H38.6744H38.6783H38.6823H38.6862H38.6902H38.6941H38.6981H38.7021H38.706H38.71H38.714H38.7179H38.7219H38.7259H38.7299H38.7338H38.7378H38.7418H38.7458H38.7498H38.7538H38.7577H38.7617H38.7657H38.7697H38.7737H38.7777H38.7817H38.7857H38.7897H38.7937H38.7977H38.8017H38.8057H38.8097H38.8137H38.8177H38.8217H38.8257H38.8297H38.8337H38.8377H38.8417H38.8457H38.8498H38.8538H38.8578H38.8618H38.8658H38.8698H38.8738H38.8778H38.8818H38.8859H38.8899H38.8939H38.8979H38.9019H38.9059H38.9099H38.914H38.918H38.922H38.926H38.93H38.934H38.938H38.942H38.9461H38.9501H38.9541H38.9581H38.9621H38.9661H38.9701H38.9741H38.9781H38.9822H38.9862H38.9902H38.9942H38.9982H39.0022H39.0062H39.0102H39.0142H39.0182H39.0222H39.0262H39.0302H39.0342H39.0382H39.0422H39.0462H39.0502H39.0542H39.0581H39.0621H39.0661H39.0701H39.0741H39.0781H39.0821H39.086H39.09H39.094H39.098H39.1019H39.1059H39.1099H39.1138H39.1178H39.1218H39.1257H39.1297H39.1337H39.1376H39.1416H39.1455H39.1495H39.1534H39.1574H39.1613H39.1652H39.1692H39.1731H39.1771H39.181H39.1849H39.1888H39.1928H39.1967H39.2006H39.2045H39.2084H39.2123H39.2163H39.2202H39.2241H39.228H39.2319H39.2358H39.2397H39.2435H39.2474H39.2513H39.2552H39.2591H39.2629H39.2668H39.2707H39.2745H39.2784H39.2823H39.2861H39.29H39.2938H39.2976H39.3015H39.3053H39.3092H39.313H39.3168H39.3206H39.3244H39.3283H39.3321H39.3359H39.3397H39.3435H39.3473H39.3511H39.3549H39.3586H39.3624H39.3662H39.37H39.3737H39.3775H39.3812H39.385H39.3887H39.3925H39.3962H39.4H39.4037H39.4074H39.4112H39.4149H39.4186H39.4223H39.426H39.4297H39.4334H39.4371H39.4408H39.4444H39.4481H39.4518H39.4555H39.4591H39.4628H39.4664H39.4701H39.4737H39.4773H39.481H39.4813V28.2002V28.2009V28.2016V28.2022V28.2029V28.2035V28.2042V28.2048V28.2055V28.2062V28.2068V28.2075V28.2081V28.2088V28.2094V28.2101V28.2107V28.2114V28.2121V28.2127V28.2134V28.214V28.2147V28.2153V28.216V28.2166V28.2173V28.2179V28.2186V28.2192V28.2199V28.2205V28.2212V28.2218V28.2225V28.2231V28.2238V28.2244V28.2251V28.2257V28.2264V28.227V28.2277V28.2283V28.229V28.2296V28.2303V28.2309V28.2315V28.2322V28.2328V28.2335V28.2341V28.2348V28.2354V28.2361V28.2367V28.2374V28.238V28.2386V28.2393V28.2399V28.2406V28.2412V28.2419V28.2425V28.2431V28.2438V28.2444V28.2451V28.2457V28.2464V28.247V28.2476V28.2483V28.2489V28.2496V28.2502V28.2508V28.2515V28.2521V28.2528V28.2534V28.254V28.2547V28.2553V28.256V28.2566V28.2572V28.2579V28.2585V28.2592V28.2598V28.2604V28.2611V28.2617V28.2623V28.263V28.2636V28.2643V28.2649V28.2655V28.2662V28.2668V28.2674V28.2681V28.2687V28.2693V28.27V28.2706V28.2712V28.2719V28.2725V28.2732V28.2738V28.2744V28.2751V28.2757V28.2763V28.277V28.2776V28.2782V28.2789V28.2795V28.2801V28.2808V28.2814V28.282V28.2827V28.2833V28.2839V28.2846V28.2852V28.2858V28.2865V28.2871V28.2877V28.2883V28.289V28.2896V28.2902V28.2909V28.2915V28.2921V28.2928V28.2934V28.294V28.2947V28.2953V28.2959V28.2965V28.2972V28.2978V28.2984V28.2991V28.2997V28.3003V28.301V28.3016V28.3022V28.3028V28.3035V28.3041V28.3047V28.3054V28.306V28.3066V28.3072V28.3079V28.3085V28.3091V28.3098V28.3104V28.311V28.3116V28.3123V28.3129V28.3135V28.3142V28.3148V28.3154V28.316V28.3167V28.3173V28.3179V28.3186V28.3192V28.3198V28.3204V28.3211V28.3217V28.3223V28.3229V28.3236V28.3242V28.3248V28.3255V28.3261V28.3267V28.3273V28.328V28.3286V28.3292V28.3298V28.3305V28.3311V28.3317V28.3324V28.333V28.3336V28.3342V28.3349V28.3355V28.3361V28.3367V28.3374V28.338V28.3386V28.3392V28.3399V28.3405V28.3411V28.3418V28.3424V28.343V28.3436V28.3443V28.3449V28.3455V28.3461V28.3468V28.3474C39.4813 28.3526 39.4813 28.3577 39.4813 28.3629C39.4811 28.4705 39.481 28.5796 39.5409 28.7016C39.7569 29.1583 40.0232 29.4819 40.5933 29.819C41.1481 30.1471 42.0004 30.4936 43.3884 31.0068C45.1566 31.6679 46.2779 32.1882 46.9556 32.6664C47.6225 33.137 47.8287 33.5432 47.83 33.9819C47.8258 34.0659 47.7937 34.177 47.7256 34.3142C47.6575 34.4515 47.5589 34.6037 47.4356 34.765C47.2854 34.9617 47.1024 35.1666 46.9022 35.368C47.0396 35.2 47.1508 35.0319 47.22 34.8665C47.4438 34.3542 47.2267 33.7809 46.8046 33.294C46.3761 32.7997 45.7004 32.3456 44.8822 32.0359C44.2246 31.7738 43.1338 31.5342 42.1152 31.3605C41.0954 31.1866 40.117 31.0737 39.6813 31.0737H39.4825L39.4813 31.2725Z" fill="white" stroke="white" stroke-width="0.4"/>
</svg>
