<svg width="67" height="24" viewBox="0 0 67 24" fill="none" xmlns="http://www.w3.org/2000/svg">
<g filter="url(#filter0_d)">
<path d="M8.268 15C7.68133 14.9927 7.146 14.89 6.662 14.692C6.178 14.4867 5.76 14.208 5.408 13.856C5.06333 13.504 4.79567 13.097 4.605 12.635C4.42167 12.173 4.33 11.678 4.33 11.15C4.33 10.622 4.42167 10.127 4.605 9.665C4.79567 9.203 5.06333 8.796 5.408 8.444C5.76 8.092 6.178 7.817 6.662 7.619C7.146 7.41367 7.68133 7.30733 8.268 7.3H9.258V8.235H8.301C7.751 8.235 7.256 8.36333 6.816 8.62C6.376 8.87667 6.02767 9.225 5.771 9.665C5.52167 10.105 5.397 10.6 5.397 11.15C5.397 11.7 5.52167 12.195 5.771 12.635C6.02767 13.075 6.376 13.4233 6.816 13.68C7.256 13.9293 7.751 14.0577 8.301 14.065H9.258V15H8.268ZM11.0804 15V10.985C11.0804 10.4863 11.2197 10.0977 11.4984 9.819C11.7844 9.533 12.1767 9.39 12.6754 9.39H13.8304V10.259H12.8624C12.6131 10.259 12.4224 10.3323 12.2904 10.479C12.1584 10.6183 12.0924 10.809 12.0924 11.051V15H11.0804ZM18.2747 15C17.6514 15 17.1014 14.8863 16.6247 14.659C16.1554 14.4243 15.7851 14.098 15.5137 13.68C15.2497 13.2547 15.1177 12.7597 15.1177 12.195C15.1177 11.6377 15.2314 11.139 15.4587 10.699C15.6861 10.2517 16.0014 9.89967 16.4047 9.643C16.8081 9.38633 17.2774 9.258 17.8127 9.258C18.3921 9.258 18.8724 9.38267 19.2537 9.632C19.6424 9.88133 19.9321 10.2187 20.1227 10.644C20.3134 11.062 20.4087 11.5313 20.4087 12.052C20.4087 12.228 20.3977 12.3893 20.3757 12.536H16.1957C16.2324 12.8807 16.3461 13.174 16.5367 13.416C16.7274 13.6507 16.9694 13.8303 17.2627 13.955C17.5634 14.0723 17.8934 14.131 18.2527 14.131H19.7157V15H18.2747ZM16.1847 11.821H19.3857C19.3857 11.579 19.3381 11.326 19.2427 11.062C19.1474 10.798 18.9861 10.5743 18.7587 10.391C18.5314 10.2003 18.2161 10.105 17.8127 10.105C17.4754 10.105 17.1857 10.193 16.9437 10.369C16.7091 10.5377 16.5257 10.754 16.3937 11.018C16.2691 11.2747 16.1994 11.5423 16.1847 11.821ZM22.2822 15V14.131H24.9662C25.2302 14.131 25.4355 14.0503 25.5822 13.889C25.7362 13.7203 25.8132 13.5297 25.8132 13.317C25.8132 13.119 25.7435 12.9467 25.6042 12.8C25.4722 12.646 25.2778 12.569 25.0212 12.569H23.8882C23.3455 12.569 22.9092 12.437 22.5792 12.173C22.2565 11.9017 22.0952 11.5093 22.0952 10.996C22.0952 10.71 22.1648 10.446 22.3042 10.204C22.4435 9.962 22.6378 9.76767 22.8872 9.621C23.1365 9.467 23.4225 9.39 23.7452 9.39H26.3302V10.259H23.8442C23.6242 10.259 23.4445 10.3323 23.3052 10.479C23.1732 10.6183 23.1072 10.7797 23.1072 10.963C23.1072 11.1463 23.1732 11.3077 23.3052 11.447C23.4445 11.579 23.6388 11.645 23.8882 11.645H24.9662C25.5675 11.645 26.0258 11.788 26.3412 12.074C26.6638 12.36 26.8252 12.7633 26.8252 13.284C26.8252 13.5847 26.7518 13.867 26.6052 14.131C26.4585 14.3877 26.2532 14.5967 25.9892 14.758C25.7252 14.9193 25.4245 15 25.0872 15H22.2822ZM31.537 15C30.9576 15 30.4406 14.8753 29.986 14.626C29.5313 14.3767 29.172 14.043 28.908 13.625C28.644 13.1997 28.512 12.723 28.512 12.195C28.512 11.667 28.644 11.194 28.908 10.776C29.172 10.3507 29.5313 10.0133 29.986 9.764C30.4406 9.51467 30.9576 9.39 31.537 9.39H32.197V10.259H31.504C31.13 10.259 30.7926 10.347 30.492 10.523C30.1986 10.6917 29.964 10.9227 29.788 11.216C29.6193 11.5093 29.535 11.8357 29.535 12.195C29.535 12.5543 29.6193 12.8807 29.788 13.174C29.964 13.4673 30.1986 13.702 30.492 13.878C30.7926 14.0467 31.13 14.131 31.504 14.131H32.197V15H31.537ZM36.8622 15C36.2388 15 35.6888 14.8863 35.2122 14.659C34.7428 14.4243 34.3725 14.098 34.1012 13.68C33.8372 13.2547 33.7052 12.7597 33.7052 12.195C33.7052 11.6377 33.8188 11.139 34.0462 10.699C34.2735 10.2517 34.5888 9.89967 34.9922 9.643C35.3955 9.38633 35.8648 9.258 36.4002 9.258C36.9795 9.258 37.4598 9.38267 37.8412 9.632C38.2298 9.88133 38.5195 10.2187 38.7102 10.644C38.9008 11.062 38.9962 11.5313 38.9962 12.052C38.9962 12.228 38.9852 12.3893 38.9632 12.536H34.7832C34.8198 12.8807 34.9335 13.174 35.1242 13.416C35.3148 13.6507 35.5568 13.8303 35.8502 13.955C36.1508 14.0723 36.4808 14.131 36.8402 14.131H38.3032V15H36.8622ZM34.7722 11.821H37.9732C37.9732 11.579 37.9255 11.326 37.8302 11.062C37.7348 10.798 37.5735 10.5743 37.3462 10.391C37.1188 10.2003 36.8035 10.105 36.4002 10.105C36.0628 10.105 35.7732 10.193 35.5312 10.369C35.2965 10.5377 35.1132 10.754 34.9812 11.018C34.8565 11.2747 34.7868 11.5423 34.7722 11.821ZM40.9466 15V11.755C40.9466 11.2563 41.0566 10.82 41.2766 10.446C41.5039 10.072 41.8156 9.78233 42.2116 9.577C42.6076 9.36433 43.0586 9.258 43.5646 9.258C44.0779 9.258 44.5289 9.36433 44.9176 9.577C45.3136 9.78233 45.6216 10.072 45.8416 10.446C46.0689 10.82 46.1826 11.2563 46.1826 11.755V15H45.1706V11.766C45.1706 11.4287 45.0936 11.139 44.9396 10.897C44.7929 10.6477 44.5949 10.457 44.3456 10.325C44.1036 10.193 43.8433 10.127 43.5646 10.127C43.2859 10.127 43.0219 10.193 42.7726 10.325C42.5306 10.457 42.3326 10.6477 42.1786 10.897C42.0319 11.139 41.9586 11.4287 41.9586 11.766V15H40.9466ZM51.0344 15.132C51.577 15.132 52.0647 15.0147 52.4974 14.78C52.93 14.5453 53.271 14.208 53.5204 13.768C53.777 13.3207 53.9054 12.7853 53.9054 12.162V6.97H52.8934V10.391H52.8714C52.688 10.0537 52.4167 9.78233 52.0574 9.577C51.698 9.36433 51.302 9.258 50.8694 9.258C50.356 9.258 49.8904 9.37533 49.4724 9.61C49.0617 9.84467 48.7354 10.1783 48.4934 10.611C48.2587 11.0363 48.1414 11.5423 48.1414 12.129C48.1414 12.745 48.2624 13.2803 48.5044 13.735C48.7537 14.1823 49.0947 14.527 49.5274 14.769C49.9674 15.011 50.4697 15.132 51.0344 15.132ZM51.0344 14.263C50.6897 14.263 50.3744 14.1787 50.0884 14.01C49.8097 13.8413 49.586 13.603 49.4174 13.295C49.2487 12.987 49.1644 12.6203 49.1644 12.195C49.1644 11.7843 49.245 11.425 49.4064 11.117C49.575 10.809 49.7987 10.567 50.0774 10.391C50.3634 10.215 50.6787 10.127 51.0234 10.127C51.368 10.127 51.6797 10.2113 51.9584 10.38C52.2444 10.5487 52.468 10.7907 52.6294 11.106C52.798 11.414 52.8824 11.7807 52.8824 12.206C52.8824 12.624 52.798 12.987 52.6294 13.295C52.468 13.603 52.248 13.8413 51.9694 14.01C51.6907 14.1787 51.379 14.263 51.0344 14.263ZM58.7748 15.132C58.2028 15.132 57.6931 15.0037 57.2458 14.747C56.8058 14.483 56.4574 14.131 56.2008 13.691C55.9514 13.2437 55.8268 12.745 55.8268 12.195C55.8268 11.645 55.9514 11.15 56.2008 10.71C56.4574 10.2627 56.8058 9.91067 57.2458 9.654C57.6931 9.39 58.2028 9.258 58.7748 9.258C59.3468 9.258 59.8528 9.39 60.2928 9.654C60.7401 9.91067 61.0884 10.2627 61.3378 10.71C61.5944 11.15 61.7228 11.645 61.7228 12.195C61.7228 12.745 61.5944 13.2437 61.3378 13.691C61.0884 14.131 60.7401 14.483 60.2928 14.747C59.8528 15.0037 59.3468 15.132 58.7748 15.132ZM58.7748 14.263C59.1634 14.263 59.5008 14.1713 59.7868 13.988C60.0728 13.8047 60.2964 13.559 60.4578 13.251C60.6191 12.9357 60.6998 12.5837 60.6998 12.195C60.6998 11.8063 60.6191 11.458 60.4578 11.15C60.2964 10.8347 60.0728 10.5853 59.7868 10.402C59.5008 10.2187 59.1634 10.127 58.7748 10.127C58.3934 10.127 58.0561 10.2187 57.7628 10.402C57.4768 10.5853 57.2531 10.8347 57.0918 11.15C56.9304 11.458 56.8498 11.8063 56.8498 12.195C56.8498 12.5837 56.9304 12.9357 57.0918 13.251C57.2531 13.559 57.4768 13.8047 57.7628 13.988C58.0561 14.1713 58.3934 14.263 58.7748 14.263Z" fill="black"/>
<path d="M8.268 15L8.26425 15.3H8.268V15ZM6.662 14.692L6.54483 14.9682L6.54841 14.9697L6.662 14.692ZM5.408 13.856L5.19364 14.0659L5.19587 14.0681L5.408 13.856ZM4.605 12.635L4.32613 12.7457L4.32769 12.7494L4.605 12.635ZM4.605 9.665L4.32766 9.55054L4.32615 9.55435L4.605 9.665ZM5.408 8.444L5.19586 8.23186L5.19365 8.23411L5.408 8.444ZM6.662 7.619L6.7756 7.89669L6.77917 7.89517L6.662 7.619ZM8.268 7.3V6.99998L8.26425 7.00002L8.268 7.3ZM9.258 7.3H9.558V7H9.258V7.3ZM9.258 8.235V8.535H9.558V8.235H9.258ZM6.816 8.62L6.66484 8.36087L6.66484 8.36087L6.816 8.62ZM5.771 9.665L5.51185 9.51383L5.50999 9.5171L5.771 9.665ZM5.771 12.635L5.50997 12.7829L5.51187 12.7862L5.771 12.635ZM6.816 13.68L6.66483 13.9392L6.6681 13.941L6.816 13.68ZM8.301 14.065L8.297 14.365H8.301V14.065ZM9.258 14.065H9.558V13.765H9.258V14.065ZM9.258 15V15.3H9.558V15H9.258ZM8.27175 14.7C7.7182 14.6931 7.2207 14.5964 6.77559 14.4143L6.54841 14.9697C7.0713 15.1836 7.64447 15.2922 8.26425 15.3L8.27175 14.7ZM6.77917 14.4158C6.32862 14.2247 5.94337 13.9671 5.62013 13.6439L5.19587 14.0681C5.57663 14.4489 6.02738 14.7486 6.54484 14.9682L6.77917 14.4158ZM5.62235 13.6461C5.30499 13.322 5.05852 12.9475 4.88231 12.5206L4.32769 12.7494C4.53281 13.2465 4.82167 13.686 5.19365 14.0659L5.62235 13.6461ZM4.88385 12.5243C4.71534 12.0997 4.63 11.6425 4.63 11.15H4.03C4.03 11.7135 4.12799 12.2463 4.32615 12.7457L4.88385 12.5243ZM4.63 11.15C4.63 10.6575 4.71534 10.2003 4.88385 9.77565L4.32615 9.55435C4.12799 10.0537 4.03 10.5865 4.03 11.15H4.63ZM4.88231 9.77945C5.05852 9.35247 5.30499 8.978 5.62235 8.65389L5.19365 8.23411C4.82167 8.614 4.53281 9.05353 4.32769 9.55055L4.88231 9.77945ZM5.62013 8.65613C5.94255 8.33371 6.32657 8.08035 6.77559 7.89666L6.54841 7.34134C6.02943 7.55365 5.57745 7.85029 5.19587 8.23187L5.62013 8.65613ZM6.77917 7.89517C7.22333 7.70674 7.71956 7.60688 8.27175 7.59998L8.26425 7.00002C7.64311 7.00779 7.06867 7.12059 6.54484 7.34283L6.77917 7.89517ZM8.268 7.6H9.258V7H8.268V7.6ZM8.958 7.3V8.235H9.558V7.3H8.958ZM9.258 7.935H8.301V8.535H9.258V7.935ZM8.301 7.935C7.70226 7.935 7.15436 8.07531 6.66484 8.36087L6.96716 8.87913C7.35764 8.65135 7.79974 8.535 8.301 8.535V7.935ZM6.66484 8.36087C6.18014 8.64361 5.79461 9.02914 5.51187 9.51384L6.03013 9.81616C6.26072 9.42086 6.57186 9.10972 6.96716 8.87913L6.66484 8.36087ZM5.50999 9.5171C5.23289 10.0061 5.097 10.5528 5.097 11.15H5.697C5.697 10.6472 5.81044 10.2039 6.03201 9.8129L5.50999 9.5171ZM5.097 11.15C5.097 11.7472 5.23289 12.2939 5.50999 12.7829L6.03201 12.4871C5.81044 12.0961 5.697 11.6528 5.697 11.15H5.097ZM5.51187 12.7862C5.79461 13.2709 6.18014 13.6564 6.66484 13.9391L6.96716 13.4209C6.57186 13.1903 6.26072 12.8791 6.03013 12.4838L5.51187 12.7862ZM6.6681 13.941C7.15581 14.2174 7.70106 14.357 8.297 14.365L8.305 13.765C7.80094 13.7583 7.35619 13.6413 6.9639 13.419L6.6681 13.941ZM8.301 14.365H9.258V13.765H8.301V14.365ZM8.958 14.065V15H9.558V14.065H8.958ZM9.258 14.7H8.268V15.3H9.258V14.7ZM11.0804 15H10.7804V15.3H11.0804V15ZM11.4984 9.819L11.7105 10.0311L11.7105 10.0311L11.4984 9.819ZM13.8304 9.39H14.1304V9.09H13.8304V9.39ZM13.8304 10.259V10.559H14.1304V10.259H13.8304ZM12.2904 10.479L12.5082 10.6854L12.5134 10.6797L12.2904 10.479ZM12.0924 15V15.3H12.3924V15H12.0924ZM11.3804 15V10.985H10.7804V15H11.3804ZM11.3804 10.985C11.3804 10.5437 11.5021 10.2396 11.7105 10.0311L11.2863 9.60687C10.9374 9.95576 10.7804 10.429 10.7804 10.985H11.3804ZM11.7105 10.0311C11.9277 9.81392 12.2366 9.69 12.6754 9.69V9.09C12.1168 9.09 11.641 9.25208 11.2863 9.60687L11.7105 10.0311ZM12.6754 9.69H13.8304V9.09H12.6754V9.69ZM13.5304 9.39V10.259H14.1304V9.39H13.5304ZM13.8304 9.959H12.8624V10.559H13.8304V9.959ZM12.8624 9.959C12.552 9.959 12.2706 10.0526 12.0674 10.2783L12.5134 10.6797C12.5742 10.6121 12.6741 10.559 12.8624 10.559V9.959ZM12.0726 10.2727C11.875 10.4813 11.7924 10.7532 11.7924 11.051H12.3924C12.3924 10.8648 12.4418 10.7554 12.5082 10.6853L12.0726 10.2727ZM11.7924 11.051V15H12.3924V11.051H11.7924ZM12.0924 14.7H11.0804V15.3H12.0924V14.7ZM16.6247 14.659L16.4905 14.9274L16.4956 14.9298L16.6247 14.659ZM15.5137 13.68L15.2588 13.8382L15.2621 13.8433L15.5137 13.68ZM15.4587 10.699L15.7253 10.8367L15.7262 10.8349L15.4587 10.699ZM16.4047 9.643L16.2437 9.3899L16.2437 9.3899L16.4047 9.643ZM19.2537 9.632L19.0896 9.8831L19.0917 9.88451L19.2537 9.632ZM20.1227 10.644L19.849 10.7667L19.8498 10.7685L20.1227 10.644ZM20.3757 12.536V12.836H20.6341L20.6724 12.5805L20.3757 12.536ZM16.1957 12.536V12.236H15.8621L15.8974 12.5677L16.1957 12.536ZM16.5367 13.416L16.3011 13.6017L16.3039 13.6052L16.5367 13.416ZM17.2627 13.955L17.1453 14.2312L17.1537 14.2345L17.2627 13.955ZM19.7157 14.131H20.0157V13.831H19.7157V14.131ZM19.7157 15V15.3H20.0157V15H19.7157ZM16.1847 11.821L15.8851 11.8052L15.8685 12.121H16.1847V11.821ZM19.3857 11.821V12.121H19.6857V11.821H19.3857ZM19.2427 11.062L18.9606 11.1639L18.9606 11.1639L19.2427 11.062ZM18.7587 10.391L18.5659 10.6209L18.5704 10.6245L18.7587 10.391ZM16.9437 10.369L17.1188 10.6126L17.1202 10.6116L16.9437 10.369ZM16.3937 11.018L16.1254 10.8838L16.1239 10.8869L16.3937 11.018ZM18.2747 14.7C17.6881 14.7 17.1836 14.5931 16.7539 14.3882L16.4956 14.9298C17.0192 15.1795 17.6147 15.3 18.2747 15.3V14.7ZM16.7589 14.3907C16.3347 14.1786 16.006 13.8874 15.7654 13.5167L15.2621 13.8433C15.5641 14.3086 15.9761 14.6701 16.4906 14.9273L16.7589 14.3907ZM15.7686 13.5218C15.5378 13.1498 15.4177 12.7111 15.4177 12.195H14.8177C14.8177 12.8082 14.9617 13.3595 15.2588 13.8382L15.7686 13.5218ZM15.4177 12.195C15.4177 11.6795 15.5226 11.229 15.7253 10.8367L15.1922 10.5613C14.9402 11.049 14.8177 11.5958 14.8177 12.195H15.4177ZM15.7262 10.8349C15.9304 10.433 16.2101 10.1225 16.5658 9.8961L16.2437 9.3899C15.7927 9.67686 15.4417 10.0703 15.1913 10.5631L15.7262 10.8349ZM16.5658 9.8961C16.9154 9.67364 17.3274 9.558 17.8127 9.558V8.958C17.2274 8.958 16.7008 9.09903 16.2437 9.3899L16.5658 9.8961ZM17.8127 9.558C18.3495 9.558 18.7687 9.67331 19.0896 9.88309L19.4179 9.38091C18.9761 9.09202 18.4346 8.958 17.8127 8.958V9.558ZM19.0917 9.88451C19.4308 10.102 19.6819 10.3941 19.849 10.7667L20.3965 10.5213C20.1822 10.0433 19.854 9.66062 19.4157 9.37949L19.0917 9.88451ZM19.8498 10.7685C20.0204 11.1425 20.1087 11.5686 20.1087 12.052H20.7087C20.7087 11.4941 20.6064 10.9815 20.3957 10.5195L19.8498 10.7685ZM20.1087 12.052C20.1087 12.2158 20.0985 12.362 20.0791 12.4915L20.6724 12.5805C20.697 12.4167 20.7087 12.2402 20.7087 12.052H20.1087ZM20.3757 12.236H16.1957V12.836H20.3757V12.236ZM15.8974 12.5677C15.9393 12.9614 16.0712 13.3099 16.3011 13.6017L16.7724 13.2303C16.6209 13.0381 16.5255 12.8 16.4941 12.5043L15.8974 12.5677ZM16.3039 13.6052C16.5271 13.8799 16.8096 14.0884 17.1454 14.2311L17.3801 13.6789C17.1292 13.5723 16.9277 13.4215 16.7696 13.2268L16.3039 13.6052ZM17.1537 14.2345C17.4928 14.3668 17.8603 14.431 18.2527 14.431V13.831C17.9265 13.831 17.634 13.7778 17.3718 13.6755L17.1537 14.2345ZM18.2527 14.431H19.7157V13.831H18.2527V14.431ZM19.4157 14.131V15H20.0157V14.131H19.4157ZM19.7157 14.7H18.2747V15.3H19.7157V14.7ZM16.1847 12.121H19.3857V11.521H16.1847V12.121ZM19.6857 11.821C19.6857 11.5392 19.6302 11.2517 19.5249 10.9601L18.9606 11.1639C19.046 11.4003 19.0857 11.6188 19.0857 11.821H19.6857ZM19.5249 10.9601C19.4101 10.6423 19.2153 10.3738 18.9471 10.1575L18.5704 10.6245C18.7568 10.7749 18.8847 10.9537 18.9606 11.1639L19.5249 10.9601ZM18.9515 10.1611C18.6535 9.91118 18.2612 9.805 17.8127 9.805V10.405C18.1709 10.405 18.4093 10.4895 18.566 10.6209L18.9515 10.1611ZM17.8127 9.805C17.4204 9.805 17.067 9.90842 16.7673 10.1264L17.1202 10.6116C17.3045 10.4776 17.5304 10.405 17.8127 10.405V9.805ZM16.7686 10.1254C16.4936 10.3231 16.2787 10.5773 16.1254 10.8838L16.6621 11.1522C16.7728 10.9307 16.9245 10.7523 17.1188 10.6126L16.7686 10.1254ZM16.1239 10.8869C15.9821 11.1788 15.902 11.4856 15.8851 11.8052L16.4843 11.8368C16.4968 11.5991 16.556 11.3705 16.6636 11.1491L16.1239 10.8869ZM22.2822 15H21.9822V15.3H22.2822V15ZM22.2822 14.131V13.831H21.9822V14.131H22.2822ZM25.5822 13.889L25.3606 13.6867L25.3602 13.6872L25.5822 13.889ZM25.6042 12.8L25.3764 12.9952L25.3814 13.0011L25.3867 13.0066L25.6042 12.8ZM22.5792 12.173L22.386 12.4027L22.3918 12.4073L22.5792 12.173ZM22.3042 10.204L22.0442 10.0543L22.3042 10.204ZM22.8872 9.621L23.0393 9.87964L23.0448 9.87624L22.8872 9.621ZM26.3302 9.39H26.6302V9.09H26.3302V9.39ZM26.3302 10.259V10.559H26.6302V10.259H26.3302ZM23.3052 10.479L23.0877 10.2724L23.0874 10.2727L23.3052 10.479ZM23.3052 11.447L23.0874 11.6533L23.093 11.6592L23.0988 11.6648L23.3052 11.447ZM26.3412 12.074L26.1396 12.2962L26.1422 12.2985L26.3412 12.074ZM26.6052 14.131L26.8657 14.2799L26.8674 14.2767L26.6052 14.131ZM25.9892 14.758L26.1456 15.014L26.1456 15.014L25.9892 14.758ZM22.5822 15V14.131H21.9822V15H22.5822ZM22.2822 14.431H24.9662V13.831H22.2822V14.431ZM24.9662 14.431C25.2954 14.431 25.5888 14.3277 25.8042 14.0908L25.3602 13.6872C25.2822 13.773 25.165 13.831 24.9662 13.831V14.431ZM25.8037 14.0913C26.0041 13.8718 26.1132 13.6103 26.1132 13.317H25.5132C25.5132 13.449 25.4682 13.5689 25.3606 13.6867L25.8037 14.0913ZM26.1132 13.317C26.1132 13.0403 26.0127 12.7945 25.8217 12.5934L25.3867 13.0066C25.4743 13.0989 25.5132 13.1977 25.5132 13.317H26.1132ZM25.8319 12.6048C25.6284 12.3673 25.3403 12.269 25.0212 12.269V12.869C25.2153 12.869 25.3159 12.9247 25.3764 12.9952L25.8319 12.6048ZM25.0212 12.269H23.8882V12.869H25.0212V12.269ZM23.8882 12.269C23.394 12.269 23.0299 12.1494 22.7666 11.9387L22.3918 12.4073C22.7885 12.7246 23.297 12.869 23.8882 12.869V12.269ZM22.7723 11.9434C22.532 11.7414 22.3952 11.4419 22.3952 10.996H21.7952C21.7952 11.5768 21.981 12.0619 22.3861 12.4026L22.7723 11.9434ZM22.3952 10.996C22.3952 10.7612 22.4517 10.549 22.5642 10.3537L22.0442 10.0543C21.878 10.343 21.7952 10.6588 21.7952 10.996H22.3952ZM22.5642 10.3537C22.6766 10.1584 22.8331 10.0009 23.0393 9.87958L22.7351 9.36242C22.4426 9.53444 22.2104 9.76563 22.0442 10.0543L22.5642 10.3537ZM23.0448 9.87624C23.2421 9.75441 23.4724 9.69 23.7452 9.69V9.09C23.3726 9.09 23.0309 9.17959 22.7295 9.36576L23.0448 9.87624ZM23.7452 9.69H26.3302V9.09H23.7452V9.69ZM26.0302 9.39V10.259H26.6302V9.39H26.0302ZM26.3302 9.959H23.8442V10.559H26.3302V9.959ZM23.8442 9.959C23.5499 9.959 23.2889 10.0605 23.0877 10.2724L23.5227 10.6856C23.6001 10.6041 23.6984 10.559 23.8442 10.559V9.959ZM23.0874 10.2727C22.9053 10.4648 22.8072 10.699 22.8072 10.963H23.4072C23.4072 10.8603 23.441 10.7718 23.523 10.6853L23.0874 10.2727ZM22.8072 10.963C22.8072 11.227 22.9053 11.4612 23.0874 11.6533L23.523 11.2407C23.441 11.1542 23.4072 11.0657 23.4072 10.963H22.8072ZM23.0988 11.6648C23.309 11.8639 23.5858 11.945 23.8882 11.945V11.345C23.6919 11.345 23.58 11.2941 23.5115 11.2292L23.0988 11.6648ZM23.8882 11.945H24.9662V11.345H23.8882V11.945ZM24.9662 11.945C25.5236 11.945 25.8986 12.0776 26.1396 12.2962L26.5427 11.8518C26.1531 11.4984 25.6114 11.345 24.9662 11.345V11.945ZM26.1422 12.2985C26.3874 12.5158 26.5252 12.8298 26.5252 13.284H27.1252C27.1252 12.6969 26.9403 12.2042 26.5402 11.8495L26.1422 12.2985ZM26.5252 13.284C26.5252 13.5334 26.4649 13.7657 26.3429 13.9853L26.8674 14.2767C27.0387 13.9683 27.1252 13.6359 27.1252 13.284H26.5252ZM26.3447 13.9822C26.2243 14.1928 26.0557 14.3658 25.8327 14.502L26.1456 15.014C26.4507 14.8276 26.6927 14.5825 26.8656 14.2798L26.3447 13.9822ZM25.8327 14.502C25.6201 14.632 25.3745 14.7 25.0872 14.7V15.3C25.4745 15.3 25.8303 15.2067 26.1456 15.014L25.8327 14.502ZM25.0872 14.7H22.2822V15.3H25.0872V14.7ZM29.986 14.626L29.8417 14.889L29.8417 14.889L29.986 14.626ZM28.908 13.625L28.6531 13.7832L28.6543 13.7852L28.908 13.625ZM28.908 10.776L29.1616 10.9362L29.1628 10.9342L28.908 10.776ZM29.986 9.764L30.1302 10.027L30.1302 10.027L29.986 9.764ZM32.197 9.39H32.497V9.09H32.197V9.39ZM32.197 10.259V10.559H32.497V10.259H32.197ZM30.492 10.523L30.6415 10.7831L30.6435 10.7819L30.492 10.523ZM29.788 11.216L29.5307 11.0616L29.5279 11.0665L29.788 11.216ZM29.788 13.174L29.5278 13.3236L29.5307 13.3283L29.788 13.174ZM30.492 13.878L30.3375 14.1354L30.3452 14.1396L30.492 13.878ZM32.197 14.131H32.497V13.831H32.197V14.131ZM32.197 15V15.3H32.497V15H32.197ZM31.537 14.7C31.002 14.7 30.5357 14.5853 30.1302 14.363L29.8417 14.889C30.3456 15.1654 30.9132 15.3 31.537 15.3V14.7ZM30.1302 14.363C29.7179 14.1368 29.3971 13.8377 29.1616 13.4648L28.6543 13.7852C28.9468 14.2483 29.3447 14.6165 29.8417 14.889L30.1302 14.363ZM29.1628 13.4668C28.93 13.0916 28.812 12.6703 28.812 12.195H28.212C28.212 12.7757 28.3579 13.3077 28.6531 13.7832L29.1628 13.4668ZM28.812 12.195C28.812 11.7197 28.93 11.303 29.1616 10.9362L28.6543 10.6158C28.3579 11.085 28.212 11.6143 28.212 12.195H28.812ZM29.1628 10.9342C29.3986 10.5544 29.7191 10.2525 30.1302 10.027L29.8417 9.50096C29.3434 9.7742 28.9453 10.147 28.6531 10.6178L29.1628 10.9342ZM30.1302 10.027C30.5357 9.80469 31.002 9.69 31.537 9.69V9.09C30.9132 9.09 30.3456 9.22464 29.8417 9.50096L30.1302 10.027ZM31.537 9.69H32.197V9.09H31.537V9.69ZM31.897 9.39V10.259H32.497V9.39H31.897ZM32.197 9.959H31.504V10.559H32.197V9.959ZM31.504 9.959C31.0807 9.959 30.6904 10.0592 30.3404 10.2641L30.6435 10.7819C30.8948 10.6348 31.1792 10.559 31.504 10.559V9.959ZM30.3424 10.2629C30.0042 10.4574 29.7327 10.725 29.5307 11.0617L30.0452 11.3703C30.1952 11.1204 30.393 10.926 30.6415 10.7831L30.3424 10.2629ZM29.5279 11.0665C29.3314 11.4081 29.235 11.7866 29.235 12.195H29.835C29.835 11.8848 29.9071 11.6105 30.048 11.3655L29.5279 11.0665ZM29.235 12.195C29.235 12.6034 29.3314 12.9819 29.5279 13.3235L30.048 13.0245C29.9071 12.7795 29.835 12.5052 29.835 12.195H29.235ZM29.5307 13.3283C29.732 13.6639 30.002 13.9339 30.3376 14.1352L30.6463 13.6208C30.3952 13.4701 30.1959 13.2708 30.0452 13.0197L29.5307 13.3283ZM30.3452 14.1396C30.6944 14.3356 31.083 14.431 31.504 14.431V13.831C31.1769 13.831 30.8908 13.7578 30.6387 13.6164L30.3452 14.1396ZM31.504 14.431H32.197V13.831H31.504V14.431ZM31.897 14.131V15H32.497V14.131H31.897ZM32.197 14.7H31.537V15.3H32.197V14.7ZM35.2122 14.659L35.078 14.9274L35.083 14.9298L35.2122 14.659ZM34.1012 13.68L33.8462 13.8382L33.8495 13.8433L34.1012 13.68ZM34.0462 10.699L34.3127 10.8367L34.3136 10.8349L34.0462 10.699ZM34.9922 9.643L34.8311 9.3899L34.8311 9.3899L34.9922 9.643ZM37.8412 9.632L37.677 9.8831L37.6792 9.88451L37.8412 9.632ZM38.7102 10.644L38.4364 10.7667L38.4372 10.7685L38.7102 10.644ZM38.9632 12.536V12.836H39.2215L39.2598 12.5805L38.9632 12.536ZM34.7832 12.536V12.236H34.4495L34.4848 12.5677L34.7832 12.536ZM35.1242 13.416L34.8885 13.6017L34.8913 13.6052L35.1242 13.416ZM35.8502 13.955L35.7328 14.2312L35.7411 14.2345L35.8502 13.955ZM38.3032 14.131H38.6032V13.831H38.3032V14.131ZM38.3032 15V15.3H38.6032V15H38.3032ZM34.7722 11.821L34.4726 11.8052L34.456 12.121H34.7722V11.821ZM37.9732 11.821V12.121H38.2732V11.821H37.9732ZM37.8302 11.062L37.548 11.1639L37.548 11.1639L37.8302 11.062ZM37.3462 10.391L37.1533 10.6209L37.1578 10.6245L37.3462 10.391ZM35.5312 10.369L35.7062 10.6126L35.7076 10.6116L35.5312 10.369ZM34.9812 11.018L34.7128 10.8838L34.7113 10.8869L34.9812 11.018ZM36.8622 14.7C36.2755 14.7 35.771 14.5931 35.3413 14.3882L35.083 14.9298C35.6067 15.1795 36.2021 15.3 36.8622 15.3V14.7ZM35.3463 14.3907C34.9222 14.1786 34.5935 13.8874 34.3528 13.5167L33.8495 13.8433C34.1515 14.3086 34.5635 14.6701 35.078 14.9273L35.3463 14.3907ZM34.356 13.5218C34.1252 13.1498 34.0052 12.7111 34.0052 12.195H33.4052C33.4052 12.8082 33.5491 13.3595 33.8463 13.8382L34.356 13.5218ZM34.0052 12.195C34.0052 11.6795 34.11 11.229 34.3127 10.8367L33.7796 10.5613C33.5277 11.049 33.4052 11.5958 33.4052 12.195H34.0052ZM34.3136 10.8349C34.5179 10.433 34.7975 10.1225 35.1532 9.8961L34.8311 9.3899C34.3802 9.67686 34.0291 10.0703 33.7787 10.5631L34.3136 10.8349ZM35.1532 9.8961C35.5028 9.67364 35.9148 9.558 36.4002 9.558V8.958C35.8148 8.958 35.2882 9.09903 34.8311 9.3899L35.1532 9.8961ZM36.4002 9.558C36.9369 9.558 37.3561 9.67331 37.677 9.88309L38.0053 9.38091C37.5635 9.09202 37.0221 8.958 36.4002 8.958V9.558ZM37.6792 9.88451C38.0183 10.102 38.2693 10.3941 38.4364 10.7667L38.9839 10.5213C38.7696 10.0433 38.4414 9.66062 38.0031 9.37949L37.6792 9.88451ZM38.4372 10.7685C38.6078 11.1425 38.6962 11.5686 38.6962 12.052H39.2962C39.2962 11.4941 39.1938 10.9815 38.9831 10.5195L38.4372 10.7685ZM38.6962 12.052C38.6962 12.2158 38.6859 12.362 38.6665 12.4915L39.2598 12.5805C39.2844 12.4167 39.2962 12.2402 39.2962 12.052H38.6962ZM38.9632 12.236H34.7832V12.836H38.9632V12.236ZM34.4848 12.5677C34.5267 12.9614 34.6586 13.3099 34.8885 13.6017L35.3598 13.2303C35.2083 13.0381 35.1129 12.8 35.0815 12.5043L34.4848 12.5677ZM34.8913 13.6052C35.1145 13.8799 35.397 14.0884 35.7328 14.2311L35.9675 13.6789C35.7167 13.5723 35.5151 13.4215 35.357 13.2268L34.8913 13.6052ZM35.7411 14.2345C36.0802 14.3668 36.4477 14.431 36.8402 14.431V13.831C36.5139 13.831 36.2214 13.7778 35.9592 13.6755L35.7411 14.2345ZM36.8402 14.431H38.3032V13.831H36.8402V14.431ZM38.0032 14.131V15H38.6032V14.131H38.0032ZM38.3032 14.7H36.8622V15.3H38.3032V14.7ZM34.7722 12.121H37.9732V11.521H34.7722V12.121ZM38.2732 11.821C38.2732 11.5392 38.2176 11.2517 38.1123 10.9601L37.548 11.1639C37.6334 11.4003 37.6732 11.6188 37.6732 11.821H38.2732ZM38.1123 10.9601C37.9976 10.6423 37.8027 10.3738 37.5345 10.1575L37.1578 10.6245C37.3442 10.7749 37.4721 10.9537 37.548 11.1639L38.1123 10.9601ZM37.5389 10.1611C37.2409 9.91118 36.8487 9.805 36.4002 9.805V10.405C36.7583 10.405 36.9967 10.4895 37.1534 10.6209L37.5389 10.1611ZM36.4002 9.805C36.0078 9.805 35.6544 9.90842 35.3547 10.1264L35.7076 10.6116C35.8919 10.4776 36.1178 10.405 36.4002 10.405V9.805ZM35.3561 10.1254C35.081 10.3231 34.8661 10.5773 34.7128 10.8838L35.2495 11.1522C35.3602 10.9307 35.5119 10.7523 35.7062 10.6126L35.3561 10.1254ZM34.7113 10.8869C34.5695 11.1788 34.4894 11.4856 34.4726 11.8052L35.0717 11.8368C35.0843 11.5991 35.1435 11.3705 35.251 11.1491L34.7113 10.8869ZM40.9466 15H40.6466V15.3H40.9466V15ZM41.2766 10.446L41.0202 10.2902L41.018 10.2939L41.2766 10.446ZM42.2116 9.577L42.3497 9.84335L42.3535 9.8413L42.2116 9.577ZM44.9176 9.577L44.7736 9.84024L44.7795 9.84333L44.9176 9.577ZM45.8416 10.446L45.583 10.5981L45.5852 10.6018L45.8416 10.446ZM46.1826 15V15.3H46.4826V15H46.1826ZM45.1706 15H44.8706V15.3H45.1706V15ZM44.9396 10.897L44.6809 11.0492L44.6865 11.0581L44.9396 10.897ZM44.3456 10.325L44.2019 10.5884L44.2052 10.5901L44.3456 10.325ZM42.7726 10.325L42.6322 10.0598L42.6289 10.0616L42.7726 10.325ZM42.1786 10.897L41.9233 10.7393L41.922 10.7415L42.1786 10.897ZM41.9586 15V15.3H42.2586V15H41.9586ZM41.2466 15V11.755H40.6466V15H41.2466ZM41.2466 11.755C41.2466 11.3017 41.3461 10.9195 41.5352 10.5981L41.018 10.2939C40.7671 10.7205 40.6466 11.211 40.6466 11.755H41.2466ZM41.5329 10.6018C41.7312 10.2757 42.0015 10.0239 42.3497 9.84333L42.0735 9.31067C41.6297 9.5408 41.2767 9.86826 41.0202 10.2902L41.5329 10.6018ZM42.3535 9.8413C42.7006 9.65488 43.1018 9.558 43.5646 9.558V8.958C43.0154 8.958 42.5145 9.07378 42.0697 9.3127L42.3535 9.8413ZM43.5646 9.558C44.0356 9.558 44.4356 9.65526 44.7736 9.84018L45.0616 9.31382C44.6222 9.07341 44.1202 8.958 43.5646 8.958V9.558ZM44.7795 9.84333C45.1269 10.0234 45.3925 10.2742 45.583 10.5981L46.1002 10.2939C45.8507 9.86983 45.5003 9.54122 45.0557 9.31067L44.7795 9.84333ZM45.5852 10.6018C45.7802 10.9226 45.8826 11.3035 45.8826 11.755H46.4826C46.4826 11.2092 46.3576 10.7174 46.0979 10.2902L45.5852 10.6018ZM45.8826 11.755V15H46.4826V11.755H45.8826ZM46.1826 14.7H45.1706V15.3H46.1826V14.7ZM45.4706 15V11.766H44.8706V15H45.4706ZM45.4706 11.766C45.4706 11.3818 45.3824 11.034 45.1927 10.7359L44.6865 11.0581C44.8048 11.244 44.8706 11.4755 44.8706 11.766H45.4706ZM45.1982 10.7449C45.0241 10.4489 44.7857 10.2186 44.486 10.0599L44.2052 10.5901C44.4042 10.6954 44.5618 10.8464 44.681 11.0491L45.1982 10.7449ZM44.4892 10.0616C44.2027 9.90532 43.8929 9.827 43.5646 9.827V10.427C43.7936 10.427 44.0045 10.4807 44.2019 10.5884L44.4892 10.0616ZM43.5646 9.827C43.2364 9.827 42.9242 9.90526 42.6322 10.0599L42.913 10.5901C43.1196 10.4807 43.3355 10.427 43.5646 10.427V9.827ZM42.6289 10.0616C42.3383 10.2202 42.1029 10.4486 41.9234 10.7394L42.4338 11.0546C42.5622 10.8467 42.7229 10.6938 42.9162 10.5884L42.6289 10.0616ZM41.922 10.7415C41.7419 11.0387 41.6586 11.3845 41.6586 11.766H42.2586C42.2586 11.4729 42.3219 11.2393 42.4352 11.0525L41.922 10.7415ZM41.6586 11.766V15H42.2586V11.766H41.6586ZM41.9586 14.7H40.9466V15.3H41.9586V14.7ZM52.4974 14.78L52.3543 14.5163L52.3543 14.5163L52.4974 14.78ZM53.5204 13.768L53.2602 13.6187L53.2594 13.6201L53.5204 13.768ZM53.9054 6.97H54.2054V6.67H53.9054V6.97ZM52.8934 6.97V6.67H52.5934V6.97H52.8934ZM52.8934 10.391V10.691H53.1934V10.391H52.8934ZM52.8714 10.391L52.6078 10.5343L52.693 10.691H52.8714V10.391ZM52.0574 9.577L51.9046 9.8352L51.9085 9.83747L52.0574 9.577ZM49.4724 9.61L49.3255 9.3484L49.3235 9.34953L49.4724 9.61ZM48.4934 10.611L48.2315 10.4646L48.2307 10.4661L48.4934 10.611ZM48.5044 13.735L48.2395 13.876L48.2423 13.8811L48.5044 13.735ZM49.5274 14.769L49.3809 15.0308L49.3828 15.0319L49.5274 14.769ZM50.0884 14.01L49.933 14.2667L49.936 14.2684L50.0884 14.01ZM49.4174 13.295L49.1542 13.4391L49.1542 13.4391L49.4174 13.295ZM49.4064 11.117L49.1432 10.9729L49.1406 10.9778L49.4064 11.117ZM50.0774 10.391L49.9201 10.1355L49.9172 10.1374L50.0774 10.391ZM51.9584 10.38L51.803 10.6367L51.806 10.6384L51.9584 10.38ZM52.6294 11.106L52.3622 11.2427L52.3662 11.2501L52.6294 11.106ZM52.6294 13.295L52.3662 13.1509L52.3636 13.1558L52.6294 13.295ZM51.9694 14.01L51.814 13.7533L51.814 13.7533L51.9694 14.01ZM51.0344 15.432C51.6218 15.432 52.1594 15.3046 52.6404 15.0437L52.3543 14.5163C51.97 14.7248 51.5323 14.832 51.0344 14.832V15.432ZM52.6404 15.0437C53.1239 14.7815 53.5051 14.4034 53.7814 13.9159L53.2594 13.6201C53.0369 14.0126 52.7362 14.3092 52.3543 14.5163L52.6404 15.0437ZM53.7806 13.9173C54.0683 13.4159 54.2054 12.8268 54.2054 12.162H53.6054C53.6054 12.7439 53.4858 13.2254 53.2602 13.6187L53.7806 13.9173ZM54.2054 12.162V6.97H53.6054V12.162H54.2054ZM53.9054 6.67H52.8934V7.27H53.9054V6.67ZM52.5934 6.97V10.391H53.1934V6.97H52.5934ZM52.8934 10.091H52.8714V10.691H52.8934V10.091ZM53.135 10.2477C52.9229 9.85762 52.61 9.54727 52.2062 9.31653L51.9085 9.83747C52.2234 10.0174 52.4531 10.2497 52.6078 10.5343L53.135 10.2477ZM52.2102 9.31883C51.8028 9.07776 51.3538 8.958 50.8694 8.958V9.558C51.2503 9.558 51.5932 9.65091 51.9046 9.83517L52.2102 9.31883ZM50.8694 8.958C50.3084 8.958 49.7915 9.08678 49.3255 9.3484L49.6192 9.8716C49.9892 9.66389 50.4037 9.558 50.8694 9.558V8.958ZM49.3235 9.34953C48.8632 9.61256 48.4988 9.98671 48.2315 10.4646L48.7552 10.7574C48.9719 10.37 49.2602 10.0768 49.6212 9.87047L49.3235 9.34953ZM48.2307 10.4661C47.9669 10.9441 47.8414 11.5021 47.8414 12.129H48.4414C48.4414 11.5825 48.5505 11.1285 48.756 10.7559L48.2307 10.4661ZM47.8414 12.129C47.8414 12.7846 47.9703 13.3702 48.2395 13.876L48.7692 13.594C48.5544 13.1905 48.4414 12.7054 48.4414 12.129H47.8414ZM48.2423 13.8811C48.5178 14.3753 48.8981 14.7608 49.3809 15.0308L49.6738 14.5072C49.2913 14.2932 48.9896 13.9894 48.7664 13.5889L48.2423 13.8811ZM49.3828 15.0319C49.8724 15.3011 50.4255 15.432 51.0344 15.432V14.832C50.5139 14.832 50.0624 14.7209 49.6719 14.5061L49.3828 15.0319ZM51.0344 13.963C50.7412 13.963 50.4788 13.892 50.2408 13.7516L49.936 14.2684C50.2699 14.4654 50.6382 14.563 51.0344 14.563V13.963ZM50.2437 13.7533C50.0138 13.6142 49.8258 13.4163 49.6805 13.1509L49.1542 13.4391C49.3462 13.7897 49.6056 14.0685 49.933 14.2666L50.2437 13.7533ZM49.6805 13.1509C49.5406 12.8955 49.4644 12.5805 49.4644 12.195H48.8644C48.8644 12.6601 48.9568 13.0785 49.1542 13.4391L49.6805 13.1509ZM49.4644 12.195C49.4644 11.8241 49.537 11.5141 49.6721 11.2562L49.1406 10.9778C48.953 11.3359 48.8644 11.7446 48.8644 12.195H49.4644ZM49.6695 11.2611C49.8154 10.9947 50.0048 10.7917 50.2376 10.6446L49.9172 10.1374C49.5926 10.3423 49.3347 10.6233 49.1432 10.9729L49.6695 11.2611ZM50.2346 10.6465C50.472 10.5004 50.7327 10.427 51.0234 10.427V9.827C50.6247 9.827 50.2547 9.92961 49.9201 10.1355L50.2346 10.6465ZM51.0234 10.427C51.3166 10.427 51.574 10.498 51.803 10.6366L52.1137 10.1233C51.7854 9.92465 51.4195 9.827 51.0234 9.827V10.427ZM51.806 10.6384C52.0397 10.7762 52.2251 10.9744 52.3623 11.2426L52.8964 10.9694C52.711 10.6069 52.4491 10.3211 52.1108 10.1216L51.806 10.6384ZM52.3662 11.2501C52.5061 11.5055 52.5824 11.8205 52.5824 12.206H53.1824C53.1824 11.7409 53.09 11.3225 52.8925 10.9619L52.3662 11.2501ZM52.5824 12.206C52.5824 12.5832 52.5065 12.8948 52.3662 13.1509L52.8925 13.4391C53.0896 13.0792 53.1824 12.6648 53.1824 12.206H52.5824ZM52.3636 13.1558C52.2259 13.4187 52.0427 13.615 51.814 13.7533L52.1247 14.2667C52.4534 14.0677 52.7102 13.7873 52.8951 13.4342L52.3636 13.1558ZM51.814 13.7533C51.585 13.892 51.3276 13.963 51.0344 13.963V14.563C51.4305 14.563 51.7964 14.4653 52.1247 14.2666L51.814 13.7533ZM57.2458 14.747L57.0914 15.0043L57.0965 15.0072L57.2458 14.747ZM56.2008 13.691L55.9387 13.8371L55.9416 13.8422L56.2008 13.691ZM56.2008 10.71L55.9405 10.5607L55.9397 10.5621L56.2008 10.71ZM57.2458 9.654L57.3969 9.91314L57.3982 9.91236L57.2458 9.654ZM60.2928 9.654L60.1384 9.9113L60.1435 9.91421L60.2928 9.654ZM61.3378 10.71L61.0757 10.8561L61.0786 10.8612L61.3378 10.71ZM61.3378 13.691L61.0775 13.5417L61.0767 13.5431L61.3378 13.691ZM60.2928 14.747L60.4439 15.0061L60.4452 15.0054L60.2928 14.747ZM59.7868 13.988L59.6249 13.7354L59.6249 13.7354L59.7868 13.988ZM60.4578 13.251L60.7235 13.3902L60.7248 13.3876L60.4578 13.251ZM60.4578 11.15L60.1907 11.2866L60.192 11.2892L60.4578 11.15ZM57.7628 10.402L57.6037 10.1476L57.6009 10.1494L57.7628 10.402ZM57.0918 11.15L57.3575 11.2892L57.3588 11.2866L57.0918 11.15ZM57.0918 13.251L56.8247 13.3876L56.826 13.3902L57.0918 13.251ZM57.7628 13.988L57.6008 14.2406L57.6038 14.2424L57.7628 13.988ZM58.7748 14.832C58.2493 14.832 57.7921 14.7146 57.3951 14.4868L57.0965 15.0072C57.594 15.2927 58.1562 15.432 58.7748 15.432V14.832ZM57.4001 14.4898C57.0031 14.2515 56.6909 13.9359 56.4599 13.5398L55.9416 13.8422C56.2239 14.3261 56.6084 14.7145 57.0914 15.0042L57.4001 14.4898ZM56.4628 13.5449C56.2402 13.1456 56.1268 12.6978 56.1268 12.195H55.5268C55.5268 12.7922 55.6627 13.3418 55.9387 13.8371L56.4628 13.5449ZM56.1268 12.195C56.1268 11.6922 56.2402 11.2489 56.4618 10.8579L55.9397 10.5621C55.6627 11.0511 55.5268 11.5978 55.5268 12.195H56.1268ZM56.461 10.8593C56.6919 10.4569 57.0028 10.143 57.3969 9.91313L57.0946 9.39487C56.6087 9.67832 56.223 10.0684 55.9405 10.5607L56.461 10.8593ZM57.3982 9.91236C57.7948 9.67833 58.2508 9.558 58.7748 9.558V8.958C58.1547 8.958 57.5914 9.10167 57.0933 9.39564L57.3982 9.91236ZM58.7748 9.558C59.2988 9.558 59.7502 9.67834 60.1384 9.91125L60.4471 9.39675C59.9553 9.10166 59.3947 8.958 58.7748 8.958V9.558ZM60.1435 9.91421C60.5439 10.144 60.8531 10.4567 61.0757 10.8561L61.5998 10.5639C61.3238 10.0687 60.9363 9.67736 60.4421 9.39379L60.1435 9.91421ZM61.0786 10.8612C61.3064 11.2516 61.4228 11.6937 61.4228 12.195H62.0228C62.0228 11.5963 61.8824 11.0484 61.5969 10.5588L61.0786 10.8612ZM61.4228 12.195C61.4228 12.6962 61.3064 13.1428 61.0775 13.5417L61.598 13.8403C61.8824 13.3445 62.0228 12.7938 62.0228 12.195H61.4228ZM61.0767 13.5431C60.854 13.9361 60.5437 14.2506 60.1403 14.4886L60.4452 15.0054C60.9365 14.7154 61.3228 14.3259 61.5988 13.8389L61.0767 13.5431ZM60.1416 14.4879C59.7529 14.7146 59.3003 14.832 58.7748 14.832V15.432C59.3932 15.432 59.9526 15.2927 60.4439 15.0061L60.1416 14.4879ZM58.7748 14.563C59.2123 14.563 59.6077 14.4591 59.9487 14.2406L59.6249 13.7354C59.3939 13.8835 59.1145 13.963 58.7748 13.963V14.563ZM59.9487 14.2406C60.2796 14.0284 60.5386 13.7432 60.7235 13.3902L60.192 13.1118C60.0543 13.3748 59.8659 13.5809 59.6249 13.7354L59.9487 14.2406ZM60.7248 13.3876C60.9099 13.026 60.9998 12.6265 60.9998 12.195H60.3998C60.3998 12.5409 60.3283 12.8453 60.1907 13.1144L60.7248 13.3876ZM60.9998 12.195C60.9998 11.7636 60.9099 11.3666 60.7235 11.0108L60.192 11.2892C60.3283 11.5494 60.3998 11.849 60.3998 12.195H60.9998ZM60.7248 11.0134C60.5404 10.6529 60.2813 10.3627 59.9487 10.1494L59.6249 10.6546C59.8642 10.808 60.0525 11.0165 60.1907 11.2866L60.7248 11.0134ZM59.9487 10.1494C59.6077 9.93085 59.2123 9.827 58.7748 9.827V10.427C59.1145 10.427 59.3939 10.5065 59.6249 10.6546L59.9487 10.1494ZM58.7748 9.827C58.3432 9.827 57.9496 9.93146 57.6038 10.1476L57.9218 10.6564C58.1626 10.5059 58.4437 10.427 58.7748 10.427V9.827ZM57.6009 10.1494C57.2682 10.3627 57.0091 10.6529 56.8247 11.0134L57.3588 11.2866C57.4971 11.0165 57.6853 10.808 57.9247 10.6546L57.6009 10.1494ZM56.826 11.0108C56.6396 11.3666 56.5498 11.7636 56.5498 12.195H57.1498C57.1498 11.849 57.2212 11.5494 57.3575 11.2892L56.826 11.0108ZM56.5498 12.195C56.5498 12.6265 56.6397 13.026 56.8247 13.3876L57.3588 13.1144C57.2212 12.8453 57.1498 12.5409 57.1498 12.195H56.5498ZM56.826 13.3902C57.0109 13.7432 57.2699 14.0284 57.6009 14.2406L57.9247 13.7354C57.6836 13.5809 57.4953 13.3748 57.3575 13.1118L56.826 13.3902ZM57.6038 14.2424C57.9496 14.4585 58.3432 14.563 58.7748 14.563V13.963C58.4437 13.963 58.1626 13.8841 57.9218 13.7336L57.6038 14.2424Z" fill="black"/>
<path d="M54.086 3.27287L54.0513 9.789C54.0492 9.78846 54.0471 9.78792 54.0449 9.78737C53.9273 9.75707 53.7661 9.71475 53.5921 9.66663C53.2866 9.58212 52.952 9.48258 52.74 9.39994V0.149975H52.7402H52.7428H52.7455H52.7482H52.7508H52.7535H52.7562H52.7589H52.7616H52.7644H52.7671H52.7698H52.7725H52.7753H52.778H52.7808H52.7836H52.7864H52.7891H52.7919H52.7947H52.7975H52.8003H52.8032H52.806H52.8088H52.8117H52.8145H52.8174H52.8202H52.8231H52.826H52.8289H52.8317H52.8346H52.8375H52.8405H52.8434H52.8463H52.8492H52.8522H52.8551H52.8581H52.861H52.864H52.8669H52.8699H52.8729H52.8759H52.8789H52.8819H52.8849H52.8879H52.8909H52.8939H52.897H52.9H52.9031H52.9061H52.9092H52.9122H52.9153H52.9184H52.9214H52.9245H52.9276H52.9307H52.9338H52.9369H52.94H52.9431H52.9463H52.9494H52.9525H52.9557H52.9588H52.962H52.9651H52.9683H52.9715H52.9746H52.9778H52.981H52.9842H52.9874H52.9906H52.9938H52.997H53.0002H53.0034H53.0067H53.0099H53.0131H53.0164H53.0196H53.0229H53.0261H53.0294H53.0326H53.0359H53.0392H53.0424H53.0457H53.049H53.0523H53.0556H53.0589H53.0622H53.0655H53.0688H53.0721H53.0755H53.0788H53.0821H53.0855H53.0888H53.0921H53.0955H53.0988H53.1022H53.1055H53.1089H53.1123H53.1156H53.119H53.1224H53.1258H53.1292H53.1326H53.1359H53.1393H53.1427H53.1462H53.1496H53.153H53.1564H53.1598H53.1632H53.1667H53.1701H53.1735H53.1769H53.1804H53.1838H53.1873H53.1907H53.1942H53.1976H53.2011H53.2046H53.208H53.2115H53.215H53.2184H53.2219H53.2254H53.2289H53.2323H53.2358H53.2393H53.2428H53.2463H53.2498H53.2533H53.2568H53.2603H53.2638H53.2673H53.2709H53.2744H53.2779H53.2814H53.2849H53.2885H53.292H53.2955H53.2991H53.3026H53.3061H53.3097H53.3132H53.3167H53.3203H53.3238H53.3274H53.3309H53.3345H53.338H53.3416H53.3452H53.3487H53.3523H53.3558H53.3594H53.363H53.3665H53.3701H53.3737H53.3773H53.3808H53.3844H53.388H53.3916H53.3951H53.3987H53.4023H53.4059H53.4095H53.4131H53.4167H53.4202H53.4238H53.4274H53.431H53.4346H53.4382H53.4418H53.4454H53.449H53.4526H53.4562H53.4598H53.4634H53.467H53.4706H53.4742H53.4778H53.4814H53.485H53.4886H53.4922H53.4958H53.4994H53.503H53.5066H53.5102H53.5138H53.5174H53.521H53.5247H53.5283H53.5319H53.5355H53.5391H53.5427H53.5463H53.5499H53.5535H53.5571H53.5607H53.5643H53.5679H53.5715H53.5752H53.5788H53.5824H53.586H53.5896H53.5932H53.5968H53.6004H53.604H53.6076H53.6112H53.6148H53.6184H53.622H53.6256H53.6292H53.6328H53.6364H53.64H53.6436H53.6472H53.6508H53.6544H53.658H53.6615H53.6651H53.6687H53.6723H53.6759H53.6795H53.6831H53.6866H53.6902H53.6938H53.6974H53.701H53.7045H53.7081H53.7117H53.7153H53.7188H53.7224H53.726H53.7295H53.7331H53.7366H53.7402H53.7438H53.7473H53.7509H53.7544H53.758H53.7615H53.7651H53.7686H53.7722H53.7757H53.7792H53.7828H53.7863H53.7898H53.7934H53.7969H53.8004H53.8039H53.8075H53.811H53.8145H53.818H53.8215H53.825H53.8285H53.832H53.8355H53.839H53.8425H53.846H53.8495H53.853H53.8565H53.86H53.8634H53.8669H53.8704H53.8739H53.8773H53.8808H53.8843H53.8877H53.8912H53.8946H53.8981H53.9015H53.905H53.9084H53.9118H53.9153H53.9187H53.9221H53.9255H53.9289H53.9324H53.9358H53.9392H53.9426H53.946H53.9494H53.9528H53.9562H53.9595H53.9629H53.9663H53.9697H53.9731H53.9764H53.9798H53.9831H53.9865H53.9898H53.9932H53.9965H53.9999H54.0032H54.0065H54.0099H54.0132H54.0165H54.0198H54.0231H54.0264H54.0297H54.033H54.0363H54.0396H54.0429H54.0461H54.0494H54.0527H54.0559H54.0592H54.0624H54.0657H54.0689H54.0722H54.0754H54.0786H54.0819H54.0851H54.086V0.150021V0.150703V0.151385V0.152067V0.152748V0.153428V0.154109V0.154788V0.155468V0.156147V0.156826V0.157505V0.158183V0.158861V0.159538V0.160215V0.160892V0.161568V0.162244V0.16292V0.163595V0.16427V0.164945V0.165619V0.166294V0.166967V0.167641V0.168314V0.168986V0.169659V0.170331V0.171002V0.171674V0.172345V0.173015V0.173686V0.174356V0.175025V0.175695V0.176364V0.177033V0.177701V0.178369V0.179037V0.179705V0.180372V0.181039V0.181705V0.182372V0.183038V0.183703V0.184369V0.185034V0.185698V0.186363V0.187027V0.187691V0.188354V0.189017V0.18968V0.190343V0.191005V0.191667V0.192329V0.192991V0.193652V0.194313V0.194973V0.195634V0.196294V0.196953V0.197613V0.198272V0.198931V0.19959V0.200248V0.200906V0.201564V0.202221V0.202879V0.203536V0.204192V0.204849V0.205505V0.206161V0.206817V0.207472V0.208127V0.208782V0.209437V0.210091V0.210745V0.211399V0.212052V0.212706V0.213359V0.214012V0.214664V0.215316V0.215969V0.21662V0.217272V0.217923V0.218574V0.219225V0.219876V0.220526V0.221176V0.221826V0.222476V0.223125V0.223774V0.224423V0.225072V0.225721V0.226369V0.227017V0.227665V0.228312V0.228959V0.229607V0.230254V0.2309V0.231547V0.232193V0.232839V0.233485V0.23413V0.234776V0.235421V0.236066V0.236711V0.237355V0.237999V0.238644V0.239287V0.239931V0.240575V0.241218V0.241861V0.242504V0.243147V0.243789V0.244431V0.245074V0.245716V0.246357V0.246999V0.24764V0.248281V0.248922V0.249563V0.250204V0.250844V0.251484V0.252124V0.252764V0.253404V0.254043V0.254683V0.255322V0.255961V0.2566V0.257238V0.257877V0.258515V0.259153V0.259791V0.260429V0.261067V0.261704V0.262342V0.262979V0.263616V0.264253V0.264889V0.265526V0.266162V0.266798V0.267434V0.26807V0.268706V0.269342V0.269977V0.270612V0.271248V0.271883V0.272517V0.273152V0.273787V0.274421V0.275056V0.27569V0.276324V0.276958V0.277591V0.278225V0.278859V0.279492V0.280125V0.280758V0.281391V0.282024V0.282657V0.28329V0.283922V0.284554V0.285187V0.285819V0.286451V0.287083V0.287715V0.288346V0.288978V0.289609V0.290241V0.290872V0.291503V0.292134V0.292765V0.293396V0.294026V0.294657V0.295288V0.295918V0.296548V0.297179V0.297809V0.298439V0.299069V0.299698V0.300328V0.300958V0.301587V0.302217V0.302846V0.303476V0.304105V0.304734V0.305363V0.305992V0.306621V0.30725V0.307879V0.308507V0.309136V0.309764V0.310393V0.311021V0.31165V0.312278V0.312906V0.313534V0.314162V0.31479V0.315418V0.316046V0.316674V0.317301V0.317929V0.318557V0.319184V0.319812V0.320439V0.321067V0.321694V0.322322V0.322949V0.323576V0.324203V0.32483V0.325457V0.326085V0.326712V0.327339V0.327965V0.328592V0.329219V0.329846V0.330473V0.3311V0.331726V0.332353V0.33298V0.333606V0.334233V0.33486V0.335486V0.336113V0.336739V0.337366V0.337992V0.338619V0.339245V0.339872V0.340498V0.341124V0.341751V0.342377V0.343004V0.34363V0.344256V0.344883V0.345509V0.346135V0.346762V0.347388C54.086 0.351731 54.086 0.35605 54.086 0.360349C54.0859 0.469615 54.0858 0.565279 54.1341 0.674386C54.3237 1.12051 54.5568 1.43801 55.0648 1.77216C55.5612 2.09875 56.3252 2.44458 57.5733 2.95798C59.1624 3.61897 60.173 4.14027 60.7853 4.62097C61.3888 5.09472 61.5892 5.51524 61.59 5.98333C61.5817 6.18464 61.4524 6.47043 61.225 6.80151C61.0012 7.12731 60.6986 7.47417 60.3793 7.79036C60.1818 7.98591 59.9795 8.16819 59.7876 8.32523C59.9094 8.20738 60.0301 8.08923 60.1452 7.97198C60.5142 7.59627 60.8488 7.20883 60.9867 6.84172C61.1748 6.36319 60.9975 5.81588 60.6211 5.33277C60.2411 4.84519 59.6387 4.39352 58.9051 4.08468C58.3161 3.82342 57.3371 3.58397 56.4214 3.41024C55.5049 3.23639 54.6264 3.12367 54.236 3.12367H54.0868L54.086 3.27287Z" fill="black" stroke="black" stroke-width="0.3"/>
</g>
<defs>
<filter id="filter0_d" x="0.0299988" y="-3.05176e-05" width="65.9928" height="23.432" filterUnits="userSpaceOnUse" color-interpolation-filters="sRGB">
<feFlood flood-opacity="0" result="BackgroundImageFix"/>
<feColorMatrix in="SourceAlpha" type="matrix" values="0 0 0 0 0 0 0 0 0 0 0 0 0 0 0 0 0 0 127 0"/>
<feOffset dy="4"/>
<feGaussianBlur stdDeviation="2"/>
<feColorMatrix type="matrix" values="0 0 0 0 0 0 0 0 0 0 0 0 0 0 0 0 0 0 0.25 0"/>
<feBlend mode="normal" in2="BackgroundImageFix" result="effect1_dropShadow"/>
<feBlend mode="normal" in="SourceGraphic" in2="effect1_dropShadow" result="shape"/>
</filter>
</defs>
</svg>
