<svg width="60" height="20" viewBox="0 0 60 20" fill="none" xmlns="http://www.w3.org/2000/svg">
<path d="M1 17.5518L59 19.1035" stroke="white" stroke-width="0.490123" stroke-linecap="round" stroke-linejoin="round"/>
<path d="M1 17.5518L59 16" stroke="white" stroke-width="0.490123" stroke-linecap="round" stroke-linejoin="round"/>
<path d="M5.97459 10.0285C5.29563 10.0285 4.93533 9.30849 4.93533 8.74279C4.93533 8.0914 5.30948 7.42286 5.93303 7.42286C5.98867 7.42286 6.05771 7.42287 6.12698 7.44008C5.73904 6.80576 5.12933 6.42866 4.46422 6.42866C2.9954 6.42866 2.89837 7.68007 2.89837 9.61717V10.4915V11.3658C2.89837 13.3029 2.9954 14.5714 4.46422 14.5714C5.57274 14.5714 6.3903 13.3715 6.65356 11.9829C6.68138 11.8629 6.75053 11.8115 6.81985 11.8115C6.90297 11.8115 7 11.8803 7 12.0172C7 13.6286 5.54504 15 4.46422 15C3.52193 15 2.56584 14.64 1.91453 13.8C1.23556 12.9256 1 11.7085 1 10.4914C1 9.27423 1.23556 8.05707 1.91453 7.18282C2.56584 6.34284 3.52193 6 4.46422 6C5.66971 6 6.68127 7.09716 6.88912 8.57139C6.90303 8.65715 6.90303 8.72566 6.90303 8.79421C6.90303 9.47994 6.48732 10.0285 5.97465 10.0285H5.97459Z" fill="white"/>
<path d="M8.77 15V10.985C8.77 10.4863 8.90933 10.0977 9.188 9.819C9.474 9.533 9.86633 9.39 10.365 9.39H11.52V10.259H10.552C10.3027 10.259 10.112 10.3323 9.98 10.479C9.848 10.6183 9.782 10.809 9.782 11.051V15H8.77ZM15.9643 15C15.341 15 14.791 14.8863 14.3143 14.659C13.845 14.4243 13.4747 14.098 13.2033 13.68C12.9393 13.2547 12.8073 12.7597 12.8073 12.195C12.8073 11.6377 12.921 11.139 13.1483 10.699C13.3757 10.2517 13.691 9.89967 14.0943 9.643C14.4977 9.38633 14.967 9.258 15.5023 9.258C16.0817 9.258 16.562 9.38267 16.9433 9.632C17.332 9.88133 17.6217 10.2187 17.8123 10.644C18.003 11.062 18.0983 11.5313 18.0983 12.052C18.0983 12.228 18.0873 12.3893 18.0653 12.536H13.8853C13.922 12.8807 14.0357 13.174 14.2263 13.416C14.417 13.6507 14.659 13.8303 14.9523 13.955C15.253 14.0723 15.583 14.131 15.9423 14.131H17.4053V15H15.9643ZM13.8743 11.821H17.0753C17.0753 11.579 17.0277 11.326 16.9323 11.062C16.837 10.798 16.6757 10.5743 16.4483 10.391C16.221 10.2003 15.9057 10.105 15.5023 10.105C15.165 10.105 14.8753 10.193 14.6333 10.369C14.3987 10.5377 14.2153 10.754 14.0833 11.018C13.9587 11.2747 13.889 11.5423 13.8743 11.821ZM19.9718 15V14.131H22.6558C22.9198 14.131 23.1251 14.0503 23.2718 13.889C23.4258 13.7203 23.5028 13.5297 23.5028 13.317C23.5028 13.119 23.4331 12.9467 23.2938 12.8C23.1618 12.646 22.9674 12.569 22.7108 12.569H21.5778C21.0351 12.569 20.5988 12.437 20.2688 12.173C19.9461 11.9017 19.7848 11.5093 19.7848 10.996C19.7848 10.71 19.8544 10.446 19.9938 10.204C20.1331 9.962 20.3274 9.76767 20.5768 9.621C20.8261 9.467 21.1121 9.39 21.4348 9.39H24.0198V10.259H21.5338C21.3138 10.259 21.1341 10.3323 20.9948 10.479C20.8628 10.6183 20.7968 10.7797 20.7968 10.963C20.7968 11.1463 20.8628 11.3077 20.9948 11.447C21.1341 11.579 21.3284 11.645 21.5778 11.645H22.6558C23.2571 11.645 23.7154 11.788 24.0308 12.074C24.3534 12.36 24.5148 12.7633 24.5148 13.284C24.5148 13.5847 24.4414 13.867 24.2948 14.131C24.1481 14.3877 23.9428 14.5967 23.6788 14.758C23.4148 14.9193 23.1141 15 22.7768 15H19.9718ZM29.2266 15C28.6472 15 28.1302 14.8753 27.6756 14.626C27.2209 14.3767 26.8616 14.043 26.5976 13.625C26.3336 13.1997 26.2016 12.723 26.2016 12.195C26.2016 11.667 26.3336 11.194 26.5976 10.776C26.8616 10.3507 27.2209 10.0133 27.6756 9.764C28.1302 9.51467 28.6472 9.39 29.2266 9.39H29.8866V10.259H29.1936C28.8196 10.259 28.4822 10.347 28.1816 10.523C27.8882 10.6917 27.6536 10.9227 27.4776 11.216C27.3089 11.5093 27.2246 11.8357 27.2246 12.195C27.2246 12.5543 27.3089 12.8807 27.4776 13.174C27.6536 13.4673 27.8882 13.702 28.1816 13.878C28.4822 14.0467 28.8196 14.131 29.1936 14.131H29.8866V15H29.2266ZM34.5518 15C33.9284 15 33.3784 14.8863 32.9018 14.659C32.4324 14.4243 32.0621 14.098 31.7908 13.68C31.5268 13.2547 31.3948 12.7597 31.3948 12.195C31.3948 11.6377 31.5084 11.139 31.7358 10.699C31.9631 10.2517 32.2784 9.89967 32.6818 9.643C33.0851 9.38633 33.5544 9.258 34.0898 9.258C34.6691 9.258 35.1494 9.38267 35.5308 9.632C35.9194 9.88133 36.2091 10.2187 36.3998 10.644C36.5904 11.062 36.6858 11.5313 36.6858 12.052C36.6858 12.228 36.6748 12.3893 36.6528 12.536H32.4728C32.5094 12.8807 32.6231 13.174 32.8138 13.416C33.0044 13.6507 33.2464 13.8303 33.5398 13.955C33.8404 14.0723 34.1704 14.131 34.5298 14.131H35.9928V15H34.5518ZM32.4618 11.821H35.6628C35.6628 11.579 35.6151 11.326 35.5198 11.062C35.4244 10.798 35.2631 10.5743 35.0358 10.391C34.8084 10.2003 34.4931 10.105 34.0898 10.105C33.7524 10.105 33.4628 10.193 33.2208 10.369C32.9861 10.5377 32.8028 10.754 32.6708 11.018C32.5461 11.2747 32.4764 11.5423 32.4618 11.821ZM38.6362 15V11.755C38.6362 11.2563 38.7462 10.82 38.9662 10.446C39.1935 10.072 39.5052 9.78233 39.9012 9.577C40.2972 9.36433 40.7482 9.258 41.2542 9.258C41.7675 9.258 42.2185 9.36433 42.6072 9.577C43.0032 9.78233 43.3112 10.072 43.5312 10.446C43.7585 10.82 43.8722 11.2563 43.8722 11.755V15H42.8602V11.766C42.8602 11.4287 42.7832 11.139 42.6292 10.897C42.4825 10.6477 42.2845 10.457 42.0352 10.325C41.7932 10.193 41.5329 10.127 41.2542 10.127C40.9755 10.127 40.7115 10.193 40.4622 10.325C40.2202 10.457 40.0222 10.6477 39.8682 10.897C39.7215 11.139 39.6482 11.4287 39.6482 11.766V15H38.6362ZM48.724 15.132C49.2666 15.132 49.7543 15.0147 50.187 14.78C50.6196 14.5453 50.9606 14.208 51.21 13.768C51.4666 13.3207 51.595 12.7853 51.595 12.162V6.97H50.583V10.391H50.561C50.3776 10.0537 50.1063 9.78233 49.747 9.577C49.3876 9.36433 48.9916 9.258 48.559 9.258C48.0456 9.258 47.58 9.37533 47.162 9.61C46.7513 9.84467 46.425 10.1783 46.183 10.611C45.9483 11.0363 45.831 11.5423 45.831 12.129C45.831 12.745 45.952 13.2803 46.194 13.735C46.4433 14.1823 46.7843 14.527 47.217 14.769C47.657 15.011 48.1593 15.132 48.724 15.132ZM48.724 14.263C48.3793 14.263 48.064 14.1787 47.778 14.01C47.4993 13.8413 47.2756 13.603 47.107 13.295C46.9383 12.987 46.854 12.6203 46.854 12.195C46.854 11.7843 46.9346 11.425 47.096 11.117C47.2646 10.809 47.4883 10.567 47.767 10.391C48.053 10.215 48.3683 10.127 48.713 10.127C49.0576 10.127 49.3693 10.2113 49.648 10.38C49.934 10.5487 50.1576 10.7907 50.319 11.106C50.4876 11.414 50.572 11.7807 50.572 12.206C50.572 12.624 50.4876 12.987 50.319 13.295C50.1576 13.603 49.9376 13.8413 49.659 14.01C49.3803 14.1787 49.0686 14.263 48.724 14.263ZM56.4644 15.132C55.8924 15.132 55.3827 15.0037 54.9354 14.747C54.4954 14.483 54.147 14.131 53.8904 13.691C53.641 13.2437 53.5164 12.745 53.5164 12.195C53.5164 11.645 53.641 11.15 53.8904 10.71C54.147 10.2627 54.4954 9.91067 54.9354 9.654C55.3827 9.39 55.8924 9.258 56.4644 9.258C57.0364 9.258 57.5424 9.39 57.9824 9.654C58.4297 9.91067 58.778 10.2627 59.0274 10.71C59.284 11.15 59.4124 11.645 59.4124 12.195C59.4124 12.745 59.284 13.2437 59.0274 13.691C58.778 14.131 58.4297 14.483 57.9824 14.747C57.5424 15.0037 57.0364 15.132 56.4644 15.132ZM56.4644 14.263C56.853 14.263 57.1904 14.1713 57.4764 13.988C57.7624 13.8047 57.986 13.559 58.1474 13.251C58.3087 12.9357 58.3894 12.5837 58.3894 12.195C58.3894 11.8063 58.3087 11.458 58.1474 11.15C57.986 10.8347 57.7624 10.5853 57.4764 10.402C57.1904 10.2187 56.853 10.127 56.4644 10.127C56.083 10.127 55.7457 10.2187 55.4524 10.402C55.1664 10.5853 54.9427 10.8347 54.7814 11.15C54.62 11.458 54.5394 11.8063 54.5394 12.195C54.5394 12.5837 54.62 12.9357 54.7814 13.251C54.9427 13.559 55.1664 13.8047 55.4524 13.988C55.7457 14.1713 56.083 14.263 56.4644 14.263Z" fill="white"/>
<path d="M50.6 9.5C50.6 7.25518 50.6 2.25818 50.6 0.013362C50.9319 0.013362 51.1643 0 51.629 0C51.629 0.13362 51.629 0.240517 51.629 0.347413C51.629 0.467671 51.629 0.534481 51.6622 0.614654C51.9942 1.45646 52.4589 1.79051 54.7826 2.81939C57.7369 4.14223 58.6 4.93059 58.6 5.98619C58.5668 6.97498 56.4091 9.08618 55.9444 9.00601C56.6083 8.25774 57.5377 7.45601 57.7701 6.78791C58.0689 5.97283 57.239 4.82369 55.9112 4.2224C54.8489 3.71465 52.3261 3.2737 51.629 3.2737L51.5958 9.98144C51.5958 9.98144 50.9889 9.68801 50.6 9.5Z" fill="white"/>
</svg>
