<svg width="59" height="20" viewBox="0 0 59 20" fill="none" xmlns="http://www.w3.org/2000/svg">
<path d="M4.268 15C3.68133 14.9927 3.146 14.89 2.662 14.692C2.178 14.4867 1.76 14.208 1.408 13.856C1.06333 13.504 0.795667 13.097 0.605 12.635C0.421667 12.173 0.33 11.678 0.33 11.15C0.33 10.622 0.421667 10.127 0.605 9.665C0.795667 9.203 1.06333 8.796 1.408 8.444C1.76 8.092 2.178 7.817 2.662 7.619C3.146 7.41367 3.68133 7.30733 4.268 7.3H5.258V8.235H4.301C3.751 8.235 3.256 8.36333 2.816 8.62C2.376 8.87667 2.02767 9.225 1.771 9.665C1.52167 10.105 1.397 10.6 1.397 11.15C1.397 11.7 1.52167 12.195 1.771 12.635C2.02767 13.075 2.376 13.4233 2.816 13.68C3.256 13.9293 3.751 14.0577 4.301 14.065H5.258V15H4.268ZM7.08039 15V10.985C7.08039 10.4863 7.21972 10.0977 7.49839 9.819C7.78439 9.533 8.17672 9.39 8.67539 9.39H9.83039V10.259H8.86239C8.61306 10.259 8.42239 10.3323 8.29039 10.479C8.15839 10.6183 8.09239 10.809 8.09239 11.051V15H7.08039ZM14.2747 15C13.6514 15 13.1014 14.8863 12.6247 14.659C12.1554 14.4243 11.7851 14.098 11.5137 13.68C11.2497 13.2547 11.1177 12.7597 11.1177 12.195C11.1177 11.6377 11.2314 11.139 11.4587 10.699C11.6861 10.2517 12.0014 9.89967 12.4047 9.643C12.8081 9.38633 13.2774 9.258 13.8127 9.258C14.3921 9.258 14.8724 9.38267 15.2537 9.632C15.6424 9.88133 15.9321 10.2187 16.1227 10.644C16.3134 11.062 16.4087 11.5313 16.4087 12.052C16.4087 12.228 16.3977 12.3893 16.3757 12.536H12.1957C12.2324 12.8807 12.3461 13.174 12.5367 13.416C12.7274 13.6507 12.9694 13.8303 13.2627 13.955C13.5634 14.0723 13.8934 14.131 14.2527 14.131H15.7157V15H14.2747ZM12.1847 11.821H15.3857C15.3857 11.579 15.3381 11.326 15.2427 11.062C15.1474 10.798 14.9861 10.5743 14.7587 10.391C14.5314 10.2003 14.2161 10.105 13.8127 10.105C13.4754 10.105 13.1857 10.193 12.9437 10.369C12.7091 10.5377 12.5257 10.754 12.3937 11.018C12.2691 11.2747 12.1994 11.5423 12.1847 11.821ZM18.2822 15V14.131H20.9662C21.2302 14.131 21.4355 14.0503 21.5822 13.889C21.7362 13.7203 21.8132 13.5297 21.8132 13.317C21.8132 13.119 21.7435 12.9467 21.6042 12.8C21.4722 12.646 21.2778 12.569 21.0212 12.569H19.8882C19.3455 12.569 18.9092 12.437 18.5792 12.173C18.2565 11.9017 18.0952 11.5093 18.0952 10.996C18.0952 10.71 18.1648 10.446 18.3042 10.204C18.4435 9.962 18.6378 9.76767 18.8872 9.621C19.1365 9.467 19.4225 9.39 19.7452 9.39H22.3302V10.259H19.8442C19.6242 10.259 19.4445 10.3323 19.3052 10.479C19.1732 10.6183 19.1072 10.7797 19.1072 10.963C19.1072 11.1463 19.1732 11.3077 19.3052 11.447C19.4445 11.579 19.6388 11.645 19.8882 11.645H20.9662C21.5675 11.645 22.0258 11.788 22.3412 12.074C22.6638 12.36 22.8252 12.7633 22.8252 13.284C22.8252 13.5847 22.7518 13.867 22.6052 14.131C22.4585 14.3877 22.2532 14.5967 21.9892 14.758C21.7252 14.9193 21.4245 15 21.0872 15H18.2822ZM27.537 15C26.9576 15 26.4406 14.8753 25.986 14.626C25.5313 14.3767 25.172 14.043 24.908 13.625C24.644 13.1997 24.512 12.723 24.512 12.195C24.512 11.667 24.644 11.194 24.908 10.776C25.172 10.3507 25.5313 10.0133 25.986 9.764C26.4406 9.51467 26.9576 9.39 27.537 9.39H28.197V10.259H27.504C27.13 10.259 26.7926 10.347 26.492 10.523C26.1986 10.6917 25.964 10.9227 25.788 11.216C25.6193 11.5093 25.535 11.8357 25.535 12.195C25.535 12.5543 25.6193 12.8807 25.788 13.174C25.964 13.4673 26.1986 13.702 26.492 13.878C26.7926 14.0467 27.13 14.131 27.504 14.131H28.197V15H27.537ZM32.8622 15C32.2388 15 31.6888 14.8863 31.2122 14.659C30.7428 14.4243 30.3725 14.098 30.1012 13.68C29.8372 13.2547 29.7052 12.7597 29.7052 12.195C29.7052 11.6377 29.8188 11.139 30.0462 10.699C30.2735 10.2517 30.5888 9.89967 30.9922 9.643C31.3955 9.38633 31.8648 9.258 32.4002 9.258C32.9795 9.258 33.4598 9.38267 33.8412 9.632C34.2298 9.88133 34.5195 10.2187 34.7102 10.644C34.9008 11.062 34.9962 11.5313 34.9962 12.052C34.9962 12.228 34.9852 12.3893 34.9632 12.536H30.7832C30.8198 12.8807 30.9335 13.174 31.1242 13.416C31.3148 13.6507 31.5568 13.8303 31.8502 13.955C32.1508 14.0723 32.4808 14.131 32.8402 14.131H34.3032V15H32.8622ZM30.7722 11.821H33.9732C33.9732 11.579 33.9255 11.326 33.8302 11.062C33.7348 10.798 33.5735 10.5743 33.3462 10.391C33.1188 10.2003 32.8035 10.105 32.4002 10.105C32.0628 10.105 31.7732 10.193 31.5312 10.369C31.2965 10.5377 31.1132 10.754 30.9812 11.018C30.8565 11.2747 30.7868 11.5423 30.7722 11.821ZM36.9466 15V11.755C36.9466 11.2563 37.0566 10.82 37.2766 10.446C37.5039 10.072 37.8156 9.78233 38.2116 9.577C38.6076 9.36433 39.0586 9.258 39.5646 9.258C40.0779 9.258 40.5289 9.36433 40.9176 9.577C41.3136 9.78233 41.6216 10.072 41.8416 10.446C42.0689 10.82 42.1826 11.2563 42.1826 11.755V15H41.1706V11.766C41.1706 11.4287 41.0936 11.139 40.9396 10.897C40.7929 10.6477 40.5949 10.457 40.3456 10.325C40.1036 10.193 39.8433 10.127 39.5646 10.127C39.2859 10.127 39.0219 10.193 38.7726 10.325C38.5306 10.457 38.3326 10.6477 38.1786 10.897C38.0319 11.139 37.9586 11.4287 37.9586 11.766V15H36.9466ZM47.0344 15.132C47.577 15.132 48.0647 15.0147 48.4974 14.78C48.93 14.5453 49.271 14.208 49.5204 13.768C49.777 13.3207 49.9054 12.7853 49.9054 12.162V6.97H48.8934V10.391H48.8714C48.688 10.0537 48.4167 9.78233 48.0574 9.577C47.698 9.36433 47.302 9.258 46.8694 9.258C46.356 9.258 45.8904 9.37533 45.4724 9.61C45.0617 9.84467 44.7354 10.1783 44.4934 10.611C44.2587 11.0363 44.1414 11.5423 44.1414 12.129C44.1414 12.745 44.2624 13.2803 44.5044 13.735C44.7537 14.1823 45.0947 14.527 45.5274 14.769C45.9674 15.011 46.4697 15.132 47.0344 15.132ZM47.0344 14.263C46.6897 14.263 46.3744 14.1787 46.0884 14.01C45.8097 13.8413 45.586 13.603 45.4174 13.295C45.2487 12.987 45.1644 12.6203 45.1644 12.195C45.1644 11.7843 45.245 11.425 45.4064 11.117C45.575 10.809 45.7987 10.567 46.0774 10.391C46.3634 10.215 46.6787 10.127 47.0234 10.127C47.368 10.127 47.6797 10.2113 47.9584 10.38C48.2444 10.5487 48.468 10.7907 48.6294 11.106C48.798 11.414 48.8824 11.7807 48.8824 12.206C48.8824 12.624 48.798 12.987 48.6294 13.295C48.468 13.603 48.248 13.8413 47.9694 14.01C47.6907 14.1787 47.379 14.263 47.0344 14.263ZM54.7748 15.132C54.2028 15.132 53.6931 15.0037 53.2458 14.747C52.8058 14.483 52.4574 14.131 52.2008 13.691C51.9514 13.2437 51.8268 12.745 51.8268 12.195C51.8268 11.645 51.9514 11.15 52.2008 10.71C52.4574 10.2627 52.8058 9.91067 53.2458 9.654C53.6931 9.39 54.2028 9.258 54.7748 9.258C55.3468 9.258 55.8528 9.39 56.2928 9.654C56.7401 9.91067 57.0884 10.2627 57.3378 10.71C57.5944 11.15 57.7228 11.645 57.7228 12.195C57.7228 12.745 57.5944 13.2437 57.3378 13.691C57.0884 14.131 56.7401 14.483 56.2928 14.747C55.8528 15.0037 55.3468 15.132 54.7748 15.132ZM54.7748 14.263C55.1634 14.263 55.5008 14.1713 55.7868 13.988C56.0728 13.8047 56.2964 13.559 56.4578 13.251C56.6191 12.9357 56.6998 12.5837 56.6998 12.195C56.6998 11.8063 56.6191 11.458 56.4578 11.15C56.2964 10.8347 56.0728 10.5853 55.7868 10.402C55.5008 10.2187 55.1634 10.127 54.7748 10.127C54.3934 10.127 54.0561 10.2187 53.7628 10.402C53.4768 10.5853 53.2531 10.8347 53.0918 11.15C52.9304 11.458 52.8498 11.8063 52.8498 12.195C52.8498 12.5837 52.9304 12.9357 53.0918 13.251C53.2531 13.559 53.4768 13.8047 53.7628 13.988C54.0561 14.1713 54.3934 14.263 54.7748 14.263Z" fill="white"/>
<path d="M4.268 15L4.26425 15.3H4.268V15ZM2.662 14.692L2.54483 14.9682L2.54841 14.9697L2.662 14.692ZM1.408 13.856L1.19364 14.0659L1.19587 14.0681L1.408 13.856ZM0.605 12.635L0.326127 12.7457L0.327688 12.7494L0.605 12.635ZM0.605 9.665L0.327662 9.55054L0.326153 9.55435L0.605 9.665ZM1.408 8.444L1.19586 8.23186L1.19365 8.23411L1.408 8.444ZM2.662 7.619L2.7756 7.89669L2.77917 7.89517L2.662 7.619ZM4.268 7.3L4.268 6.99998L4.26425 7.00002L4.268 7.3ZM5.258 7.3H5.558V7H5.258V7.3ZM5.258 8.235V8.535H5.558V8.235H5.258ZM2.816 8.62L2.66484 8.36087L2.66484 8.36087L2.816 8.62ZM1.771 9.665L1.51185 9.51383L1.50999 9.5171L1.771 9.665ZM1.771 12.635L1.50997 12.7829L1.51187 12.7862L1.771 12.635ZM2.816 13.68L2.66483 13.9392L2.6681 13.941L2.816 13.68ZM4.301 14.065L4.297 14.365H4.301V14.065ZM5.258 14.065H5.558V13.765H5.258V14.065ZM5.258 15V15.3H5.558V15H5.258ZM4.27175 14.7C3.7182 14.6931 3.2207 14.5964 2.77559 14.4143L2.54841 14.9697C3.0713 15.1836 3.64447 15.2922 4.26425 15.3L4.27175 14.7ZM2.77917 14.4158C2.32862 14.2247 1.94337 13.9671 1.62013 13.6439L1.19587 14.0681C1.57663 14.4489 2.02738 14.7486 2.54484 14.9682L2.77917 14.4158ZM1.62235 13.6461C1.30499 13.322 1.05852 12.9475 0.882312 12.5206L0.327688 12.7494C0.53281 13.2465 0.821672 13.686 1.19365 14.0659L1.62235 13.6461ZM0.883847 12.5243C0.715343 12.0997 0.63 11.6425 0.63 11.15H0.03C0.03 11.7135 0.12799 12.2463 0.326153 12.7457L0.883847 12.5243ZM0.63 11.15C0.63 10.6575 0.715343 10.2003 0.883847 9.77565L0.326153 9.55435C0.12799 10.0537 0.03 10.5865 0.03 11.15H0.63ZM0.882312 9.77945C1.05852 9.35247 1.30499 8.978 1.62235 8.65389L1.19365 8.23411C0.821672 8.614 0.53281 9.05353 0.327688 9.55055L0.882312 9.77945ZM1.62013 8.65613C1.94255 8.33371 2.32657 8.08035 2.77559 7.89666L2.54841 7.34134C2.02943 7.55365 1.57745 7.85029 1.19587 8.23187L1.62013 8.65613ZM2.77917 7.89517C3.22333 7.70674 3.71956 7.60688 4.27175 7.59998L4.26425 7.00002C3.64311 7.00779 3.06867 7.12059 2.54484 7.34283L2.77917 7.89517ZM4.268 7.6H5.258V7H4.268V7.6ZM4.958 7.3V8.235H5.558V7.3H4.958ZM5.258 7.935H4.301V8.535H5.258V7.935ZM4.301 7.935C3.70226 7.935 3.15436 8.07531 2.66484 8.36087L2.96716 8.87913C3.35764 8.65135 3.79974 8.535 4.301 8.535V7.935ZM2.66484 8.36087C2.18014 8.64361 1.79461 9.02914 1.51187 9.51384L2.03013 9.81616C2.26072 9.42086 2.57186 9.10972 2.96716 8.87913L2.66484 8.36087ZM1.50999 9.5171C1.23289 10.0061 1.097 10.5528 1.097 11.15H1.697C1.697 10.6472 1.81044 10.2039 2.03201 9.8129L1.50999 9.5171ZM1.097 11.15C1.097 11.7472 1.23289 12.2939 1.50999 12.7829L2.03201 12.4871C1.81044 12.0961 1.697 11.6528 1.697 11.15H1.097ZM1.51187 12.7862C1.79461 13.2709 2.18014 13.6564 2.66484 13.9391L2.96716 13.4209C2.57186 13.1903 2.26072 12.8791 2.03013 12.4838L1.51187 12.7862ZM2.6681 13.941C3.15581 14.2174 3.70106 14.357 4.297 14.365L4.305 13.765C3.80094 13.7583 3.35619 13.6413 2.9639 13.419L2.6681 13.941ZM4.301 14.365H5.258V13.765H4.301V14.365ZM4.958 14.065V15H5.558V14.065H4.958ZM5.258 14.7H4.268V15.3H5.258V14.7ZM7.08039 15H6.78039V15.3H7.08039V15ZM7.49839 9.819L7.71052 10.0311L7.71052 10.0311L7.49839 9.819ZM9.83039 9.39H10.1304V9.09H9.83039V9.39ZM9.83039 10.259V10.559H10.1304V10.259H9.83039ZM8.29039 10.479L8.50825 10.6854L8.51338 10.6797L8.29039 10.479ZM8.09239 15V15.3H8.39239V15H8.09239ZM7.38039 15V10.985H6.78039V15H7.38039ZM7.38039 10.985C7.38039 10.5437 7.50208 10.2396 7.71052 10.0311L7.28626 9.60687C6.93736 9.95576 6.78039 10.429 6.78039 10.985H7.38039ZM7.71052 10.0311C7.92774 9.81392 8.23663 9.69 8.67539 9.69V9.09C8.11682 9.09 7.64105 9.25208 7.28626 9.60687L7.71052 10.0311ZM8.67539 9.69H9.83039V9.09H8.67539V9.69ZM9.53039 9.39V10.259H10.1304V9.39H9.53039ZM9.83039 9.959H8.86239V10.559H9.83039V9.959ZM8.86239 9.959C8.55201 9.959 8.27058 10.0526 8.0674 10.2783L8.51338 10.6797C8.5742 10.6121 8.6741 10.559 8.86239 10.559V9.959ZM8.0726 10.2727C7.875 10.4813 7.79239 10.7532 7.79239 11.051H8.39239C8.39239 10.8648 8.44178 10.7554 8.50818 10.6853L8.0726 10.2727ZM7.79239 11.051V15H8.39239V11.051H7.79239ZM8.09239 14.7H7.08039V15.3H8.09239V14.7ZM12.6247 14.659L12.4905 14.9274L12.4956 14.9298L12.6247 14.659ZM11.5137 13.68L11.2588 13.8382L11.2621 13.8433L11.5137 13.68ZM11.4587 10.699L11.7253 10.8367L11.7262 10.8349L11.4587 10.699ZM12.4047 9.643L12.2437 9.3899L12.2437 9.3899L12.4047 9.643ZM15.2537 9.632L15.0896 9.8831L15.0917 9.88451L15.2537 9.632ZM16.1227 10.644L15.849 10.7667L15.8498 10.7685L16.1227 10.644ZM16.3757 12.536V12.836H16.6341L16.6724 12.5805L16.3757 12.536ZM12.1957 12.536V12.236H11.8621L11.8974 12.5677L12.1957 12.536ZM12.5367 13.416L12.3011 13.6017L12.3039 13.6052L12.5367 13.416ZM13.2627 13.955L13.1453 14.2312L13.1537 14.2345L13.2627 13.955ZM15.7157 14.131H16.0157V13.831H15.7157V14.131ZM15.7157 15V15.3H16.0157V15H15.7157ZM12.1847 11.821L11.8851 11.8052L11.8685 12.121H12.1847V11.821ZM15.3857 11.821V12.121H15.6857V11.821H15.3857ZM15.2427 11.062L14.9606 11.1639L14.9606 11.1639L15.2427 11.062ZM14.7587 10.391L14.5659 10.6209L14.5704 10.6245L14.7587 10.391ZM12.9437 10.369L13.1188 10.6126L13.1202 10.6116L12.9437 10.369ZM12.3937 11.018L12.1254 10.8838L12.1239 10.8869L12.3937 11.018ZM14.2747 14.7C13.6881 14.7 13.1836 14.5931 12.7539 14.3882L12.4956 14.9298C13.0192 15.1795 13.6147 15.3 14.2747 15.3V14.7ZM12.7589 14.3907C12.3347 14.1786 12.006 13.8874 11.7654 13.5167L11.2621 13.8433C11.5641 14.3086 11.9761 14.6701 12.4906 14.9273L12.7589 14.3907ZM11.7686 13.5218C11.5378 13.1498 11.4177 12.7111 11.4177 12.195H10.8177C10.8177 12.8082 10.9617 13.3595 11.2588 13.8382L11.7686 13.5218ZM11.4177 12.195C11.4177 11.6795 11.5226 11.229 11.7253 10.8367L11.1922 10.5613C10.9402 11.049 10.8177 11.5958 10.8177 12.195H11.4177ZM11.7262 10.8349C11.9304 10.433 12.2101 10.1225 12.5658 9.8961L12.2437 9.3899C11.7927 9.67686 11.4417 10.0703 11.1913 10.5631L11.7262 10.8349ZM12.5658 9.8961C12.9154 9.67364 13.3274 9.558 13.8127 9.558V8.958C13.2274 8.958 12.7008 9.09903 12.2437 9.3899L12.5658 9.8961ZM13.8127 9.558C14.3495 9.558 14.7687 9.67331 15.0896 9.88309L15.4179 9.38091C14.9761 9.09202 14.4346 8.958 13.8127 8.958V9.558ZM15.0917 9.88451C15.4308 10.102 15.6819 10.3941 15.849 10.7667L16.3965 10.5213C16.1822 10.0433 15.854 9.66062 15.4157 9.37949L15.0917 9.88451ZM15.8498 10.7685C16.0204 11.1425 16.1087 11.5686 16.1087 12.052H16.7087C16.7087 11.4941 16.6064 10.9815 16.3957 10.5195L15.8498 10.7685ZM16.1087 12.052C16.1087 12.2158 16.0985 12.362 16.0791 12.4915L16.6724 12.5805C16.697 12.4167 16.7087 12.2402 16.7087 12.052H16.1087ZM16.3757 12.236H12.1957V12.836H16.3757V12.236ZM11.8974 12.5677C11.9393 12.9614 12.0712 13.3099 12.3011 13.6017L12.7724 13.2303C12.6209 13.0381 12.5255 12.8 12.4941 12.5043L11.8974 12.5677ZM12.3039 13.6052C12.5271 13.8799 12.8096 14.0884 13.1454 14.2311L13.3801 13.6789C13.1292 13.5723 12.9277 13.4215 12.7696 13.2268L12.3039 13.6052ZM13.1537 14.2345C13.4928 14.3668 13.8603 14.431 14.2527 14.431V13.831C13.9265 13.831 13.634 13.7778 13.3718 13.6755L13.1537 14.2345ZM14.2527 14.431H15.7157V13.831H14.2527V14.431ZM15.4157 14.131V15H16.0157V14.131H15.4157ZM15.7157 14.7H14.2747V15.3H15.7157V14.7ZM12.1847 12.121H15.3857V11.521H12.1847V12.121ZM15.6857 11.821C15.6857 11.5392 15.6302 11.2517 15.5249 10.9601L14.9606 11.1639C15.046 11.4003 15.0857 11.6188 15.0857 11.821H15.6857ZM15.5249 10.9601C15.4101 10.6423 15.2153 10.3738 14.9471 10.1575L14.5704 10.6245C14.7568 10.7749 14.8847 10.9537 14.9606 11.1639L15.5249 10.9601ZM14.9515 10.1611C14.6535 9.91118 14.2612 9.805 13.8127 9.805V10.405C14.1709 10.405 14.4093 10.4895 14.566 10.6209L14.9515 10.1611ZM13.8127 9.805C13.4204 9.805 13.067 9.90842 12.7673 10.1264L13.1202 10.6116C13.3045 10.4776 13.5304 10.405 13.8127 10.405V9.805ZM12.7686 10.1254C12.4936 10.3231 12.2787 10.5773 12.1254 10.8838L12.6621 11.1522C12.7728 10.9307 12.9245 10.7523 13.1188 10.6126L12.7686 10.1254ZM12.1239 10.8869C11.9821 11.1788 11.902 11.4856 11.8851 11.8052L12.4843 11.8368C12.4968 11.5991 12.556 11.3705 12.6636 11.1491L12.1239 10.8869ZM18.2822 15H17.9822V15.3H18.2822V15ZM18.2822 14.131V13.831H17.9822V14.131H18.2822ZM21.5822 13.889L21.3606 13.6867L21.3602 13.6872L21.5822 13.889ZM21.6042 12.8L21.3764 12.9952L21.3814 13.0011L21.3867 13.0066L21.6042 12.8ZM18.5792 12.173L18.386 12.4027L18.3918 12.4073L18.5792 12.173ZM18.3042 10.204L18.0442 10.0543L18.3042 10.204ZM18.8872 9.621L19.0393 9.87964L19.0448 9.87624L18.8872 9.621ZM22.3302 9.39H22.6302V9.09H22.3302V9.39ZM22.3302 10.259V10.559H22.6302V10.259H22.3302ZM19.3052 10.479L19.0877 10.2724L19.0874 10.2727L19.3052 10.479ZM19.3052 11.447L19.0874 11.6533L19.093 11.6592L19.0988 11.6648L19.3052 11.447ZM22.3412 12.074L22.1396 12.2962L22.1422 12.2985L22.3412 12.074ZM22.6052 14.131L22.8657 14.2799L22.8674 14.2767L22.6052 14.131ZM21.9892 14.758L22.1456 15.014L22.1456 15.014L21.9892 14.758ZM18.5822 15V14.131H17.9822V15H18.5822ZM18.2822 14.431H20.9662V13.831H18.2822V14.431ZM20.9662 14.431C21.2954 14.431 21.5888 14.3277 21.8042 14.0908L21.3602 13.6872C21.2822 13.773 21.165 13.831 20.9662 13.831V14.431ZM21.8037 14.0913C22.0041 13.8718 22.1132 13.6103 22.1132 13.317H21.5132C21.5132 13.449 21.4682 13.5689 21.3606 13.6867L21.8037 14.0913ZM22.1132 13.317C22.1132 13.0403 22.0127 12.7945 21.8217 12.5934L21.3867 13.0066C21.4743 13.0989 21.5132 13.1977 21.5132 13.317H22.1132ZM21.8319 12.6048C21.6284 12.3673 21.3403 12.269 21.0212 12.269V12.869C21.2153 12.869 21.3159 12.9247 21.3764 12.9952L21.8319 12.6048ZM21.0212 12.269H19.8882V12.869H21.0212V12.269ZM19.8882 12.269C19.394 12.269 19.0299 12.1494 18.7666 11.9387L18.3918 12.4073C18.7885 12.7246 19.297 12.869 19.8882 12.869V12.269ZM18.7723 11.9434C18.532 11.7414 18.3952 11.4419 18.3952 10.996H17.7952C17.7952 11.5768 17.981 12.0619 18.3861 12.4026L18.7723 11.9434ZM18.3952 10.996C18.3952 10.7612 18.4517 10.549 18.5642 10.3537L18.0442 10.0543C17.878 10.343 17.7952 10.6588 17.7952 10.996H18.3952ZM18.5642 10.3537C18.6766 10.1584 18.8331 10.0009 19.0393 9.87958L18.7351 9.36242C18.4426 9.53444 18.2104 9.76563 18.0442 10.0543L18.5642 10.3537ZM19.0448 9.87624C19.2421 9.75441 19.4724 9.69 19.7452 9.69V9.09C19.3726 9.09 19.0309 9.17959 18.7295 9.36576L19.0448 9.87624ZM19.7452 9.69H22.3302V9.09H19.7452V9.69ZM22.0302 9.39V10.259H22.6302V9.39H22.0302ZM22.3302 9.959H19.8442V10.559H22.3302V9.959ZM19.8442 9.959C19.5499 9.959 19.2889 10.0605 19.0877 10.2724L19.5227 10.6856C19.6001 10.6041 19.6984 10.559 19.8442 10.559V9.959ZM19.0874 10.2727C18.9053 10.4648 18.8072 10.699 18.8072 10.963H19.4072C19.4072 10.8603 19.441 10.7718 19.523 10.6853L19.0874 10.2727ZM18.8072 10.963C18.8072 11.227 18.9053 11.4612 19.0874 11.6533L19.523 11.2407C19.441 11.1542 19.4072 11.0657 19.4072 10.963H18.8072ZM19.0988 11.6648C19.309 11.8639 19.5858 11.945 19.8882 11.945V11.345C19.6919 11.345 19.58 11.2941 19.5115 11.2292L19.0988 11.6648ZM19.8882 11.945H20.9662V11.345H19.8882V11.945ZM20.9662 11.945C21.5236 11.945 21.8986 12.0776 22.1396 12.2962L22.5427 11.8518C22.1531 11.4984 21.6114 11.345 20.9662 11.345V11.945ZM22.1422 12.2985C22.3874 12.5158 22.5252 12.8298 22.5252 13.284H23.1252C23.1252 12.6969 22.9403 12.2042 22.5402 11.8495L22.1422 12.2985ZM22.5252 13.284C22.5252 13.5334 22.4649 13.7657 22.3429 13.9853L22.8674 14.2767C23.0387 13.9683 23.1252 13.6359 23.1252 13.284H22.5252ZM22.3447 13.9822C22.2243 14.1928 22.0557 14.3658 21.8327 14.502L22.1456 15.014C22.4507 14.8276 22.6927 14.5825 22.8656 14.2798L22.3447 13.9822ZM21.8327 14.502C21.6201 14.632 21.3745 14.7 21.0872 14.7V15.3C21.4745 15.3 21.8303 15.2067 22.1456 15.014L21.8327 14.502ZM21.0872 14.7H18.2822V15.3H21.0872V14.7ZM25.986 14.626L25.8417 14.889L25.8417 14.889L25.986 14.626ZM24.908 13.625L24.6531 13.7832L24.6543 13.7852L24.908 13.625ZM24.908 10.776L25.1616 10.9362L25.1628 10.9342L24.908 10.776ZM25.986 9.764L26.1302 10.027L26.1302 10.027L25.986 9.764ZM28.197 9.39H28.497V9.09H28.197V9.39ZM28.197 10.259V10.559H28.497V10.259H28.197ZM26.492 10.523L26.6415 10.7831L26.6435 10.7819L26.492 10.523ZM25.788 11.216L25.5307 11.0616L25.5279 11.0665L25.788 11.216ZM25.788 13.174L25.5278 13.3236L25.5307 13.3283L25.788 13.174ZM26.492 13.878L26.3375 14.1354L26.3452 14.1396L26.492 13.878ZM28.197 14.131H28.497V13.831H28.197V14.131ZM28.197 15V15.3H28.497V15H28.197ZM27.537 14.7C27.002 14.7 26.5357 14.5853 26.1302 14.363L25.8417 14.889C26.3456 15.1654 26.9132 15.3 27.537 15.3V14.7ZM26.1302 14.363C25.7179 14.1368 25.3971 13.8377 25.1616 13.4648L24.6543 13.7852C24.9468 14.2483 25.3447 14.6165 25.8417 14.889L26.1302 14.363ZM25.1628 13.4668C24.93 13.0916 24.812 12.6703 24.812 12.195H24.212C24.212 12.7757 24.3579 13.3077 24.6531 13.7832L25.1628 13.4668ZM24.812 12.195C24.812 11.7197 24.93 11.303 25.1616 10.9362L24.6543 10.6158C24.3579 11.085 24.212 11.6143 24.212 12.195H24.812ZM25.1628 10.9342C25.3986 10.5544 25.7191 10.2525 26.1302 10.027L25.8417 9.50096C25.3434 9.7742 24.9453 10.147 24.6531 10.6178L25.1628 10.9342ZM26.1302 10.027C26.5357 9.80469 27.002 9.69 27.537 9.69V9.09C26.9132 9.09 26.3456 9.22464 25.8417 9.50096L26.1302 10.027ZM27.537 9.69H28.197V9.09H27.537V9.69ZM27.897 9.39V10.259H28.497V9.39H27.897ZM28.197 9.959H27.504V10.559H28.197V9.959ZM27.504 9.959C27.0807 9.959 26.6904 10.0592 26.3404 10.2641L26.6435 10.7819C26.8948 10.6348 27.1792 10.559 27.504 10.559V9.959ZM26.3424 10.2629C26.0042 10.4574 25.7327 10.725 25.5307 11.0617L26.0452 11.3703C26.1952 11.1204 26.393 10.926 26.6415 10.7831L26.3424 10.2629ZM25.5279 11.0665C25.3314 11.4081 25.235 11.7866 25.235 12.195H25.835C25.835 11.8848 25.9071 11.6105 26.048 11.3655L25.5279 11.0665ZM25.235 12.195C25.235 12.6034 25.3314 12.9819 25.5279 13.3235L26.048 13.0245C25.9071 12.7795 25.835 12.5052 25.835 12.195H25.235ZM25.5307 13.3283C25.732 13.6639 26.002 13.9339 26.3376 14.1352L26.6463 13.6208C26.3952 13.4701 26.1959 13.2708 26.0452 13.0197L25.5307 13.3283ZM26.3452 14.1396C26.6944 14.3356 27.083 14.431 27.504 14.431V13.831C27.1769 13.831 26.8908 13.7578 26.6387 13.6164L26.3452 14.1396ZM27.504 14.431H28.197V13.831H27.504V14.431ZM27.897 14.131V15H28.497V14.131H27.897ZM28.197 14.7H27.537V15.3H28.197V14.7ZM31.2122 14.659L31.078 14.9274L31.083 14.9298L31.2122 14.659ZM30.1012 13.68L29.8462 13.8382L29.8495 13.8433L30.1012 13.68ZM30.0462 10.699L30.3127 10.8367L30.3136 10.8349L30.0462 10.699ZM30.9922 9.643L30.8311 9.3899L30.8311 9.3899L30.9922 9.643ZM33.8412 9.632L33.677 9.8831L33.6792 9.88451L33.8412 9.632ZM34.7102 10.644L34.4364 10.7667L34.4372 10.7685L34.7102 10.644ZM34.9632 12.536V12.836H35.2215L35.2598 12.5805L34.9632 12.536ZM30.7832 12.536V12.236H30.4495L30.4848 12.5677L30.7832 12.536ZM31.1242 13.416L30.8885 13.6017L30.8913 13.6052L31.1242 13.416ZM31.8502 13.955L31.7328 14.2312L31.7411 14.2345L31.8502 13.955ZM34.3032 14.131H34.6032V13.831H34.3032V14.131ZM34.3032 15V15.3H34.6032V15H34.3032ZM30.7722 11.821L30.4726 11.8052L30.456 12.121H30.7722V11.821ZM33.9732 11.821V12.121H34.2732V11.821H33.9732ZM33.8302 11.062L33.548 11.1639L33.548 11.1639L33.8302 11.062ZM33.3462 10.391L33.1533 10.6209L33.1578 10.6245L33.3462 10.391ZM31.5312 10.369L31.7062 10.6126L31.7076 10.6116L31.5312 10.369ZM30.9812 11.018L30.7128 10.8838L30.7113 10.8869L30.9812 11.018ZM32.8622 14.7C32.2755 14.7 31.771 14.5931 31.3413 14.3882L31.083 14.9298C31.6067 15.1795 32.2021 15.3 32.8622 15.3V14.7ZM31.3463 14.3907C30.9222 14.1786 30.5935 13.8874 30.3528 13.5167L29.8495 13.8433C30.1515 14.3086 30.5635 14.6701 31.078 14.9273L31.3463 14.3907ZM30.356 13.5218C30.1252 13.1498 30.0052 12.7111 30.0052 12.195H29.4052C29.4052 12.8082 29.5491 13.3595 29.8463 13.8382L30.356 13.5218ZM30.0052 12.195C30.0052 11.6795 30.11 11.229 30.3127 10.8367L29.7796 10.5613C29.5277 11.049 29.4052 11.5958 29.4052 12.195H30.0052ZM30.3136 10.8349C30.5179 10.433 30.7975 10.1225 31.1532 9.8961L30.8311 9.3899C30.3802 9.67686 30.0291 10.0703 29.7787 10.5631L30.3136 10.8349ZM31.1532 9.8961C31.5028 9.67364 31.9148 9.558 32.4002 9.558V8.958C31.8148 8.958 31.2882 9.09903 30.8311 9.3899L31.1532 9.8961ZM32.4002 9.558C32.9369 9.558 33.3561 9.67331 33.677 9.88309L34.0053 9.38091C33.5635 9.09202 33.0221 8.958 32.4002 8.958V9.558ZM33.6792 9.88451C34.0183 10.102 34.2693 10.3941 34.4364 10.7667L34.9839 10.5213C34.7696 10.0433 34.4414 9.66062 34.0031 9.37949L33.6792 9.88451ZM34.4372 10.7685C34.6078 11.1425 34.6962 11.5686 34.6962 12.052H35.2962C35.2962 11.4941 35.1938 10.9815 34.9831 10.5195L34.4372 10.7685ZM34.6962 12.052C34.6962 12.2158 34.6859 12.362 34.6665 12.4915L35.2598 12.5805C35.2844 12.4167 35.2962 12.2402 35.2962 12.052H34.6962ZM34.9632 12.236H30.7832V12.836H34.9632V12.236ZM30.4848 12.5677C30.5267 12.9614 30.6586 13.3099 30.8885 13.6017L31.3598 13.2303C31.2083 13.0381 31.1129 12.8 31.0815 12.5043L30.4848 12.5677ZM30.8913 13.6052C31.1145 13.8799 31.397 14.0884 31.7328 14.2311L31.9675 13.6789C31.7167 13.5723 31.5151 13.4215 31.357 13.2268L30.8913 13.6052ZM31.7411 14.2345C32.0802 14.3668 32.4477 14.431 32.8402 14.431V13.831C32.5139 13.831 32.2214 13.7778 31.9592 13.6755L31.7411 14.2345ZM32.8402 14.431H34.3032V13.831H32.8402V14.431ZM34.0032 14.131V15H34.6032V14.131H34.0032ZM34.3032 14.7H32.8622V15.3H34.3032V14.7ZM30.7722 12.121H33.9732V11.521H30.7722V12.121ZM34.2732 11.821C34.2732 11.5392 34.2176 11.2517 34.1123 10.9601L33.548 11.1639C33.6334 11.4003 33.6732 11.6188 33.6732 11.821H34.2732ZM34.1123 10.9601C33.9976 10.6423 33.8027 10.3738 33.5345 10.1575L33.1578 10.6245C33.3442 10.7749 33.4721 10.9537 33.548 11.1639L34.1123 10.9601ZM33.5389 10.1611C33.2409 9.91118 32.8487 9.805 32.4002 9.805V10.405C32.7583 10.405 32.9967 10.4895 33.1534 10.6209L33.5389 10.1611ZM32.4002 9.805C32.0078 9.805 31.6544 9.90842 31.3547 10.1264L31.7076 10.6116C31.8919 10.4776 32.1178 10.405 32.4002 10.405V9.805ZM31.3561 10.1254C31.081 10.3231 30.8661 10.5773 30.7128 10.8838L31.2495 11.1522C31.3602 10.9307 31.5119 10.7523 31.7062 10.6126L31.3561 10.1254ZM30.7113 10.8869C30.5695 11.1788 30.4894 11.4856 30.4726 11.8052L31.0717 11.8368C31.0843 11.5991 31.1435 11.3705 31.251 11.1491L30.7113 10.8869ZM36.9466 15H36.6466V15.3H36.9466V15ZM37.2766 10.446L37.0202 10.2902L37.018 10.2939L37.2766 10.446ZM38.2116 9.577L38.3497 9.84335L38.3535 9.8413L38.2116 9.577ZM40.9176 9.577L40.7736 9.84024L40.7795 9.84333L40.9176 9.577ZM41.8416 10.446L41.583 10.5981L41.5852 10.6018L41.8416 10.446ZM42.1826 15V15.3H42.4826V15H42.1826ZM41.1706 15H40.8706V15.3H41.1706V15ZM40.9396 10.897L40.6809 11.0492L40.6865 11.0581L40.9396 10.897ZM40.3456 10.325L40.2019 10.5884L40.2052 10.5901L40.3456 10.325ZM38.7726 10.325L38.6322 10.0598L38.6289 10.0616L38.7726 10.325ZM38.1786 10.897L37.9233 10.7393L37.922 10.7415L38.1786 10.897ZM37.9586 15V15.3H38.2586V15H37.9586ZM37.2466 15V11.755H36.6466V15H37.2466ZM37.2466 11.755C37.2466 11.3017 37.3461 10.9195 37.5352 10.5981L37.018 10.2939C36.7671 10.7205 36.6466 11.211 36.6466 11.755H37.2466ZM37.5329 10.6018C37.7312 10.2757 38.0015 10.0239 38.3497 9.84333L38.0735 9.31067C37.6297 9.5408 37.2767 9.86826 37.0202 10.2902L37.5329 10.6018ZM38.3535 9.8413C38.7006 9.65488 39.1018 9.558 39.5646 9.558V8.958C39.0154 8.958 38.5145 9.07378 38.0697 9.3127L38.3535 9.8413ZM39.5646 9.558C40.0356 9.558 40.4356 9.65526 40.7736 9.84018L41.0616 9.31382C40.6222 9.07341 40.1202 8.958 39.5646 8.958V9.558ZM40.7795 9.84333C41.1269 10.0234 41.3925 10.2742 41.583 10.5981L42.1002 10.2939C41.8507 9.86983 41.5003 9.54122 41.0557 9.31067L40.7795 9.84333ZM41.5852 10.6018C41.7802 10.9226 41.8826 11.3035 41.8826 11.755H42.4826C42.4826 11.2092 42.3576 10.7174 42.0979 10.2902L41.5852 10.6018ZM41.8826 11.755V15H42.4826V11.755H41.8826ZM42.1826 14.7H41.1706V15.3H42.1826V14.7ZM41.4706 15V11.766H40.8706V15H41.4706ZM41.4706 11.766C41.4706 11.3818 41.3824 11.034 41.1927 10.7359L40.6865 11.0581C40.8048 11.244 40.8706 11.4755 40.8706 11.766H41.4706ZM41.1982 10.7449C41.0241 10.4489 40.7857 10.2186 40.486 10.0599L40.2052 10.5901C40.4042 10.6954 40.5618 10.8464 40.681 11.0491L41.1982 10.7449ZM40.4892 10.0616C40.2027 9.90532 39.8929 9.827 39.5646 9.827V10.427C39.7936 10.427 40.0045 10.4807 40.2019 10.5884L40.4892 10.0616ZM39.5646 9.827C39.2364 9.827 38.9242 9.90526 38.6322 10.0599L38.913 10.5901C39.1196 10.4807 39.3355 10.427 39.5646 10.427V9.827ZM38.6289 10.0616C38.3383 10.2202 38.1029 10.4486 37.9234 10.7394L38.4338 11.0546C38.5622 10.8467 38.7229 10.6938 38.9162 10.5884L38.6289 10.0616ZM37.922 10.7415C37.7419 11.0387 37.6586 11.3845 37.6586 11.766H38.2586C38.2586 11.4729 38.3219 11.2393 38.4352 11.0525L37.922 10.7415ZM37.6586 11.766V15H38.2586V11.766H37.6586ZM37.9586 14.7H36.9466V15.3H37.9586V14.7ZM48.4974 14.78L48.3543 14.5163L48.3543 14.5163L48.4974 14.78ZM49.5204 13.768L49.2602 13.6187L49.2594 13.6201L49.5204 13.768ZM49.9054 6.97H50.2054V6.67H49.9054V6.97ZM48.8934 6.97V6.67H48.5934V6.97H48.8934ZM48.8934 10.391V10.691H49.1934V10.391H48.8934ZM48.8714 10.391L48.6078 10.5343L48.693 10.691H48.8714V10.391ZM48.0574 9.577L47.9046 9.8352L47.9085 9.83747L48.0574 9.577ZM45.4724 9.61L45.3255 9.3484L45.3235 9.34953L45.4724 9.61ZM44.4934 10.611L44.2315 10.4646L44.2307 10.4661L44.4934 10.611ZM44.5044 13.735L44.2395 13.876L44.2423 13.8811L44.5044 13.735ZM45.5274 14.769L45.3809 15.0308L45.3828 15.0319L45.5274 14.769ZM46.0884 14.01L45.933 14.2667L45.936 14.2684L46.0884 14.01ZM45.4174 13.295L45.1542 13.4391L45.1542 13.4391L45.4174 13.295ZM45.4064 11.117L45.1432 10.9729L45.1406 10.9778L45.4064 11.117ZM46.0774 10.391L45.9201 10.1355L45.9172 10.1374L46.0774 10.391ZM47.9584 10.38L47.803 10.6367L47.806 10.6384L47.9584 10.38ZM48.6294 11.106L48.3622 11.2427L48.3662 11.2501L48.6294 11.106ZM48.6294 13.295L48.3662 13.1509L48.3636 13.1558L48.6294 13.295ZM47.9694 14.01L47.814 13.7533L47.814 13.7533L47.9694 14.01ZM47.0344 15.432C47.6218 15.432 48.1594 15.3046 48.6404 15.0437L48.3543 14.5163C47.97 14.7248 47.5323 14.832 47.0344 14.832V15.432ZM48.6404 15.0437C49.1239 14.7815 49.5051 14.4034 49.7814 13.9159L49.2594 13.6201C49.0369 14.0126 48.7362 14.3092 48.3543 14.5163L48.6404 15.0437ZM49.7806 13.9173C50.0683 13.4159 50.2054 12.8268 50.2054 12.162H49.6054C49.6054 12.7439 49.4858 13.2254 49.2602 13.6187L49.7806 13.9173ZM50.2054 12.162V6.97H49.6054V12.162H50.2054ZM49.9054 6.67H48.8934V7.27H49.9054V6.67ZM48.5934 6.97V10.391H49.1934V6.97H48.5934ZM48.8934 10.091H48.8714V10.691H48.8934V10.091ZM49.135 10.2477C48.9229 9.85762 48.61 9.54727 48.2062 9.31653L47.9085 9.83747C48.2234 10.0174 48.4531 10.2497 48.6078 10.5343L49.135 10.2477ZM48.2102 9.31883C47.8028 9.07776 47.3538 8.958 46.8694 8.958V9.558C47.2503 9.558 47.5932 9.65091 47.9046 9.83517L48.2102 9.31883ZM46.8694 8.958C46.3084 8.958 45.7915 9.08678 45.3255 9.3484L45.6192 9.8716C45.9892 9.66389 46.4037 9.558 46.8694 9.558V8.958ZM45.3235 9.34953C44.8632 9.61256 44.4988 9.98671 44.2315 10.4646L44.7552 10.7574C44.9719 10.37 45.2602 10.0768 45.6212 9.87047L45.3235 9.34953ZM44.2307 10.4661C43.9669 10.9441 43.8414 11.5021 43.8414 12.129H44.4414C44.4414 11.5825 44.5505 11.1285 44.756 10.7559L44.2307 10.4661ZM43.8414 12.129C43.8414 12.7846 43.9703 13.3702 44.2395 13.876L44.7692 13.594C44.5544 13.1905 44.4414 12.7054 44.4414 12.129H43.8414ZM44.2423 13.8811C44.5178 14.3753 44.8981 14.7608 45.3809 15.0308L45.6738 14.5072C45.2913 14.2932 44.9896 13.9894 44.7664 13.5889L44.2423 13.8811ZM45.3828 15.0319C45.8724 15.3011 46.4255 15.432 47.0344 15.432V14.832C46.5139 14.832 46.0624 14.7209 45.6719 14.5061L45.3828 15.0319ZM47.0344 13.963C46.7412 13.963 46.4788 13.892 46.2408 13.7516L45.936 14.2684C46.2699 14.4654 46.6382 14.563 47.0344 14.563V13.963ZM46.2437 13.7533C46.0138 13.6142 45.8258 13.4163 45.6805 13.1509L45.1542 13.4391C45.3462 13.7897 45.6056 14.0685 45.933 14.2666L46.2437 13.7533ZM45.6805 13.1509C45.5406 12.8955 45.4644 12.5805 45.4644 12.195H44.8644C44.8644 12.6601 44.9568 13.0785 45.1542 13.4391L45.6805 13.1509ZM45.4644 12.195C45.4644 11.8241 45.537 11.5141 45.6721 11.2562L45.1406 10.9778C44.953 11.3359 44.8644 11.7446 44.8644 12.195H45.4644ZM45.6695 11.2611C45.8154 10.9947 46.0048 10.7917 46.2376 10.6446L45.9172 10.1374C45.5926 10.3423 45.3347 10.6233 45.1432 10.9729L45.6695 11.2611ZM46.2346 10.6465C46.472 10.5004 46.7327 10.427 47.0234 10.427V9.827C46.6247 9.827 46.2547 9.92961 45.9201 10.1355L46.2346 10.6465ZM47.0234 10.427C47.3166 10.427 47.574 10.498 47.803 10.6366L48.1137 10.1233C47.7854 9.92465 47.4195 9.827 47.0234 9.827V10.427ZM47.806 10.6384C48.0397 10.7762 48.2251 10.9744 48.3623 11.2426L48.8964 10.9694C48.711 10.6069 48.4491 10.3211 48.1108 10.1216L47.806 10.6384ZM48.3662 11.2501C48.5061 11.5055 48.5824 11.8205 48.5824 12.206H49.1824C49.1824 11.7409 49.09 11.3225 48.8925 10.9619L48.3662 11.2501ZM48.5824 12.206C48.5824 12.5832 48.5065 12.8948 48.3662 13.1509L48.8925 13.4391C49.0896 13.0792 49.1824 12.6648 49.1824 12.206H48.5824ZM48.3636 13.1558C48.2259 13.4187 48.0427 13.615 47.814 13.7533L48.1247 14.2667C48.4534 14.0677 48.7102 13.7873 48.8951 13.4342L48.3636 13.1558ZM47.814 13.7533C47.585 13.892 47.3276 13.963 47.0344 13.963V14.563C47.4305 14.563 47.7964 14.4653 48.1247 14.2666L47.814 13.7533ZM53.2458 14.747L53.0914 15.0043L53.0965 15.0072L53.2458 14.747ZM52.2008 13.691L51.9387 13.8371L51.9416 13.8422L52.2008 13.691ZM52.2008 10.71L51.9405 10.5607L51.9397 10.5621L52.2008 10.71ZM53.2458 9.654L53.3969 9.91314L53.3982 9.91236L53.2458 9.654ZM56.2928 9.654L56.1384 9.9113L56.1435 9.91421L56.2928 9.654ZM57.3378 10.71L57.0757 10.8561L57.0786 10.8612L57.3378 10.71ZM57.3378 13.691L57.0775 13.5417L57.0767 13.5431L57.3378 13.691ZM56.2928 14.747L56.4439 15.0061L56.4452 15.0054L56.2928 14.747ZM55.7868 13.988L55.6249 13.7354L55.6249 13.7354L55.7868 13.988ZM56.4578 13.251L56.7235 13.3902L56.7248 13.3876L56.4578 13.251ZM56.4578 11.15L56.1907 11.2866L56.192 11.2892L56.4578 11.15ZM53.7628 10.402L53.6037 10.1476L53.6009 10.1494L53.7628 10.402ZM53.0918 11.15L53.3575 11.2892L53.3588 11.2866L53.0918 11.15ZM53.0918 13.251L52.8247 13.3876L52.826 13.3902L53.0918 13.251ZM53.7628 13.988L53.6008 14.2406L53.6038 14.2424L53.7628 13.988ZM54.7748 14.832C54.2493 14.832 53.7921 14.7146 53.3951 14.4868L53.0965 15.0072C53.594 15.2927 54.1562 15.432 54.7748 15.432V14.832ZM53.4001 14.4898C53.0031 14.2515 52.6909 13.9359 52.4599 13.5398L51.9416 13.8422C52.2239 14.3261 52.6084 14.7145 53.0914 15.0042L53.4001 14.4898ZM52.4628 13.5449C52.2402 13.1456 52.1268 12.6978 52.1268 12.195H51.5268C51.5268 12.7922 51.6627 13.3418 51.9387 13.8371L52.4628 13.5449ZM52.1268 12.195C52.1268 11.6922 52.2402 11.2489 52.4618 10.8579L51.9397 10.5621C51.6627 11.0511 51.5268 11.5978 51.5268 12.195H52.1268ZM52.461 10.8593C52.6919 10.4569 53.0028 10.143 53.3969 9.91313L53.0946 9.39487C52.6087 9.67832 52.223 10.0684 51.9405 10.5607L52.461 10.8593ZM53.3982 9.91236C53.7948 9.67833 54.2508 9.558 54.7748 9.558V8.958C54.1547 8.958 53.5914 9.10167 53.0933 9.39564L53.3982 9.91236ZM54.7748 9.558C55.2988 9.558 55.7502 9.67834 56.1384 9.91125L56.4471 9.39675C55.9553 9.10166 55.3947 8.958 54.7748 8.958V9.558ZM56.1435 9.91421C56.5439 10.144 56.8531 10.4567 57.0757 10.8561L57.5998 10.5639C57.3238 10.0687 56.9363 9.67736 56.4421 9.39379L56.1435 9.91421ZM57.0786 10.8612C57.3064 11.2516 57.4228 11.6937 57.4228 12.195H58.0228C58.0228 11.5963 57.8824 11.0484 57.5969 10.5588L57.0786 10.8612ZM57.4228 12.195C57.4228 12.6962 57.3064 13.1428 57.0775 13.5417L57.598 13.8403C57.8824 13.3445 58.0228 12.7938 58.0228 12.195H57.4228ZM57.0767 13.5431C56.854 13.9361 56.5437 14.2506 56.1403 14.4886L56.4452 15.0054C56.9365 14.7154 57.3228 14.3259 57.5988 13.8389L57.0767 13.5431ZM56.1416 14.4879C55.7529 14.7146 55.3003 14.832 54.7748 14.832V15.432C55.3932 15.432 55.9526 15.2927 56.4439 15.0061L56.1416 14.4879ZM54.7748 14.563C55.2123 14.563 55.6077 14.4591 55.9487 14.2406L55.6249 13.7354C55.3939 13.8835 55.1145 13.963 54.7748 13.963V14.563ZM55.9487 14.2406C56.2796 14.0284 56.5386 13.7432 56.7235 13.3902L56.192 13.1118C56.0543 13.3748 55.8659 13.5809 55.6249 13.7354L55.9487 14.2406ZM56.7248 13.3876C56.9099 13.026 56.9998 12.6265 56.9998 12.195H56.3998C56.3998 12.5409 56.3283 12.8453 56.1907 13.1144L56.7248 13.3876ZM56.9998 12.195C56.9998 11.7636 56.9099 11.3666 56.7235 11.0108L56.192 11.2892C56.3283 11.5494 56.3998 11.849 56.3998 12.195H56.9998ZM56.7248 11.0134C56.5404 10.6529 56.2813 10.3627 55.9487 10.1494L55.6249 10.6546C55.8642 10.808 56.0525 11.0165 56.1907 11.2866L56.7248 11.0134ZM55.9487 10.1494C55.6077 9.93085 55.2123 9.827 54.7748 9.827V10.427C55.1145 10.427 55.3939 10.5065 55.6249 10.6546L55.9487 10.1494ZM54.7748 9.827C54.3432 9.827 53.9496 9.93146 53.6038 10.1476L53.9218 10.6564C54.1626 10.5059 54.4437 10.427 54.7748 10.427V9.827ZM53.6009 10.1494C53.2682 10.3627 53.0091 10.6529 52.8247 11.0134L53.3588 11.2866C53.4971 11.0165 53.6853 10.808 53.9247 10.6546L53.6009 10.1494ZM52.826 11.0108C52.6396 11.3666 52.5498 11.7636 52.5498 12.195H53.1498C53.1498 11.849 53.2212 11.5494 53.3575 11.2892L52.826 11.0108ZM52.5498 12.195C52.5498 12.6265 52.6397 13.026 52.8247 13.3876L53.3588 13.1144C53.2212 12.8453 53.1498 12.5409 53.1498 12.195H52.5498ZM52.826 13.3902C53.0109 13.7432 53.2699 14.0284 53.6009 14.2406L53.9247 13.7354C53.6836 13.5809 53.4953 13.3748 53.3575 13.1118L52.826 13.3902ZM53.6038 14.2424C53.9496 14.4585 54.3432 14.563 54.7748 14.563V13.963C54.4437 13.963 54.1626 13.8841 53.9218 13.7336L53.6038 14.2424Z" fill="white"/>
<path d="M50.086 3.27287L50.0513 9.789C50.0492 9.78846 50.0471 9.78792 50.0449 9.78737C49.9273 9.75707 49.7661 9.71475 49.5921 9.66663C49.2866 9.58212 48.952 9.48258 48.74 9.39994V0.149975H48.7402H48.7428H48.7455H48.7482H48.7508H48.7535H48.7562H48.7589H48.7616H48.7644H48.7671H48.7698H48.7725H48.7753H48.778H48.7808H48.7836H48.7864H48.7891H48.7919H48.7947H48.7975H48.8003H48.8032H48.806H48.8088H48.8117H48.8145H48.8174H48.8202H48.8231H48.826H48.8289H48.8317H48.8346H48.8375H48.8405H48.8434H48.8463H48.8492H48.8522H48.8551H48.8581H48.861H48.864H48.8669H48.8699H48.8729H48.8759H48.8789H48.8819H48.8849H48.8879H48.8909H48.8939H48.897H48.9H48.9031H48.9061H48.9092H48.9122H48.9153H48.9184H48.9214H48.9245H48.9276H48.9307H48.9338H48.9369H48.94H48.9431H48.9463H48.9494H48.9525H48.9557H48.9588H48.962H48.9651H48.9683H48.9715H48.9746H48.9778H48.981H48.9842H48.9874H48.9906H48.9938H48.997H49.0002H49.0034H49.0067H49.0099H49.0131H49.0164H49.0196H49.0229H49.0261H49.0294H49.0326H49.0359H49.0392H49.0424H49.0457H49.049H49.0523H49.0556H49.0589H49.0622H49.0655H49.0688H49.0721H49.0755H49.0788H49.0821H49.0855H49.0888H49.0921H49.0955H49.0988H49.1022H49.1055H49.1089H49.1123H49.1156H49.119H49.1224H49.1258H49.1292H49.1326H49.1359H49.1393H49.1427H49.1462H49.1496H49.153H49.1564H49.1598H49.1632H49.1667H49.1701H49.1735H49.1769H49.1804H49.1838H49.1873H49.1907H49.1942H49.1976H49.2011H49.2046H49.208H49.2115H49.215H49.2184H49.2219H49.2254H49.2289H49.2323H49.2358H49.2393H49.2428H49.2463H49.2498H49.2533H49.2568H49.2603H49.2638H49.2673H49.2709H49.2744H49.2779H49.2814H49.2849H49.2885H49.292H49.2955H49.2991H49.3026H49.3061H49.3097H49.3132H49.3167H49.3203H49.3238H49.3274H49.3309H49.3345H49.338H49.3416H49.3452H49.3487H49.3523H49.3558H49.3594H49.363H49.3665H49.3701H49.3737H49.3773H49.3808H49.3844H49.388H49.3916H49.3951H49.3987H49.4023H49.4059H49.4095H49.4131H49.4167H49.4202H49.4238H49.4274H49.431H49.4346H49.4382H49.4418H49.4454H49.449H49.4526H49.4562H49.4598H49.4634H49.467H49.4706H49.4742H49.4778H49.4814H49.485H49.4886H49.4922H49.4958H49.4994H49.503H49.5066H49.5102H49.5138H49.5174H49.521H49.5247H49.5283H49.5319H49.5355H49.5391H49.5427H49.5463H49.5499H49.5535H49.5571H49.5607H49.5643H49.5679H49.5715H49.5752H49.5788H49.5824H49.586H49.5896H49.5932H49.5968H49.6004H49.604H49.6076H49.6112H49.6148H49.6184H49.622H49.6256H49.6292H49.6328H49.6364H49.64H49.6436H49.6472H49.6508H49.6544H49.658H49.6615H49.6651H49.6687H49.6723H49.6759H49.6795H49.6831H49.6866H49.6902H49.6938H49.6974H49.701H49.7045H49.7081H49.7117H49.7153H49.7188H49.7224H49.726H49.7295H49.7331H49.7366H49.7402H49.7438H49.7473H49.7509H49.7544H49.758H49.7615H49.7651H49.7686H49.7722H49.7757H49.7792H49.7828H49.7863H49.7898H49.7934H49.7969H49.8004H49.8039H49.8075H49.811H49.8145H49.818H49.8215H49.825H49.8285H49.832H49.8355H49.839H49.8425H49.846H49.8495H49.853H49.8565H49.86H49.8634H49.8669H49.8704H49.8739H49.8773H49.8808H49.8843H49.8877H49.8912H49.8946H49.8981H49.9015H49.905H49.9084H49.9118H49.9153H49.9187H49.9221H49.9255H49.9289H49.9324H49.9358H49.9392H49.9426H49.946H49.9494H49.9528H49.9562H49.9595H49.9629H49.9663H49.9697H49.9731H49.9764H49.9798H49.9831H49.9865H49.9898H49.9932H49.9965H49.9999H50.0032H50.0065H50.0099H50.0132H50.0165H50.0198H50.0231H50.0264H50.0297H50.033H50.0363H50.0396H50.0429H50.0461H50.0494H50.0527H50.0559H50.0592H50.0624H50.0657H50.0689H50.0722H50.0754H50.0786H50.0819H50.0851H50.086V0.150021V0.150703V0.151385V0.152067V0.152748V0.153428V0.154109V0.154788V0.155468V0.156147V0.156826V0.157505V0.158183V0.158861V0.159538V0.160215V0.160892V0.161568V0.162244V0.16292V0.163595V0.16427V0.164945V0.165619V0.166294V0.166967V0.167641V0.168314V0.168986V0.169659V0.170331V0.171002V0.171674V0.172345V0.173015V0.173686V0.174356V0.175025V0.175695V0.176364V0.177033V0.177701V0.178369V0.179037V0.179705V0.180372V0.181039V0.181705V0.182372V0.183038V0.183703V0.184369V0.185034V0.185698V0.186363V0.187027V0.187691V0.188354V0.189017V0.18968V0.190343V0.191005V0.191667V0.192329V0.192991V0.193652V0.194313V0.194973V0.195634V0.196294V0.196953V0.197613V0.198272V0.198931V0.19959V0.200248V0.200906V0.201564V0.202221V0.202879V0.203536V0.204192V0.204849V0.205505V0.206161V0.206817V0.207472V0.208127V0.208782V0.209437V0.210091V0.210745V0.211399V0.212052V0.212706V0.213359V0.214012V0.214664V0.215316V0.215969V0.21662V0.217272V0.217923V0.218574V0.219225V0.219876V0.220526V0.221176V0.221826V0.222476V0.223125V0.223774V0.224423V0.225072V0.225721V0.226369V0.227017V0.227665V0.228312V0.228959V0.229607V0.230254V0.2309V0.231547V0.232193V0.232839V0.233485V0.23413V0.234776V0.235421V0.236066V0.236711V0.237355V0.237999V0.238644V0.239287V0.239931V0.240575V0.241218V0.241861V0.242504V0.243147V0.243789V0.244431V0.245074V0.245716V0.246357V0.246999V0.24764V0.248281V0.248922V0.249563V0.250204V0.250844V0.251484V0.252124V0.252764V0.253404V0.254043V0.254683V0.255322V0.255961V0.2566V0.257238V0.257877V0.258515V0.259153V0.259791V0.260429V0.261067V0.261704V0.262342V0.262979V0.263616V0.264253V0.264889V0.265526V0.266162V0.266798V0.267434V0.26807V0.268706V0.269342V0.269977V0.270612V0.271248V0.271883V0.272517V0.273152V0.273787V0.274421V0.275056V0.27569V0.276324V0.276958V0.277591V0.278225V0.278859V0.279492V0.280125V0.280758V0.281391V0.282024V0.282657V0.28329V0.283922V0.284554V0.285187V0.285819V0.286451V0.287083V0.287715V0.288346V0.288978V0.289609V0.290241V0.290872V0.291503V0.292134V0.292765V0.293396V0.294026V0.294657V0.295288V0.295918V0.296548V0.297179V0.297809V0.298439V0.299069V0.299698V0.300328V0.300958V0.301587V0.302217V0.302846V0.303476V0.304105V0.304734V0.305363V0.305992V0.306621V0.30725V0.307879V0.308507V0.309136V0.309764V0.310393V0.311021V0.31165V0.312278V0.312906V0.313534V0.314162V0.31479V0.315418V0.316046V0.316674V0.317301V0.317929V0.318557V0.319184V0.319812V0.320439V0.321067V0.321694V0.322322V0.322949V0.323576V0.324203V0.32483V0.325457V0.326085V0.326712V0.327339V0.327965V0.328592V0.329219V0.329846V0.330473V0.3311V0.331726V0.332353V0.33298V0.333606V0.334233V0.33486V0.335486V0.336113V0.336739V0.337366V0.337992V0.338619V0.339245V0.339872V0.340498V0.341124V0.341751V0.342377V0.343004V0.34363V0.344256V0.344883V0.345509V0.346135V0.346762V0.347388C50.086 0.351731 50.086 0.35605 50.086 0.360349C50.0859 0.469615 50.0858 0.565279 50.1341 0.674386C50.3237 1.12051 50.5568 1.43801 51.0648 1.77216C51.5612 2.09875 52.3252 2.44458 53.5733 2.95798C55.1624 3.61897 56.173 4.14027 56.7853 4.62097C57.3888 5.09472 57.5892 5.51524 57.59 5.98333C57.5817 6.18464 57.4524 6.47043 57.225 6.80151C57.0012 7.12731 56.6986 7.47417 56.3793 7.79036C56.1818 7.98591 55.9795 8.16819 55.7876 8.32523C55.9094 8.20738 56.0301 8.08923 56.1452 7.97198C56.5142 7.59627 56.8488 7.20883 56.9867 6.84172C57.1748 6.36319 56.9975 5.81588 56.6211 5.33277C56.2411 4.84519 55.6387 4.39352 54.9051 4.08468C54.3161 3.82342 53.3371 3.58397 52.4214 3.41024C51.5049 3.23639 50.6264 3.12367 50.236 3.12367H50.0868L50.086 3.27287Z" fill="white" stroke="white" stroke-width="0.3"/>
</svg>
