<svg width="59" height="20" viewBox="0 0 59 20" fill="none" xmlns="http://www.w3.org/2000/svg">
<path d="M4.268 15C3.68133 14.9927 3.146 14.89 2.662 14.692C2.178 14.4867 1.76 14.208 1.408 13.856C1.06333 13.504 0.795667 13.097 0.605 12.635C0.421667 12.173 0.33 11.678 0.33 11.15C0.33 10.622 0.421667 10.127 0.605 9.665C0.795667 9.203 1.06333 8.796 1.408 8.444C1.76 8.092 2.178 7.817 2.662 7.619C3.146 7.41367 3.68133 7.30733 4.268 7.3H5.258V8.235H4.301C3.751 8.235 3.256 8.36333 2.816 8.62C2.376 8.87667 2.02767 9.225 1.771 9.665C1.52167 10.105 1.397 10.6 1.397 11.15C1.397 11.7 1.52167 12.195 1.771 12.635C2.02767 13.075 2.376 13.4233 2.816 13.68C3.256 13.9293 3.751 14.0577 4.301 14.065H5.258V15H4.268ZM7.08039 15V10.985C7.08039 10.4863 7.21972 10.0977 7.49839 9.819C7.78439 9.533 8.17672 9.39 8.67539 9.39H9.83039V10.259H8.86239C8.61306 10.259 8.42239 10.3323 8.29039 10.479C8.15839 10.6183 8.09239 10.809 8.09239 11.051V15H7.08039ZM14.2747 15C13.6514 15 13.1014 14.8863 12.6247 14.659C12.1554 14.4243 11.7851 14.098 11.5137 13.68C11.2497 13.2547 11.1177 12.7597 11.1177 12.195C11.1177 11.6377 11.2314 11.139 11.4587 10.699C11.6861 10.2517 12.0014 9.89967 12.4047 9.643C12.8081 9.38633 13.2774 9.258 13.8127 9.258C14.3921 9.258 14.8724 9.38267 15.2537 9.632C15.6424 9.88133 15.9321 10.2187 16.1227 10.644C16.3134 11.062 16.4087 11.5313 16.4087 12.052C16.4087 12.228 16.3977 12.3893 16.3757 12.536H12.1957C12.2324 12.8807 12.3461 13.174 12.5367 13.416C12.7274 13.6507 12.9694 13.8303 13.2627 13.955C13.5634 14.0723 13.8934 14.131 14.2527 14.131H15.7157V15H14.2747ZM12.1847 11.821H15.3857C15.3857 11.579 15.3381 11.326 15.2427 11.062C15.1474 10.798 14.9861 10.5743 14.7587 10.391C14.5314 10.2003 14.2161 10.105 13.8127 10.105C13.4754 10.105 13.1857 10.193 12.9437 10.369C12.7091 10.5377 12.5257 10.754 12.3937 11.018C12.2691 11.2747 12.1994 11.5423 12.1847 11.821ZM18.2822 15V14.131H20.9662C21.2302 14.131 21.4355 14.0503 21.5822 13.889C21.7362 13.7203 21.8132 13.5297 21.8132 13.317C21.8132 13.119 21.7435 12.9467 21.6042 12.8C21.4722 12.646 21.2778 12.569 21.0212 12.569H19.8882C19.3455 12.569 18.9092 12.437 18.5792 12.173C18.2565 11.9017 18.0952 11.5093 18.0952 10.996C18.0952 10.71 18.1648 10.446 18.3042 10.204C18.4435 9.962 18.6378 9.76767 18.8872 9.621C19.1365 9.467 19.4225 9.39 19.7452 9.39H22.3302V10.259H19.8442C19.6242 10.259 19.4445 10.3323 19.3052 10.479C19.1732 10.6183 19.1072 10.7797 19.1072 10.963C19.1072 11.1463 19.1732 11.3077 19.3052 11.447C19.4445 11.579 19.6388 11.645 19.8882 11.645H20.9662C21.5675 11.645 22.0258 11.788 22.3412 12.074C22.6638 12.36 22.8252 12.7633 22.8252 13.284C22.8252 13.5847 22.7518 13.867 22.6052 14.131C22.4585 14.3877 22.2532 14.5967 21.9892 14.758C21.7252 14.9193 21.4245 15 21.0872 15H18.2822ZM27.537 15C26.9576 15 26.4406 14.8753 25.986 14.626C25.5313 14.3767 25.172 14.043 24.908 13.625C24.644 13.1997 24.512 12.723 24.512 12.195C24.512 11.667 24.644 11.194 24.908 10.776C25.172 10.3507 25.5313 10.0133 25.986 9.764C26.4406 9.51467 26.9576 9.39 27.537 9.39H28.197V10.259H27.504C27.13 10.259 26.7926 10.347 26.492 10.523C26.1986 10.6917 25.964 10.9227 25.788 11.216C25.6193 11.5093 25.535 11.8357 25.535 12.195C25.535 12.5543 25.6193 12.8807 25.788 13.174C25.964 13.4673 26.1986 13.702 26.492 13.878C26.7926 14.0467 27.13 14.131 27.504 14.131H28.197V15H27.537ZM32.8622 15C32.2388 15 31.6888 14.8863 31.2122 14.659C30.7428 14.4243 30.3725 14.098 30.1012 13.68C29.8372 13.2547 29.7052 12.7597 29.7052 12.195C29.7052 11.6377 29.8188 11.139 30.0462 10.699C30.2735 10.2517 30.5888 9.89967 30.9922 9.643C31.3955 9.38633 31.8648 9.258 32.4002 9.258C32.9795 9.258 33.4598 9.38267 33.8412 9.632C34.2298 9.88133 34.5195 10.2187 34.7102 10.644C34.9008 11.062 34.9962 11.5313 34.9962 12.052C34.9962 12.228 34.9852 12.3893 34.9632 12.536H30.7832C30.8198 12.8807 30.9335 13.174 31.1242 13.416C31.3148 13.6507 31.5568 13.8303 31.8502 13.955C32.1508 14.0723 32.4808 14.131 32.8402 14.131H34.3032V15H32.8622ZM30.7722 11.821H33.9732C33.9732 11.579 33.9255 11.326 33.8302 11.062C33.7348 10.798 33.5735 10.5743 33.3462 10.391C33.1188 10.2003 32.8035 10.105 32.4002 10.105C32.0628 10.105 31.7732 10.193 31.5312 10.369C31.2965 10.5377 31.1132 10.754 30.9812 11.018C30.8565 11.2747 30.7868 11.5423 30.7722 11.821ZM36.9466 15V11.755C36.9466 11.2563 37.0566 10.82 37.2766 10.446C37.5039 10.072 37.8156 9.78233 38.2116 9.577C38.6076 9.36433 39.0586 9.258 39.5646 9.258C40.0779 9.258 40.5289 9.36433 40.9176 9.577C41.3136 9.78233 41.6216 10.072 41.8416 10.446C42.0689 10.82 42.1826 11.2563 42.1826 11.755V15H41.1706V11.766C41.1706 11.4287 41.0936 11.139 40.9396 10.897C40.7929 10.6477 40.5949 10.457 40.3456 10.325C40.1036 10.193 39.8433 10.127 39.5646 10.127C39.2859 10.127 39.0219 10.193 38.7726 10.325C38.5306 10.457 38.3326 10.6477 38.1786 10.897C38.0319 11.139 37.9586 11.4287 37.9586 11.766V15H36.9466ZM47.0344 15.132C47.577 15.132 48.0647 15.0147 48.4974 14.78C48.93 14.5453 49.271 14.208 49.5204 13.768C49.777 13.3207 49.9054 12.7853 49.9054 12.162V6.97H48.8934V10.391H48.8714C48.688 10.0537 48.4167 9.78233 48.0574 9.577C47.698 9.36433 47.302 9.258 46.8694 9.258C46.356 9.258 45.8904 9.37533 45.4724 9.61C45.0617 9.84467 44.7354 10.1783 44.4934 10.611C44.2587 11.0363 44.1414 11.5423 44.1414 12.129C44.1414 12.745 44.2624 13.2803 44.5044 13.735C44.7537 14.1823 45.0947 14.527 45.5274 14.769C45.9674 15.011 46.4697 15.132 47.0344 15.132ZM47.0344 14.263C46.6897 14.263 46.3744 14.1787 46.0884 14.01C45.8097 13.8413 45.586 13.603 45.4174 13.295C45.2487 12.987 45.1644 12.6203 45.1644 12.195C45.1644 11.7843 45.245 11.425 45.4064 11.117C45.575 10.809 45.7987 10.567 46.0774 10.391C46.3634 10.215 46.6787 10.127 47.0234 10.127C47.368 10.127 47.6797 10.2113 47.9584 10.38C48.2444 10.5487 48.468 10.7907 48.6294 11.106C48.798 11.414 48.8824 11.7807 48.8824 12.206C48.8824 12.624 48.798 12.987 48.6294 13.295C48.468 13.603 48.248 13.8413 47.9694 14.01C47.6907 14.1787 47.379 14.263 47.0344 14.263ZM54.7748 15.132C54.2028 15.132 53.6931 15.0037 53.2458 14.747C52.8058 14.483 52.4574 14.131 52.2008 13.691C51.9514 13.2437 51.8268 12.745 51.8268 12.195C51.8268 11.645 51.9514 11.15 52.2008 10.71C52.4574 10.2627 52.8058 9.91067 53.2458 9.654C53.6931 9.39 54.2028 9.258 54.7748 9.258C55.3468 9.258 55.8528 9.39 56.2928 9.654C56.7401 9.91067 57.0884 10.2627 57.3378 10.71C57.5944 11.15 57.7228 11.645 57.7228 12.195C57.7228 12.745 57.5944 13.2437 57.3378 13.691C57.0884 14.131 56.7401 14.483 56.2928 14.747C55.8528 15.0037 55.3468 15.132 54.7748 15.132ZM54.7748 14.263C55.1634 14.263 55.5008 14.1713 55.7868 13.988C56.0728 13.8047 56.2964 13.559 56.4578 13.251C56.6191 12.9357 56.6998 12.5837 56.6998 12.195C56.6998 11.8063 56.6191 11.458 56.4578 11.15C56.2964 10.8347 56.0728 10.5853 55.7868 10.402C55.5008 10.2187 55.1634 10.127 54.7748 10.127C54.3934 10.127 54.0561 10.2187 53.7628 10.402C53.4768 10.5853 53.2531 10.8347 53.0918 11.15C52.9304 11.458 52.8498 11.8063 52.8498 12.195C52.8498 12.5837 52.9304 12.9357 53.0918 13.251C53.2531 13.559 53.4768 13.8047 53.7628 13.988C54.0561 14.1713 54.3934 14.263 54.7748 14.263Z" fill="black"/>
<path d="M48.9 9.5C48.9 7.25518 48.9 2.25818 48.9 0.013362C49.232 0.013362 49.4643 0 49.9291 0C49.9291 0.13362 49.9291 0.240517 49.9291 0.347413C49.9291 0.467671 49.9291 0.534481 49.9623 0.614654C50.2942 1.45646 50.7589 1.79051 53.0826 2.81939C56.037 4.14223 56.9 4.93059 56.9 5.98619C56.8668 6.97498 54.7092 9.08618 54.2444 9.00601C54.9083 8.25774 55.8378 7.45601 56.0701 6.78791C56.3689 5.97283 55.539 4.82369 54.2112 4.2224C53.149 3.71465 50.6262 3.2737 49.9291 3.2737L49.8959 9.98144C49.8959 9.98144 49.2889 9.68801 48.9 9.5Z" fill="black"/>
</svg>
