<svg width="23" height="26" viewBox="0 0 23 26" fill="none" xmlns="http://www.w3.org/2000/svg">
<circle cx="11.5" cy="11.5" r="11.5" fill="white"/>
<g filter="url(#filter0_f)">
<path d="M9.388 20.632C9.93067 20.632 10.4183 20.5147 10.851 20.28C11.2837 20.0453 11.6247 19.708 11.874 19.268C12.1307 18.8207 12.259 18.2853 12.259 17.662V12.47H11.247V15.891H11.225C11.0417 15.5537 10.7703 15.2823 10.411 15.077C10.0517 14.8643 9.65567 14.758 9.223 14.758C8.70967 14.758 8.244 14.8753 7.826 15.11C7.41533 15.3447 7.089 15.6783 6.847 16.111C6.61233 16.5363 6.495 17.0423 6.495 17.629C6.495 18.245 6.616 18.7803 6.858 19.235C7.10733 19.6823 7.44833 20.027 7.881 20.269C8.321 20.511 8.82333 20.632 9.388 20.632ZM9.388 19.763C9.04333 19.763 8.728 19.6787 8.442 19.51C8.16333 19.3413 7.93967 19.103 7.771 18.795C7.60233 18.487 7.518 18.1203 7.518 17.695C7.518 17.2843 7.59867 16.925 7.76 16.617C7.92867 16.309 8.15233 16.067 8.431 15.891C8.717 15.715 9.03233 15.627 9.377 15.627C9.72167 15.627 10.0333 15.7113 10.312 15.88C10.598 16.0487 10.8217 16.2907 10.983 16.606C11.1517 16.914 11.236 17.2807 11.236 17.706C11.236 18.124 11.1517 18.487 10.983 18.795C10.8217 19.103 10.6017 19.3413 10.323 19.51C10.0443 19.6787 9.73267 19.763 9.388 19.763Z" fill="#09C4E3"/>
<path d="M10.851 20.28L10.6603 19.9284L10.6603 19.9284L10.851 20.28ZM11.874 19.268L11.527 19.0689L11.526 19.0708L11.874 19.268ZM12.259 12.47H12.659V12.07H12.259V12.47ZM11.247 12.47V12.07H10.847V12.47H11.247ZM11.247 15.891V16.291H11.647V15.891H11.247ZM11.225 15.891L10.8736 16.082L10.9871 16.291H11.225V15.891ZM10.411 15.077L10.2072 15.4213L10.2125 15.4243L10.411 15.077ZM7.826 15.11L7.63018 14.7612L7.62754 14.7627L7.826 15.11ZM6.847 16.111L6.49789 15.9157L6.49677 15.9178L6.847 16.111ZM6.858 19.235L6.50484 19.423L6.50861 19.4297L6.858 19.235ZM7.881 20.269L7.68573 20.6181L7.68823 20.6195L7.881 20.269ZM8.442 19.51L8.23487 19.8522L8.23881 19.8545L8.442 19.51ZM7.771 18.795L7.42016 18.9871L7.42016 18.9871L7.771 18.795ZM7.76 16.617L7.4091 16.4248L7.40567 16.4314L7.76 16.617ZM8.431 15.891L8.22135 15.5503L8.2174 15.5528L8.431 15.891ZM10.312 15.88L10.1049 16.2222L10.1088 16.2245L10.312 15.88ZM10.983 16.606L10.6268 16.7883L10.6322 16.7981L10.983 16.606ZM10.983 18.795L10.6321 18.6028L10.6287 18.6094L10.983 18.795ZM10.323 19.51L10.1159 19.1678L10.1159 19.1678L10.323 19.51ZM9.388 21.032C9.9903 21.032 10.5447 20.9012 11.0417 20.6316L10.6603 19.9284C10.292 20.1281 9.87103 20.232 9.388 20.232V21.032ZM11.0417 20.6316C11.5421 20.3602 11.9368 19.9685 12.222 19.4652L11.526 19.0708C11.3125 19.4475 11.0252 19.7305 10.6603 19.9284L11.0417 20.6316ZM12.2209 19.4671C12.519 18.9477 12.659 18.3406 12.659 17.662H11.859C11.859 18.23 11.7424 18.6937 11.5271 19.0689L12.2209 19.4671ZM12.659 17.662V12.47H11.859V17.662H12.659ZM12.259 12.07H11.247V12.87H12.259V12.07ZM10.847 12.47V15.891H11.647V12.47H10.847ZM11.247 15.491H11.225V16.291H11.247V15.491ZM11.5765 15.7C11.3549 15.2923 11.0281 14.9689 10.6095 14.7297L10.2125 15.4243C10.5126 15.5957 10.7285 15.8151 10.8736 16.082L11.5765 15.7ZM10.6147 14.7328C10.1914 14.4822 9.72463 14.358 9.223 14.358V15.158C9.5867 15.158 9.91192 15.2464 10.2073 15.4212L10.6147 14.7328ZM9.223 14.358C8.6461 14.358 8.11222 14.4906 7.63019 14.7612L8.02181 15.4588C8.37578 15.2601 8.77323 15.158 9.223 15.158V14.358ZM7.62754 14.7627C7.15069 15.0352 6.77359 15.4228 6.4979 15.9157L7.1961 16.3063C7.40441 15.9338 7.67998 15.6541 8.02446 15.4573L7.62754 14.7627ZM6.49677 15.9178C6.22331 16.4134 6.095 16.9887 6.095 17.629H6.895C6.895 17.0959 7.00135 16.6593 7.19723 16.3042L6.49677 15.9178ZM6.095 17.629C6.095 18.2978 6.22661 18.9001 6.5049 19.4229L7.2111 19.0471C7.00539 18.6606 6.895 18.1922 6.895 17.629H6.095ZM6.50861 19.4297C6.79277 19.9396 7.18618 20.3387 7.68574 20.6181L8.07626 19.9199C7.71049 19.7153 7.42189 19.4251 7.20739 19.0403L6.50861 19.4297ZM7.68823 20.6195C8.19434 20.8978 8.76446 21.032 9.388 21.032V20.232C8.88221 20.232 8.44766 20.1242 8.07377 19.9185L7.68823 20.6195ZM9.388 19.363C9.11196 19.363 8.86723 19.2964 8.64519 19.1655L8.23881 19.8545C8.58877 20.0609 8.97471 20.163 9.388 20.163V19.363ZM8.64912 19.1678C8.43543 19.0385 8.25939 18.854 8.12184 18.6029L7.42016 18.9871C7.61995 19.352 7.89124 19.6442 8.23488 19.8522L8.64912 19.1678ZM8.12184 18.6029C7.99158 18.365 7.918 18.0673 7.918 17.695H7.118C7.118 18.1734 7.21309 18.609 7.42016 18.9871L8.12184 18.6029ZM7.918 17.695C7.918 17.3373 7.98799 17.0438 8.11433 16.8026L7.40567 16.4314C7.20935 16.8062 7.118 17.2314 7.118 17.695H7.918ZM8.11084 16.8091C8.2491 16.5566 8.42709 16.3666 8.6446 16.2292L8.2174 15.5528C7.87758 15.7674 7.60823 16.0614 7.40916 16.4249L8.11084 16.8091ZM8.64064 16.2317C8.86187 16.0955 9.1043 16.027 9.377 16.027V15.227C8.96036 15.227 8.57213 15.3345 8.22136 15.5503L8.64064 16.2317ZM9.377 16.027C9.65307 16.027 9.89236 16.0936 10.1049 16.2222L10.5191 15.5378C10.1743 15.3291 9.79026 15.227 9.377 15.227V16.027ZM10.1088 16.2245C10.3251 16.3521 10.4977 16.5357 10.6269 16.7882L11.3391 16.4238C11.1456 16.0457 10.8709 15.7453 10.5152 15.5355L10.1088 16.2245ZM10.6322 16.7981C10.7624 17.036 10.836 17.3337 10.836 17.706H11.636C11.636 17.2276 11.5409 16.792 11.3338 16.4139L10.6322 16.7981ZM10.836 17.706C10.836 18.0696 10.763 18.364 10.6322 18.6029L11.3338 18.9871C11.5404 18.61 11.636 18.1784 11.636 17.706H10.836ZM10.6287 18.6094C10.4988 18.8573 10.3279 19.0395 10.1159 19.1678L10.5301 19.8522C10.8755 19.6432 11.1445 19.3487 11.3373 18.9806L10.6287 18.6094ZM10.1159 19.1678C9.90336 19.2964 9.66407 19.363 9.388 19.363V20.163C9.80126 20.163 10.1853 20.0609 10.5301 19.8522L10.1159 19.1678Z" fill="#09C4E3"/>
<path d="M12.4813 8.77249L12.443 15.231C12.3153 15.2013 12.1482 15.1617 11.9687 15.1171C11.6413 15.0357 11.2854 14.9407 11.05 14.8605V5.69998H11.0501H11.0531H11.0562H11.0592H11.0623H11.0654H11.0685H11.0716H11.0747H11.0778H11.0809H11.084H11.0872H11.0903H11.0935H11.0966H11.0998H11.103H11.1062H11.1094H11.1126H11.1158H11.119H11.1222H11.1254H11.1287H11.1319H11.1352H11.1384H11.1417H11.145H11.1482H11.1515H11.1548H11.1581H11.1614H11.1648H11.1681H11.1714H11.1747H11.1781H11.1814H11.1848H11.1882H11.1915H11.1949H11.1983H11.2017H11.2051H11.2085H11.2119H11.2153H11.2188H11.2222H11.2256H11.2291H11.2325H11.236H11.2394H11.2429H11.2464H11.2499H11.2534H11.2569H11.2604H11.2639H11.2674H11.2709H11.2744H11.2779H11.2815H11.285H11.2886H11.2921H11.2957H11.2993H11.3028H11.3064H11.31H11.3136H11.3172H11.3208H11.3244H11.328H11.3316H11.3352H11.3388H11.3425H11.3461H11.3497H11.3534H11.357H11.3607H11.3644H11.368H11.3717H11.3754H11.379H11.3827H11.3864H11.3901H11.3938H11.3975H11.4012H11.4049H11.4087H11.4124H11.4161H11.4199H11.4236H11.4273H11.4311H11.4348H11.4386H11.4423H11.4461H11.4499H11.4536H11.4574H11.4612H11.465H11.4688H11.4726H11.4764H11.4802H11.484H11.4878H11.4916H11.4954H11.4992H11.503H11.5069H11.5107H11.5145H11.5184H11.5222H11.526H11.5299H11.5337H11.5376H11.5415H11.5453H11.5492H11.553H11.5569H11.5608H11.5647H11.5685H11.5724H11.5763H11.5802H11.5841H11.588H11.5919H11.5958H11.5997H11.6036H11.6075H11.6114H11.6153H11.6193H11.6232H11.6271H11.631H11.635H11.6389H11.6428H11.6467H11.6507H11.6546H11.6586H11.6625H11.6665H11.6704H11.6744H11.6783H11.6823H11.6862H11.6902H11.6941H11.6981H11.7021H11.706H11.71H11.714H11.7179H11.7219H11.7259H11.7299H11.7338H11.7378H11.7418H11.7458H11.7498H11.7538H11.7577H11.7617H11.7657H11.7697H11.7737H11.7777H11.7817H11.7857H11.7897H11.7937H11.7977H11.8017H11.8057H11.8097H11.8137H11.8177H11.8217H11.8257H11.8297H11.8337H11.8377H11.8417H11.8457H11.8498H11.8538H11.8578H11.8618H11.8658H11.8698H11.8738H11.8778H11.8818H11.8859H11.8899H11.8939H11.8979H11.9019H11.9059H11.9099H11.914H11.918H11.922H11.926H11.93H11.934H11.938H11.942H11.9461H11.9501H11.9541H11.9581H11.9621H11.9661H11.9701H11.9741H11.9781H11.9822H11.9862H11.9902H11.9942H11.9982H12.0022H12.0062H12.0102H12.0142H12.0182H12.0222H12.0262H12.0302H12.0342H12.0382H12.0422H12.0462H12.0502H12.0542H12.0581H12.0621H12.0661H12.0701H12.0741H12.0781H12.0821H12.086H12.09H12.094H12.098H12.1019H12.1059H12.1099H12.1138H12.1178H12.1218H12.1257H12.1297H12.1337H12.1376H12.1416H12.1455H12.1495H12.1534H12.1574H12.1613H12.1652H12.1692H12.1731H12.1771H12.181H12.1849H12.1888H12.1928H12.1967H12.2006H12.2045H12.2084H12.2123H12.2163H12.2202H12.2241H12.228H12.2319H12.2358H12.2397H12.2435H12.2474H12.2513H12.2552H12.2591H12.2629H12.2668H12.2707H12.2745H12.2784H12.2823H12.2861H12.29H12.2938H12.2976H12.3015H12.3053H12.3092H12.313H12.3168H12.3206H12.3244H12.3283H12.3321H12.3359H12.3397H12.3435H12.3473H12.3511H12.3549H12.3586H12.3624H12.3662H12.37H12.3737H12.3775H12.3812H12.385H12.3887H12.3925H12.3962H12.4H12.4037H12.4074H12.4112H12.4149H12.4186H12.4223H12.426H12.4297H12.4334H12.4371H12.4408H12.4444H12.4481H12.4518H12.4555H12.4591H12.4628H12.4664H12.4701H12.4737H12.4773H12.481H12.4813V5.70025V5.70091V5.70156V5.70222V5.70288V5.70354V5.70419V5.70485V5.70551V5.70616V5.70682V5.70747V5.70813V5.70878V5.70944V5.71009V5.71075V5.7114V5.71205V5.71271V5.71336V5.71401V5.71466V5.71532V5.71597V5.71662V5.71727V5.71792V5.71857V5.71923V5.71988V5.72053V5.72118V5.72183V5.72248V5.72313V5.72377V5.72442V5.72507V5.72572V5.72637V5.72702V5.72766V5.72831V5.72896V5.72961V5.73025V5.7309V5.73155V5.73219V5.73284V5.73348V5.73413V5.73478V5.73542V5.73607V5.73671V5.73736V5.738V5.73864V5.73929V5.73993V5.74057V5.74122V5.74186V5.7425V5.74315V5.74379V5.74443V5.74507V5.74572V5.74636V5.747V5.74764V5.74828V5.74892V5.74956V5.7502V5.75084V5.75148V5.75212V5.75276V5.7534V5.75404V5.75468V5.75532V5.75596V5.7566V5.75724V5.75788V5.75852V5.75915V5.75979V5.76043V5.76107V5.7617V5.76234V5.76298V5.76362V5.76425V5.76489V5.76553V5.76616V5.7668V5.76743V5.76807V5.76871V5.76934V5.76998V5.77061V5.77125V5.77188V5.77252V5.77315V5.77379V5.77442V5.77506V5.77569V5.77632V5.77696V5.77759V5.77823V5.77886V5.77949V5.78013V5.78076V5.78139V5.78202V5.78266V5.78329V5.78392V5.78455V5.78519V5.78582V5.78645V5.78708V5.78771V5.78835V5.78898V5.78961V5.79024V5.79087V5.7915V5.79213V5.79276V5.7934V5.79403V5.79466V5.79529V5.79592V5.79655V5.79718V5.79781V5.79844V5.79907V5.7997V5.80033V5.80096V5.80159V5.80222V5.80285V5.80348V5.8041V5.80473V5.80536V5.80599V5.80662V5.80725V5.80788V5.80851V5.80914V5.80976V5.81039V5.81102V5.81165V5.81228V5.81291V5.81353V5.81416V5.81479V5.81542V5.81605V5.81667V5.8173V5.81793V5.81856V5.81918V5.81981V5.82044V5.82107V5.82169V5.82232V5.82295V5.82358V5.8242V5.82483V5.82546V5.82608V5.82671V5.82734V5.82797V5.82859V5.82922V5.82985V5.83047V5.8311V5.83173V5.83235V5.83298V5.83361V5.83423V5.83486V5.83549V5.83611V5.83674V5.83737V5.83799V5.83862V5.83925V5.83987V5.8405V5.84112V5.84175V5.84238V5.843V5.84363V5.84426V5.84488V5.84551V5.84614V5.84676V5.84739C12.4813 5.85255 12.4813 5.85772 12.4813 5.86288C12.4811 5.97055 12.481 6.07961 12.5409 6.20161C12.7569 6.65827 13.0232 6.98192 13.5933 7.319C14.1481 7.64709 15.0004 7.99365 16.3884 8.50683C18.1566 9.16792 19.2779 9.68824 19.9556 10.1664C20.6225 10.637 20.8287 11.0432 20.83 11.4819C20.8258 11.5659 20.7937 11.677 20.7256 11.8142C20.6575 11.9515 20.5589 12.1037 20.4356 12.265C20.2854 12.4617 20.1024 12.6666 19.9022 12.868C20.0396 12.7 20.1508 12.5319 20.22 12.3665C20.4438 11.8542 20.2267 11.2809 19.8046 10.794C19.3761 10.2997 18.7004 9.84559 17.8822 9.53594C17.2246 9.27381 16.1338 9.03415 15.1152 8.86046C14.0954 8.68659 13.117 8.57367 12.6813 8.57367H12.4825L12.4813 8.77249Z" fill="#09C4E3" stroke="#09C4E3" stroke-width="0.4"/>
</g>
<g filter="url(#filter1_f)">
<path d="M9.388 19.632C9.93067 19.632 10.4183 19.5147 10.851 19.28C11.2837 19.0453 11.6247 18.708 11.874 18.268C12.1307 17.8207 12.259 17.2853 12.259 16.662V11.47H11.247V14.891H11.225C11.0417 14.5537 10.7703 14.2823 10.411 14.077C10.0517 13.8643 9.65567 13.758 9.223 13.758C8.70967 13.758 8.244 13.8753 7.826 14.11C7.41533 14.3447 7.089 14.6783 6.847 15.111C6.61233 15.5363 6.495 16.0423 6.495 16.629C6.495 17.245 6.616 17.7803 6.858 18.235C7.10733 18.6823 7.44833 19.027 7.881 19.269C8.321 19.511 8.82333 19.632 9.388 19.632ZM9.388 18.763C9.04333 18.763 8.728 18.6787 8.442 18.51C8.16333 18.3413 7.93967 18.103 7.771 17.795C7.60233 17.487 7.518 17.1203 7.518 16.695C7.518 16.2843 7.59867 15.925 7.76 15.617C7.92867 15.309 8.15233 15.067 8.431 14.891C8.717 14.715 9.03233 14.627 9.377 14.627C9.72167 14.627 10.0333 14.7113 10.312 14.88C10.598 15.0487 10.8217 15.2907 10.983 15.606C11.1517 15.914 11.236 16.2807 11.236 16.706C11.236 17.124 11.1517 17.487 10.983 17.795C10.8217 18.103 10.6017 18.3413 10.323 18.51C10.0443 18.6787 9.73267 18.763 9.388 18.763Z" fill="#E3207B"/>
<path d="M10.851 19.28L10.6603 18.9284L10.6603 18.9284L10.851 19.28ZM11.874 18.268L11.527 18.0689L11.526 18.0708L11.874 18.268ZM12.259 11.47H12.659V11.07H12.259V11.47ZM11.247 11.47V11.07H10.847V11.47H11.247ZM11.247 14.891V15.291H11.647V14.891H11.247ZM11.225 14.891L10.8736 15.082L10.9871 15.291H11.225V14.891ZM10.411 14.077L10.2072 14.4213L10.2125 14.4243L10.411 14.077ZM7.826 14.11L7.63018 13.7612L7.62754 13.7627L7.826 14.11ZM6.847 15.111L6.49789 14.9157L6.49677 14.9178L6.847 15.111ZM6.858 18.235L6.50484 18.423L6.50861 18.4297L6.858 18.235ZM7.881 19.269L7.68573 19.6181L7.68823 19.6195L7.881 19.269ZM8.442 18.51L8.23487 18.8522L8.23881 18.8545L8.442 18.51ZM7.771 17.795L7.42016 17.9871L7.42016 17.9871L7.771 17.795ZM7.76 15.617L7.4091 15.4248L7.40567 15.4314L7.76 15.617ZM8.431 14.891L8.22135 14.5503L8.2174 14.5528L8.431 14.891ZM10.312 14.88L10.1049 15.2222L10.1088 15.2245L10.312 14.88ZM10.983 15.606L10.6268 15.7883L10.6322 15.7981L10.983 15.606ZM10.983 17.795L10.6321 17.6028L10.6287 17.6094L10.983 17.795ZM10.323 18.51L10.1159 18.1678L10.1159 18.1678L10.323 18.51ZM9.388 20.032C9.9903 20.032 10.5447 19.9012 11.0417 19.6316L10.6603 18.9284C10.292 19.1281 9.87103 19.232 9.388 19.232V20.032ZM11.0417 19.6316C11.5421 19.3602 11.9368 18.9685 12.222 18.4652L11.526 18.0708C11.3125 18.4475 11.0252 18.7305 10.6603 18.9284L11.0417 19.6316ZM12.2209 18.4671C12.519 17.9477 12.659 17.3406 12.659 16.662H11.859C11.859 17.23 11.7424 17.6937 11.5271 18.0689L12.2209 18.4671ZM12.659 16.662V11.47H11.859V16.662H12.659ZM12.259 11.07H11.247V11.87H12.259V11.07ZM10.847 11.47V14.891H11.647V11.47H10.847ZM11.247 14.491H11.225V15.291H11.247V14.491ZM11.5765 14.7C11.3549 14.2923 11.0281 13.9689 10.6095 13.7297L10.2125 14.4243C10.5126 14.5957 10.7285 14.8151 10.8736 15.082L11.5765 14.7ZM10.6147 13.7328C10.1914 13.4822 9.72463 13.358 9.223 13.358V14.158C9.5867 14.158 9.91192 14.2464 10.2073 14.4212L10.6147 13.7328ZM9.223 13.358C8.6461 13.358 8.11222 13.4906 7.63019 13.7612L8.02181 14.4588C8.37578 14.2601 8.77323 14.158 9.223 14.158V13.358ZM7.62754 13.7627C7.15069 14.0352 6.77359 14.4228 6.4979 14.9157L7.1961 15.3063C7.40441 14.9338 7.67998 14.6541 8.02446 14.4573L7.62754 13.7627ZM6.49677 14.9178C6.22331 15.4134 6.095 15.9887 6.095 16.629H6.895C6.895 16.0959 7.00135 15.6593 7.19723 15.3042L6.49677 14.9178ZM6.095 16.629C6.095 17.2978 6.22661 17.9001 6.5049 18.4229L7.2111 18.0471C7.00539 17.6606 6.895 17.1922 6.895 16.629H6.095ZM6.50861 18.4297C6.79277 18.9396 7.18618 19.3387 7.68574 19.6181L8.07626 18.9199C7.71049 18.7153 7.42189 18.4251 7.20739 18.0403L6.50861 18.4297ZM7.68823 19.6195C8.19434 19.8978 8.76446 20.032 9.388 20.032V19.232C8.88221 19.232 8.44766 19.1242 8.07377 18.9185L7.68823 19.6195ZM9.388 18.363C9.11196 18.363 8.86723 18.2964 8.64519 18.1655L8.23881 18.8545C8.58877 19.0609 8.97471 19.163 9.388 19.163V18.363ZM8.64912 18.1678C8.43543 18.0385 8.25939 17.854 8.12184 17.6029L7.42016 17.9871C7.61995 18.352 7.89124 18.6442 8.23488 18.8522L8.64912 18.1678ZM8.12184 17.6029C7.99158 17.365 7.918 17.0673 7.918 16.695H7.118C7.118 17.1734 7.21309 17.609 7.42016 17.9871L8.12184 17.6029ZM7.918 16.695C7.918 16.3373 7.98799 16.0438 8.11433 15.8026L7.40567 15.4314C7.20935 15.8062 7.118 16.2314 7.118 16.695H7.918ZM8.11084 15.8091C8.2491 15.5566 8.42709 15.3666 8.6446 15.2292L8.2174 14.5528C7.87758 14.7674 7.60823 15.0614 7.40916 15.4249L8.11084 15.8091ZM8.64064 15.2317C8.86187 15.0955 9.1043 15.027 9.377 15.027V14.227C8.96036 14.227 8.57213 14.3345 8.22136 14.5503L8.64064 15.2317ZM9.377 15.027C9.65307 15.027 9.89236 15.0936 10.1049 15.2222L10.5191 14.5378C10.1743 14.3291 9.79026 14.227 9.377 14.227V15.027ZM10.1088 15.2245C10.3251 15.3521 10.4977 15.5357 10.6269 15.7882L11.3391 15.4238C11.1456 15.0457 10.8709 14.7453 10.5152 14.5355L10.1088 15.2245ZM10.6322 15.7981C10.7624 16.036 10.836 16.3337 10.836 16.706H11.636C11.636 16.2276 11.5409 15.792 11.3338 15.4139L10.6322 15.7981ZM10.836 16.706C10.836 17.0696 10.763 17.364 10.6322 17.6029L11.3338 17.9871C11.5404 17.61 11.636 17.1784 11.636 16.706H10.836ZM10.6287 17.6094C10.4988 17.8573 10.3279 18.0395 10.1159 18.1678L10.5301 18.8522C10.8755 18.6432 11.1445 18.3487 11.3373 17.9806L10.6287 17.6094ZM10.1159 18.1678C9.90336 18.2964 9.66407 18.363 9.388 18.363V19.163C9.80126 19.163 10.1853 19.0609 10.5301 18.8522L10.1159 18.1678Z" fill="#E3207B"/>
<path d="M12.4813 7.77249L12.443 14.231C12.3153 14.2013 12.1482 14.1617 11.9687 14.1171C11.6413 14.0357 11.2854 13.9407 11.05 13.8605V4.69998H11.0501H11.0531H11.0562H11.0592H11.0623H11.0654H11.0685H11.0716H11.0747H11.0778H11.0809H11.084H11.0872H11.0903H11.0935H11.0966H11.0998H11.103H11.1062H11.1094H11.1126H11.1158H11.119H11.1222H11.1254H11.1287H11.1319H11.1352H11.1384H11.1417H11.145H11.1482H11.1515H11.1548H11.1581H11.1614H11.1648H11.1681H11.1714H11.1747H11.1781H11.1814H11.1848H11.1882H11.1915H11.1949H11.1983H11.2017H11.2051H11.2085H11.2119H11.2153H11.2188H11.2222H11.2256H11.2291H11.2325H11.236H11.2394H11.2429H11.2464H11.2499H11.2534H11.2569H11.2604H11.2639H11.2674H11.2709H11.2744H11.2779H11.2815H11.285H11.2886H11.2921H11.2957H11.2993H11.3028H11.3064H11.31H11.3136H11.3172H11.3208H11.3244H11.328H11.3316H11.3352H11.3388H11.3425H11.3461H11.3497H11.3534H11.357H11.3607H11.3644H11.368H11.3717H11.3754H11.379H11.3827H11.3864H11.3901H11.3938H11.3975H11.4012H11.4049H11.4087H11.4124H11.4161H11.4199H11.4236H11.4273H11.4311H11.4348H11.4386H11.4423H11.4461H11.4499H11.4536H11.4574H11.4612H11.465H11.4688H11.4726H11.4764H11.4802H11.484H11.4878H11.4916H11.4954H11.4992H11.503H11.5069H11.5107H11.5145H11.5184H11.5222H11.526H11.5299H11.5337H11.5376H11.5415H11.5453H11.5492H11.553H11.5569H11.5608H11.5647H11.5685H11.5724H11.5763H11.5802H11.5841H11.588H11.5919H11.5958H11.5997H11.6036H11.6075H11.6114H11.6153H11.6193H11.6232H11.6271H11.631H11.635H11.6389H11.6428H11.6467H11.6507H11.6546H11.6586H11.6625H11.6665H11.6704H11.6744H11.6783H11.6823H11.6862H11.6902H11.6941H11.6981H11.7021H11.706H11.71H11.714H11.7179H11.7219H11.7259H11.7299H11.7338H11.7378H11.7418H11.7458H11.7498H11.7538H11.7577H11.7617H11.7657H11.7697H11.7737H11.7777H11.7817H11.7857H11.7897H11.7937H11.7977H11.8017H11.8057H11.8097H11.8137H11.8177H11.8217H11.8257H11.8297H11.8337H11.8377H11.8417H11.8457H11.8498H11.8538H11.8578H11.8618H11.8658H11.8698H11.8738H11.8778H11.8818H11.8859H11.8899H11.8939H11.8979H11.9019H11.9059H11.9099H11.914H11.918H11.922H11.926H11.93H11.934H11.938H11.942H11.9461H11.9501H11.9541H11.9581H11.9621H11.9661H11.9701H11.9741H11.9781H11.9822H11.9862H11.9902H11.9942H11.9982H12.0022H12.0062H12.0102H12.0142H12.0182H12.0222H12.0262H12.0302H12.0342H12.0382H12.0422H12.0462H12.0502H12.0542H12.0581H12.0621H12.0661H12.0701H12.0741H12.0781H12.0821H12.086H12.09H12.094H12.098H12.1019H12.1059H12.1099H12.1138H12.1178H12.1218H12.1257H12.1297H12.1337H12.1376H12.1416H12.1455H12.1495H12.1534H12.1574H12.1613H12.1652H12.1692H12.1731H12.1771H12.181H12.1849H12.1888H12.1928H12.1967H12.2006H12.2045H12.2084H12.2123H12.2163H12.2202H12.2241H12.228H12.2319H12.2358H12.2397H12.2435H12.2474H12.2513H12.2552H12.2591H12.2629H12.2668H12.2707H12.2745H12.2784H12.2823H12.2861H12.29H12.2938H12.2976H12.3015H12.3053H12.3092H12.313H12.3168H12.3206H12.3244H12.3283H12.3321H12.3359H12.3397H12.3435H12.3473H12.3511H12.3549H12.3586H12.3624H12.3662H12.37H12.3737H12.3775H12.3812H12.385H12.3887H12.3925H12.3962H12.4H12.4037H12.4074H12.4112H12.4149H12.4186H12.4223H12.426H12.4297H12.4334H12.4371H12.4408H12.4444H12.4481H12.4518H12.4555H12.4591H12.4628H12.4664H12.4701H12.4737H12.4773H12.481H12.4813V4.70025V4.70091V4.70156V4.70222V4.70288V4.70354V4.70419V4.70485V4.70551V4.70616V4.70682V4.70747V4.70813V4.70878V4.70944V4.71009V4.71075V4.7114V4.71205V4.71271V4.71336V4.71401V4.71466V4.71532V4.71597V4.71662V4.71727V4.71792V4.71857V4.71923V4.71988V4.72053V4.72118V4.72183V4.72248V4.72313V4.72377V4.72442V4.72507V4.72572V4.72637V4.72702V4.72766V4.72831V4.72896V4.72961V4.73025V4.7309V4.73155V4.73219V4.73284V4.73348V4.73413V4.73478V4.73542V4.73607V4.73671V4.73736V4.738V4.73864V4.73929V4.73993V4.74057V4.74122V4.74186V4.7425V4.74315V4.74379V4.74443V4.74507V4.74572V4.74636V4.747V4.74764V4.74828V4.74892V4.74956V4.7502V4.75084V4.75148V4.75212V4.75276V4.7534V4.75404V4.75468V4.75532V4.75596V4.7566V4.75724V4.75788V4.75852V4.75915V4.75979V4.76043V4.76107V4.7617V4.76234V4.76298V4.76362V4.76425V4.76489V4.76553V4.76616V4.7668V4.76743V4.76807V4.76871V4.76934V4.76998V4.77061V4.77125V4.77188V4.77252V4.77315V4.77379V4.77442V4.77506V4.77569V4.77632V4.77696V4.77759V4.77823V4.77886V4.77949V4.78013V4.78076V4.78139V4.78202V4.78266V4.78329V4.78392V4.78455V4.78519V4.78582V4.78645V4.78708V4.78771V4.78835V4.78898V4.78961V4.79024V4.79087V4.7915V4.79213V4.79276V4.7934V4.79403V4.79466V4.79529V4.79592V4.79655V4.79718V4.79781V4.79844V4.79907V4.7997V4.80033V4.80096V4.80159V4.80222V4.80285V4.80348V4.8041V4.80473V4.80536V4.80599V4.80662V4.80725V4.80788V4.80851V4.80914V4.80976V4.81039V4.81102V4.81165V4.81228V4.81291V4.81353V4.81416V4.81479V4.81542V4.81605V4.81667V4.8173V4.81793V4.81856V4.81918V4.81981V4.82044V4.82107V4.82169V4.82232V4.82295V4.82358V4.8242V4.82483V4.82546V4.82608V4.82671V4.82734V4.82797V4.82859V4.82922V4.82985V4.83047V4.8311V4.83173V4.83235V4.83298V4.83361V4.83423V4.83486V4.83549V4.83611V4.83674V4.83737V4.83799V4.83862V4.83925V4.83987V4.8405V4.84112V4.84175V4.84238V4.843V4.84363V4.84426V4.84488V4.84551V4.84614V4.84676V4.84739C12.4813 4.85255 12.4813 4.85772 12.4813 4.86288C12.4811 4.97055 12.481 5.07961 12.5409 5.20161C12.7569 5.65827 13.0232 5.98192 13.5933 6.319C14.1481 6.64709 15.0004 6.99365 16.3884 7.50683C18.1566 8.16792 19.2779 8.68824 19.9556 9.1664C20.6225 9.63695 20.8287 10.0432 20.83 10.4819C20.8258 10.5659 20.7937 10.677 20.7256 10.8142C20.6575 10.9515 20.5589 11.1037 20.4356 11.265C20.2854 11.4617 20.1024 11.6666 19.9022 11.868C20.0396 11.7 20.1508 11.5319 20.22 11.3665C20.4438 10.8542 20.2267 10.2809 19.8046 9.79395C19.3761 9.29968 18.7004 8.84559 17.8822 8.53594C17.2246 8.27381 16.1338 8.03415 15.1152 7.86046C14.0954 7.68659 13.117 7.57367 12.6813 7.57367H12.4825L12.4813 7.77249Z" fill="#E3207B" stroke="#E3207B" stroke-width="0.4"/>
</g>
<path d="M9.388 18.632C9.93067 18.632 10.4183 18.5147 10.851 18.28C11.2837 18.0453 11.6247 17.708 11.874 17.268C12.1307 16.8207 12.259 16.2853 12.259 15.662V10.47H11.247V13.891H11.225C11.0417 13.5537 10.7703 13.2823 10.411 13.077C10.0517 12.8643 9.65567 12.758 9.223 12.758C8.70967 12.758 8.244 12.8753 7.826 13.11C7.41533 13.3447 7.089 13.6783 6.847 14.111C6.61233 14.5363 6.495 15.0423 6.495 15.629C6.495 16.245 6.616 16.7803 6.858 17.235C7.10733 17.6823 7.44833 18.027 7.881 18.269C8.321 18.511 8.82333 18.632 9.388 18.632ZM9.388 17.763C9.04333 17.763 8.728 17.6787 8.442 17.51C8.16333 17.3413 7.93967 17.103 7.771 16.795C7.60233 16.487 7.518 16.1203 7.518 15.695C7.518 15.2843 7.59867 14.925 7.76 14.617C7.92867 14.309 8.15233 14.067 8.431 13.891C8.717 13.715 9.03233 13.627 9.377 13.627C9.72167 13.627 10.0333 13.7113 10.312 13.88C10.598 14.0487 10.8217 14.2907 10.983 14.606C11.1517 14.914 11.236 15.2807 11.236 15.706C11.236 16.124 11.1517 16.487 10.983 16.795C10.8217 17.103 10.6017 17.3413 10.323 17.51C10.0443 17.6787 9.73267 17.763 9.388 17.763Z" fill="black"/>
<path d="M10.851 18.28L10.6603 17.9284L10.851 18.28ZM11.874 17.268L11.527 17.0689L11.526 17.0708L11.874 17.268ZM12.259 10.47H12.659V10.07H12.259V10.47ZM11.247 10.47V10.07H10.847V10.47H11.247ZM11.247 13.891V14.291H11.647V13.891H11.247ZM11.225 13.891L10.8736 14.082L10.9871 14.291H11.225V13.891ZM10.411 13.077L10.2072 13.4213L10.2125 13.4243L10.411 13.077ZM7.826 13.11L7.63018 12.7612L7.62754 12.7627L7.826 13.11ZM6.847 14.111L6.49789 13.9157L6.49677 13.9178L6.847 14.111ZM6.858 17.235L6.50484 17.423L6.50861 17.4297L6.858 17.235ZM7.881 18.269L7.68573 18.6181L7.68823 18.6195L7.881 18.269ZM8.442 17.51L8.23487 17.8522L8.23881 17.8545L8.442 17.51ZM7.771 16.795L7.42016 16.9871L7.771 16.795ZM7.76 14.617L7.4091 14.4248L7.40567 14.4314L7.76 14.617ZM8.431 13.891L8.22135 13.5503L8.2174 13.5528L8.431 13.891ZM10.312 13.88L10.1049 14.2222L10.1088 14.2245L10.312 13.88ZM10.983 14.606L10.6268 14.7883L10.6322 14.7981L10.983 14.606ZM10.983 16.795L10.6321 16.6028L10.6287 16.6094L10.983 16.795ZM10.323 17.51L10.1159 17.1678L10.323 17.51ZM9.388 19.032C9.9903 19.032 10.5447 18.9012 11.0417 18.6316L10.6603 17.9284C10.292 18.1281 9.87103 18.232 9.388 18.232V19.032ZM11.0417 18.6316C11.5421 18.3602 11.9368 17.9685 12.222 17.4652L11.526 17.0708C11.3125 17.4475 11.0252 17.7305 10.6603 17.9284L11.0417 18.6316ZM12.2209 17.4671C12.519 16.9477 12.659 16.3406 12.659 15.662H11.859C11.859 16.23 11.7424 16.6937 11.5271 17.0689L12.2209 17.4671ZM12.659 15.662V10.47H11.859V15.662H12.659ZM12.259 10.07H11.247V10.87H12.259V10.07ZM10.847 10.47V13.891H11.647V10.47H10.847ZM11.247 13.491H11.225V14.291H11.247V13.491ZM11.5764 13.7C11.3549 13.2923 11.0281 12.9689 10.6095 12.7297L10.2125 13.4243C10.5126 13.5957 10.7285 13.8151 10.8736 14.082L11.5764 13.7ZM10.6147 12.7328C10.1914 12.4822 9.72463 12.358 9.223 12.358V13.158C9.5867 13.158 9.91192 13.2464 10.2073 13.4212L10.6147 12.7328ZM9.223 12.358C8.6461 12.358 8.11222 12.4906 7.63019 12.7612L8.02181 13.4588C8.37578 13.2601 8.77323 13.158 9.223 13.158V12.358ZM7.62754 12.7627C7.15069 13.0352 6.77359 13.4228 6.4979 13.9157L7.1961 14.3063C7.40441 13.9338 7.67998 13.6541 8.02446 13.4573L7.62754 12.7627ZM6.49677 13.9178C6.22331 14.4134 6.095 14.9887 6.095 15.629H6.895C6.895 15.0959 7.00135 14.6593 7.19723 14.3042L6.49677 13.9178ZM6.095 15.629C6.095 16.2978 6.22661 16.9001 6.5049 17.4229L7.2111 17.0471C7.00539 16.6606 6.895 16.1922 6.895 15.629H6.095ZM6.50861 17.4297C6.79277 17.9396 7.18618 18.3387 7.68574 18.6181L8.07626 17.9199C7.71049 17.7153 7.42189 17.4251 7.20739 17.0403L6.50861 17.4297ZM7.68823 18.6195C8.19434 18.8978 8.76446 19.032 9.388 19.032V18.232C8.88221 18.232 8.44766 18.1242 8.07377 17.9185L7.68823 18.6195ZM9.388 17.363C9.11196 17.363 8.86723 17.2964 8.64519 17.1655L8.23881 17.8545C8.58877 18.0609 8.97471 18.163 9.388 18.163V17.363ZM8.64912 17.1678C8.43543 17.0385 8.25939 16.854 8.12184 16.6029L7.42016 16.9871C7.61995 17.352 7.89124 17.6442 8.23488 17.8522L8.64912 17.1678ZM8.12184 16.6029C7.99158 16.365 7.918 16.0673 7.918 15.695H7.118C7.118 16.1734 7.21309 16.609 7.42016 16.9871L8.12184 16.6029ZM7.918 15.695C7.918 15.3373 7.98799 15.0438 8.11433 14.8026L7.40567 14.4314C7.20935 14.8062 7.118 15.2314 7.118 15.695H7.918ZM8.11084 14.8091C8.2491 14.5566 8.42709 14.3666 8.6446 14.2292L8.2174 13.5528C7.87758 13.7674 7.60823 14.0614 7.40916 14.4249L8.11084 14.8091ZM8.64064 14.2317C8.86187 14.0955 9.1043 14.027 9.377 14.027V13.227C8.96036 13.227 8.57213 13.3345 8.22136 13.5503L8.64064 14.2317ZM9.377 14.027C9.65307 14.027 9.89236 14.0936 10.1049 14.2222L10.5191 13.5378C10.1743 13.3291 9.79026 13.227 9.377 13.227V14.027ZM10.1088 14.2245C10.3251 14.3521 10.4977 14.5357 10.6269 14.7882L11.3391 14.4238C11.1456 14.0457 10.8709 13.7453 10.5152 13.5355L10.1088 14.2245ZM10.6322 14.7981C10.7624 15.036 10.836 15.3337 10.836 15.706H11.636C11.636 15.2276 11.5409 14.792 11.3338 14.4139L10.6322 14.7981ZM10.836 15.706C10.836 16.0696 10.763 16.364 10.6322 16.6029L11.3338 16.9871C11.5404 16.61 11.636 16.1784 11.636 15.706H10.836ZM10.6287 16.6094C10.4988 16.8573 10.3279 17.0395 10.1159 17.1678L10.5301 17.8522C10.8755 17.6432 11.1445 17.3487 11.3373 16.9806L10.6287 16.6094ZM10.1159 17.1678C9.90336 17.2964 9.66407 17.363 9.388 17.363V18.163C9.80126 18.163 10.1853 18.0609 10.5301 17.8522L10.1159 17.1678Z" fill="black"/>
<path d="M12.4813 6.77249L12.443 13.231C12.3153 13.2013 12.1482 13.1617 11.9687 13.1171C11.6413 13.0357 11.2854 12.9407 11.05 12.8605V3.69998H11.0501H11.0531H11.0562H11.0592H11.0623H11.0654H11.0685H11.0716H11.0747H11.0778H11.0809H11.084H11.0872H11.0903H11.0935H11.0966H11.0998H11.103H11.1062H11.1094H11.1126H11.1158H11.119H11.1222H11.1254H11.1287H11.1319H11.1352H11.1384H11.1417H11.145H11.1482H11.1515H11.1548H11.1581H11.1614H11.1648H11.1681H11.1714H11.1747H11.1781H11.1814H11.1848H11.1882H11.1915H11.1949H11.1983H11.2017H11.2051H11.2085H11.2119H11.2153H11.2188H11.2222H11.2256H11.2291H11.2325H11.236H11.2394H11.2429H11.2464H11.2499H11.2534H11.2569H11.2604H11.2639H11.2674H11.2709H11.2744H11.2779H11.2815H11.285H11.2886H11.2921H11.2957H11.2993H11.3028H11.3064H11.31H11.3136H11.3172H11.3208H11.3244H11.328H11.3316H11.3352H11.3388H11.3425H11.3461H11.3497H11.3534H11.357H11.3607H11.3644H11.368H11.3717H11.3754H11.379H11.3827H11.3864H11.3901H11.3938H11.3975H11.4012H11.4049H11.4087H11.4124H11.4161H11.4199H11.4236H11.4273H11.4311H11.4348H11.4386H11.4423H11.4461H11.4499H11.4536H11.4574H11.4612H11.465H11.4688H11.4726H11.4764H11.4802H11.484H11.4878H11.4916H11.4954H11.4992H11.503H11.5069H11.5107H11.5145H11.5184H11.5222H11.526H11.5299H11.5337H11.5376H11.5415H11.5453H11.5492H11.553H11.5569H11.5608H11.5647H11.5685H11.5724H11.5763H11.5802H11.5841H11.588H11.5919H11.5958H11.5997H11.6036H11.6075H11.6114H11.6153H11.6193H11.6232H11.6271H11.631H11.635H11.6389H11.6428H11.6467H11.6507H11.6546H11.6586H11.6625H11.6665H11.6704H11.6744H11.6783H11.6823H11.6862H11.6902H11.6941H11.6981H11.7021H11.706H11.71H11.714H11.7179H11.7219H11.7259H11.7299H11.7338H11.7378H11.7418H11.7458H11.7498H11.7538H11.7577H11.7617H11.7657H11.7697H11.7737H11.7777H11.7817H11.7857H11.7897H11.7937H11.7977H11.8017H11.8057H11.8097H11.8137H11.8177H11.8217H11.8257H11.8297H11.8337H11.8377H11.8417H11.8457H11.8498H11.8538H11.8578H11.8618H11.8658H11.8698H11.8738H11.8778H11.8818H11.8859H11.8899H11.8939H11.8979H11.9019H11.9059H11.9099H11.914H11.918H11.922H11.926H11.93H11.934H11.938H11.942H11.9461H11.9501H11.9541H11.9581H11.9621H11.9661H11.9701H11.9741H11.9781H11.9822H11.9862H11.9902H11.9942H11.9982H12.0022H12.0062H12.0102H12.0142H12.0182H12.0222H12.0262H12.0302H12.0342H12.0382H12.0422H12.0462H12.0502H12.0542H12.0581H12.0621H12.0661H12.0701H12.0741H12.0781H12.0821H12.086H12.09H12.094H12.098H12.1019H12.1059H12.1099H12.1138H12.1178H12.1218H12.1257H12.1297H12.1337H12.1376H12.1416H12.1455H12.1495H12.1534H12.1574H12.1613H12.1652H12.1692H12.1731H12.1771H12.181H12.1849H12.1888H12.1928H12.1967H12.2006H12.2045H12.2084H12.2123H12.2163H12.2202H12.2241H12.228H12.2319H12.2358H12.2397H12.2435H12.2474H12.2513H12.2552H12.2591H12.2629H12.2668H12.2707H12.2745H12.2784H12.2823H12.2861H12.29H12.2938H12.2976H12.3015H12.3053H12.3092H12.313H12.3168H12.3206H12.3244H12.3283H12.3321H12.3359H12.3397H12.3435H12.3473H12.3511H12.3549H12.3586H12.3624H12.3662H12.37H12.3737H12.3775H12.3812H12.385H12.3887H12.3925H12.3962H12.4H12.4037H12.4074H12.4112H12.4149H12.4186H12.4223H12.426H12.4297H12.4334H12.4371H12.4408H12.4444H12.4481H12.4518H12.4555H12.4591H12.4628H12.4664H12.4701H12.4737H12.4773H12.481H12.4813V3.70025V3.70091V3.70156V3.70222V3.70288V3.70354V3.70419V3.70485V3.70551V3.70616V3.70682V3.70747V3.70813V3.70878V3.70944V3.71009V3.71075V3.7114V3.71205V3.71271V3.71336V3.71401V3.71466V3.71532V3.71597V3.71662V3.71727V3.71792V3.71857V3.71923V3.71988V3.72053V3.72118V3.72183V3.72248V3.72313V3.72377V3.72442V3.72507V3.72572V3.72637V3.72702V3.72766V3.72831V3.72896V3.72961V3.73025V3.7309V3.73155V3.73219V3.73284V3.73348V3.73413V3.73478V3.73542V3.73607V3.73671V3.73736V3.738V3.73864V3.73929V3.73993V3.74057V3.74122V3.74186V3.7425V3.74315V3.74379V3.74443V3.74507V3.74572V3.74636V3.747V3.74764V3.74828V3.74892V3.74956V3.7502V3.75084V3.75148V3.75212V3.75276V3.7534V3.75404V3.75468V3.75532V3.75596V3.7566V3.75724V3.75788V3.75852V3.75915V3.75979V3.76043V3.76107V3.7617V3.76234V3.76298V3.76362V3.76425V3.76489V3.76553V3.76616V3.7668V3.76743V3.76807V3.76871V3.76934V3.76998V3.77061V3.77125V3.77188V3.77252V3.77315V3.77379V3.77442V3.77506V3.77569V3.77632V3.77696V3.77759V3.77823V3.77886V3.77949V3.78013V3.78076V3.78139V3.78202V3.78266V3.78329V3.78392V3.78455V3.78519V3.78582V3.78645V3.78708V3.78771V3.78835V3.78898V3.78961V3.79024V3.79087V3.7915V3.79213V3.79276V3.7934V3.79403V3.79466V3.79529V3.79592V3.79655V3.79718V3.79781V3.79844V3.79907V3.7997V3.80033V3.80096V3.80159V3.80222V3.80285V3.80348V3.8041V3.80473V3.80536V3.80599V3.80662V3.80725V3.80788V3.80851V3.80914V3.80976V3.81039V3.81102V3.81165V3.81228V3.81291V3.81353V3.81416V3.81479V3.81542V3.81605V3.81667V3.8173V3.81793V3.81856V3.81918V3.81981V3.82044V3.82107V3.82169V3.82232V3.82295V3.82358V3.8242V3.82483V3.82546V3.82608V3.82671V3.82734V3.82797V3.82859V3.82922V3.82985V3.83047V3.8311V3.83173V3.83235V3.83298V3.83361V3.83423V3.83486V3.83549V3.83611V3.83674V3.83737V3.83799V3.83862V3.83925V3.83987V3.8405V3.84112V3.84175V3.84238V3.843V3.84363V3.84426V3.84488V3.84551V3.84614V3.84676V3.84739C12.4813 3.85255 12.4813 3.85772 12.4813 3.86288C12.4811 3.97054 12.481 4.07961 12.5409 4.2016C12.7569 4.65827 13.0232 4.98192 13.5933 5.319C14.1481 5.64709 15.0004 5.99365 16.3884 6.50683C18.1566 7.16792 19.2779 7.68824 19.9556 8.1664C20.6225 8.63695 20.8287 9.04319 20.83 9.48186C20.8258 9.56591 20.7937 9.67703 20.7256 9.81418C20.6575 9.95146 20.5589 10.1037 20.4356 10.265C20.2854 10.4617 20.1024 10.6666 19.9022 10.868C20.0396 10.7 20.1508 10.5319 20.22 10.3665C20.4438 9.85421 20.2267 9.28088 19.8046 8.79396C19.3761 8.29968 18.7004 7.84559 17.8822 7.53594C17.2246 7.27381 16.1338 7.03415 15.1152 6.86046C14.0954 6.68659 13.117 6.57367 12.6813 6.57367H12.4825L12.4813 6.77249Z" fill="black" stroke="black" stroke-width="0.4"/>
<defs>
<filter id="filter0_f" x="5.095" y="4.49997" width="16.935" height="17.532" filterUnits="userSpaceOnUse" color-interpolation-filters="sRGB">
<feFlood flood-opacity="0" result="BackgroundImageFix"/>
<feBlend mode="normal" in="SourceGraphic" in2="BackgroundImageFix" result="shape"/>
<feGaussianBlur stdDeviation="0.5" result="effect1_foregroundBlur"/>
</filter>
<filter id="filter1_f" x="5.095" y="3.49997" width="16.935" height="17.532" filterUnits="userSpaceOnUse" color-interpolation-filters="sRGB">
<feFlood flood-opacity="0" result="BackgroundImageFix"/>
<feBlend mode="normal" in="SourceGraphic" in2="BackgroundImageFix" result="shape"/>
<feGaussianBlur stdDeviation="0.5" result="effect1_foregroundBlur"/>
</filter>
</defs>
</svg>
