<svg width="23" height="24" viewBox="0 0 23 24" fill="none" xmlns="http://www.w3.org/2000/svg">
<circle cx="11.5" cy="11.5" r="11.5" fill="white"/>
<path d="M9.388 18.632C9.93067 18.632 10.4183 18.5147 10.851 18.28C11.2837 18.0453 11.6247 17.708 11.874 17.268C12.1307 16.8207 12.259 16.2853 12.259 15.662V10.47H11.247V13.891H11.225C11.0417 13.5537 10.7703 13.2823 10.411 13.077C10.0517 12.8643 9.65567 12.758 9.223 12.758C8.70967 12.758 8.244 12.8753 7.826 13.11C7.41533 13.3447 7.089 13.6783 6.847 14.111C6.61233 14.5363 6.495 15.0423 6.495 15.629C6.495 16.245 6.616 16.7803 6.858 17.235C7.10733 17.6823 7.44833 18.027 7.881 18.269C8.321 18.511 8.82333 18.632 9.388 18.632ZM9.388 17.763C9.04333 17.763 8.728 17.6787 8.442 17.51C8.16333 17.3413 7.93967 17.103 7.771 16.795C7.60233 16.487 7.518 16.1203 7.518 15.695C7.518 15.2843 7.59867 14.925 7.76 14.617C7.92867 14.309 8.15233 14.067 8.431 13.891C8.717 13.715 9.03233 13.627 9.377 13.627C9.72167 13.627 10.0333 13.7113 10.312 13.88C10.598 14.0487 10.8217 14.2907 10.983 14.606C11.1517 14.914 11.236 15.2807 11.236 15.706C11.236 16.124 11.1517 16.487 10.983 16.795C10.8217 17.103 10.6017 17.3413 10.323 17.51C10.0443 17.6787 9.73267 17.763 9.388 17.763Z" fill="black"/>
<path d="M10.851 18.28L10.6603 17.9284L10.6603 17.9284L10.851 18.28ZM11.874 17.268L11.527 17.0689L11.526 17.0708L11.874 17.268ZM12.259 10.47H12.659V10.07H12.259V10.47ZM11.247 10.47V10.07H10.847V10.47H11.247ZM11.247 13.891V14.291H11.647V13.891H11.247ZM11.225 13.891L10.8736 14.082L10.9871 14.291H11.225V13.891ZM10.411 13.077L10.2072 13.4213L10.2125 13.4243L10.411 13.077ZM7.826 13.11L7.63018 12.7612L7.62754 12.7627L7.826 13.11ZM6.847 14.111L6.49789 13.9157L6.49677 13.9178L6.847 14.111ZM6.858 17.235L6.50484 17.423L6.50861 17.4297L6.858 17.235ZM7.881 18.269L7.68573 18.6181L7.68823 18.6195L7.881 18.269ZM8.442 17.51L8.23487 17.8522L8.23881 17.8545L8.442 17.51ZM7.771 16.795L7.42016 16.9871L7.42016 16.9871L7.771 16.795ZM7.76 14.617L7.4091 14.4248L7.40567 14.4314L7.76 14.617ZM8.431 13.891L8.22135 13.5503L8.2174 13.5528L8.431 13.891ZM10.312 13.88L10.1049 14.2222L10.1088 14.2245L10.312 13.88ZM10.983 14.606L10.6268 14.7883L10.6322 14.7981L10.983 14.606ZM10.983 16.795L10.6321 16.6028L10.6287 16.6094L10.983 16.795ZM10.323 17.51L10.1159 17.1678L10.1159 17.1678L10.323 17.51ZM9.388 19.032C9.9903 19.032 10.5447 18.9012 11.0417 18.6316L10.6603 17.9284C10.292 18.1281 9.87103 18.232 9.388 18.232V19.032ZM11.0417 18.6316C11.5421 18.3602 11.9368 17.9685 12.222 17.4652L11.526 17.0708C11.3125 17.4475 11.0252 17.7305 10.6603 17.9284L11.0417 18.6316ZM12.2209 17.4671C12.519 16.9477 12.659 16.3406 12.659 15.662H11.859C11.859 16.23 11.7424 16.6937 11.5271 17.0689L12.2209 17.4671ZM12.659 15.662V10.47H11.859V15.662H12.659ZM12.259 10.07H11.247V10.87H12.259V10.07ZM10.847 10.47V13.891H11.647V10.47H10.847ZM11.247 13.491H11.225V14.291H11.247V13.491ZM11.5765 13.7C11.3549 13.2923 11.0281 12.9689 10.6095 12.7297L10.2125 13.4243C10.5126 13.5957 10.7285 13.8151 10.8736 14.082L11.5765 13.7ZM10.6147 12.7328C10.1914 12.4822 9.72463 12.358 9.223 12.358V13.158C9.5867 13.158 9.91192 13.2464 10.2073 13.4212L10.6147 12.7328ZM9.223 12.358C8.6461 12.358 8.11222 12.4906 7.63019 12.7612L8.02181 13.4588C8.37578 13.2601 8.77323 13.158 9.223 13.158V12.358ZM7.62754 12.7627C7.15069 13.0352 6.77359 13.4228 6.4979 13.9157L7.1961 14.3063C7.40441 13.9338 7.67998 13.6541 8.02446 13.4573L7.62754 12.7627ZM6.49677 13.9178C6.22331 14.4134 6.095 14.9887 6.095 15.629H6.895C6.895 15.0959 7.00135 14.6593 7.19723 14.3042L6.49677 13.9178ZM6.095 15.629C6.095 16.2978 6.22661 16.9001 6.5049 17.4229L7.2111 17.0471C7.00539 16.6606 6.895 16.1922 6.895 15.629H6.095ZM6.50861 17.4297C6.79277 17.9396 7.18618 18.3387 7.68574 18.6181L8.07626 17.9199C7.71049 17.7153 7.42189 17.4251 7.20739 17.0403L6.50861 17.4297ZM7.68823 18.6195C8.19434 18.8978 8.76446 19.032 9.388 19.032V18.232C8.88221 18.232 8.44766 18.1242 8.07377 17.9185L7.68823 18.6195ZM9.388 17.363C9.11196 17.363 8.86723 17.2964 8.64519 17.1655L8.23881 17.8545C8.58877 18.0609 8.97471 18.163 9.388 18.163V17.363ZM8.64912 17.1678C8.43543 17.0385 8.25939 16.854 8.12184 16.6029L7.42016 16.9871C7.61995 17.352 7.89124 17.6442 8.23488 17.8522L8.64912 17.1678ZM8.12184 16.6029C7.99158 16.365 7.918 16.0673 7.918 15.695H7.118C7.118 16.1734 7.21309 16.609 7.42016 16.9871L8.12184 16.6029ZM7.918 15.695C7.918 15.3373 7.98799 15.0438 8.11433 14.8026L7.40567 14.4314C7.20935 14.8062 7.118 15.2314 7.118 15.695H7.918ZM8.11084 14.8091C8.2491 14.5566 8.42709 14.3666 8.6446 14.2292L8.2174 13.5528C7.87758 13.7674 7.60823 14.0614 7.40916 14.4249L8.11084 14.8091ZM8.64064 14.2317C8.86187 14.0955 9.1043 14.027 9.377 14.027V13.227C8.96036 13.227 8.57213 13.3345 8.22136 13.5503L8.64064 14.2317ZM9.377 14.027C9.65307 14.027 9.89236 14.0936 10.1049 14.2222L10.5191 13.5378C10.1743 13.3291 9.79026 13.227 9.377 13.227V14.027ZM10.1088 14.2245C10.3251 14.3521 10.4977 14.5357 10.6269 14.7882L11.3391 14.4238C11.1456 14.0457 10.8709 13.7453 10.5152 13.5355L10.1088 14.2245ZM10.6322 14.7981C10.7624 15.036 10.836 15.3337 10.836 15.706H11.636C11.636 15.2276 11.5409 14.792 11.3338 14.4139L10.6322 14.7981ZM10.836 15.706C10.836 16.0696 10.763 16.364 10.6322 16.6029L11.3338 16.9871C11.5404 16.61 11.636 16.1784 11.636 15.706H10.836ZM10.6287 16.6094C10.4988 16.8573 10.3279 17.0395 10.1159 17.1678L10.5301 17.8522C10.8755 17.6432 11.1445 17.3487 11.3373 16.9806L10.6287 16.6094ZM10.1159 17.1678C9.90336 17.2964 9.66407 17.363 9.388 17.363V18.163C9.80126 18.163 10.1853 18.0609 10.5301 17.8522L10.1159 17.1678Z" fill="black"/>
<path d="M12.4813 6.77249L12.443 13.231C12.3153 13.2013 12.1482 13.1617 11.9687 13.1171C11.6413 13.0357 11.2854 12.9407 11.05 12.8605V3.69998H11.0501H11.0531H11.0562H11.0592H11.0623H11.0654H11.0685H11.0716H11.0747H11.0778H11.0809H11.084H11.0872H11.0903H11.0935H11.0966H11.0998H11.103H11.1062H11.1094H11.1126H11.1158H11.119H11.1222H11.1254H11.1287H11.1319H11.1352H11.1384H11.1417H11.145H11.1482H11.1515H11.1548H11.1581H11.1614H11.1648H11.1681H11.1714H11.1747H11.1781H11.1814H11.1848H11.1882H11.1915H11.1949H11.1983H11.2017H11.2051H11.2085H11.2119H11.2153H11.2188H11.2222H11.2256H11.2291H11.2325H11.236H11.2394H11.2429H11.2464H11.2499H11.2534H11.2569H11.2604H11.2639H11.2674H11.2709H11.2744H11.2779H11.2815H11.285H11.2886H11.2921H11.2957H11.2993H11.3028H11.3064H11.31H11.3136H11.3172H11.3208H11.3244H11.328H11.3316H11.3352H11.3388H11.3425H11.3461H11.3497H11.3534H11.357H11.3607H11.3644H11.368H11.3717H11.3754H11.379H11.3827H11.3864H11.3901H11.3938H11.3975H11.4012H11.4049H11.4087H11.4124H11.4161H11.4199H11.4236H11.4273H11.4311H11.4348H11.4386H11.4423H11.4461H11.4499H11.4536H11.4574H11.4612H11.465H11.4688H11.4726H11.4764H11.4802H11.484H11.4878H11.4916H11.4954H11.4992H11.503H11.5069H11.5107H11.5145H11.5184H11.5222H11.526H11.5299H11.5337H11.5376H11.5415H11.5453H11.5492H11.553H11.5569H11.5608H11.5647H11.5685H11.5724H11.5763H11.5802H11.5841H11.588H11.5919H11.5958H11.5997H11.6036H11.6075H11.6114H11.6153H11.6193H11.6232H11.6271H11.631H11.635H11.6389H11.6428H11.6467H11.6507H11.6546H11.6586H11.6625H11.6665H11.6704H11.6744H11.6783H11.6823H11.6862H11.6902H11.6941H11.6981H11.7021H11.706H11.71H11.714H11.7179H11.7219H11.7259H11.7299H11.7338H11.7378H11.7418H11.7458H11.7498H11.7538H11.7577H11.7617H11.7657H11.7697H11.7737H11.7777H11.7817H11.7857H11.7897H11.7937H11.7977H11.8017H11.8057H11.8097H11.8137H11.8177H11.8217H11.8257H11.8297H11.8337H11.8377H11.8417H11.8457H11.8498H11.8538H11.8578H11.8618H11.8658H11.8698H11.8738H11.8778H11.8818H11.8859H11.8899H11.8939H11.8979H11.9019H11.9059H11.9099H11.914H11.918H11.922H11.926H11.93H11.934H11.938H11.942H11.9461H11.9501H11.9541H11.9581H11.9621H11.9661H11.9701H11.9741H11.9781H11.9822H11.9862H11.9902H11.9942H11.9982H12.0022H12.0062H12.0102H12.0142H12.0182H12.0222H12.0262H12.0302H12.0342H12.0382H12.0422H12.0462H12.0502H12.0542H12.0581H12.0621H12.0661H12.0701H12.0741H12.0781H12.0821H12.086H12.09H12.094H12.098H12.1019H12.1059H12.1099H12.1138H12.1178H12.1218H12.1257H12.1297H12.1337H12.1376H12.1416H12.1455H12.1495H12.1534H12.1574H12.1613H12.1652H12.1692H12.1731H12.1771H12.181H12.1849H12.1888H12.1928H12.1967H12.2006H12.2045H12.2084H12.2123H12.2163H12.2202H12.2241H12.228H12.2319H12.2358H12.2397H12.2435H12.2474H12.2513H12.2552H12.2591H12.2629H12.2668H12.2707H12.2745H12.2784H12.2823H12.2861H12.29H12.2938H12.2976H12.3015H12.3053H12.3092H12.313H12.3168H12.3206H12.3244H12.3283H12.3321H12.3359H12.3397H12.3435H12.3473H12.3511H12.3549H12.3586H12.3624H12.3662H12.37H12.3737H12.3775H12.3812H12.385H12.3887H12.3925H12.3962H12.4H12.4037H12.4074H12.4112H12.4149H12.4186H12.4223H12.426H12.4297H12.4334H12.4371H12.4408H12.4444H12.4481H12.4518H12.4555H12.4591H12.4628H12.4664H12.4701H12.4737H12.4773H12.481H12.4813V3.70025V3.70091V3.70156V3.70222V3.70288V3.70354V3.70419V3.70485V3.70551V3.70616V3.70682V3.70747V3.70813V3.70878V3.70944V3.71009V3.71075V3.7114V3.71205V3.71271V3.71336V3.71401V3.71466V3.71532V3.71597V3.71662V3.71727V3.71792V3.71857V3.71923V3.71988V3.72053V3.72118V3.72183V3.72248V3.72313V3.72377V3.72442V3.72507V3.72572V3.72637V3.72702V3.72766V3.72831V3.72896V3.72961V3.73025V3.7309V3.73155V3.73219V3.73284V3.73348V3.73413V3.73478V3.73542V3.73607V3.73671V3.73736V3.738V3.73864V3.73929V3.73993V3.74057V3.74122V3.74186V3.7425V3.74315V3.74379V3.74443V3.74507V3.74572V3.74636V3.747V3.74764V3.74828V3.74892V3.74956V3.7502V3.75084V3.75148V3.75212V3.75276V3.7534V3.75404V3.75468V3.75532V3.75596V3.7566V3.75724V3.75788V3.75852V3.75915V3.75979V3.76043V3.76107V3.7617V3.76234V3.76298V3.76362V3.76425V3.76489V3.76553V3.76616V3.7668V3.76743V3.76807V3.76871V3.76934V3.76998V3.77061V3.77125V3.77188V3.77252V3.77315V3.77379V3.77442V3.77506V3.77569V3.77632V3.77696V3.77759V3.77823V3.77886V3.77949V3.78013V3.78076V3.78139V3.78202V3.78266V3.78329V3.78392V3.78455V3.78519V3.78582V3.78645V3.78708V3.78771V3.78835V3.78898V3.78961V3.79024V3.79087V3.7915V3.79213V3.79276V3.7934V3.79403V3.79466V3.79529V3.79592V3.79655V3.79718V3.79781V3.79844V3.79907V3.7997V3.80033V3.80096V3.80159V3.80222V3.80285V3.80348V3.8041V3.80473V3.80536V3.80599V3.80662V3.80725V3.80788V3.80851V3.80914V3.80976V3.81039V3.81102V3.81165V3.81228V3.81291V3.81353V3.81416V3.81479V3.81542V3.81605V3.81667V3.8173V3.81793V3.81856V3.81918V3.81981V3.82044V3.82107V3.82169V3.82232V3.82295V3.82358V3.8242V3.82483V3.82546V3.82608V3.82671V3.82734V3.82797V3.82859V3.82922V3.82985V3.83047V3.8311V3.83173V3.83235V3.83298V3.83361V3.83423V3.83486V3.83549V3.83611V3.83674V3.83737V3.83799V3.83862V3.83925V3.83987V3.8405V3.84112V3.84175V3.84238V3.843V3.84363V3.84426V3.84488V3.84551V3.84614V3.84676V3.84739C12.4813 3.85255 12.4813 3.85772 12.4813 3.86288C12.4811 3.97055 12.481 4.07961 12.5409 4.20161C12.7569 4.65827 13.0232 4.98192 13.5933 5.319C14.1481 5.64709 15.0004 5.99365 16.3884 6.50683C18.1566 7.16792 19.2779 7.68824 19.9556 8.1664C20.6225 8.63695 20.8287 9.04319 20.83 9.48186C20.8258 9.56591 20.7937 9.67703 20.7256 9.81418C20.6575 9.95146 20.5589 10.1037 20.4356 10.265C20.2854 10.4617 20.1024 10.6666 19.9022 10.868C20.0396 10.7 20.1508 10.5319 20.22 10.3665C20.4438 9.85421 20.2267 9.28088 19.8046 8.79395C19.3761 8.29968 18.7004 7.84559 17.8822 7.53594C17.2246 7.27381 16.1338 7.03415 15.1152 6.86046C14.0954 6.68659 13.117 6.57367 12.6813 6.57367H12.4825L12.4813 6.77249Z" fill="black" stroke="black" stroke-width="0.4"/>
</svg>
